%TF.GenerationSoftware,KiCad,Pcbnew,7.0.4-40-g0180cb380f*%
%TF.CreationDate,2023-06-12T22:45:27+02:00*%
%TF.ProjectId,New Business Card,4e657720-4275-4736-996e-657373204361,rev?*%
%TF.SameCoordinates,Original*%
%TF.FileFunction,Legend,Top*%
%TF.FilePolarity,Positive*%
%FSLAX46Y46*%
G04 Gerber Fmt 4.6, Leading zero omitted, Abs format (unit mm)*
G04 Created by KiCad (PCBNEW 7.0.4-40-g0180cb380f) date 2023-06-12 22:45:27*
%MOMM*%
%LPD*%
G01*
G04 APERTURE LIST*
%ADD10C,0.150000*%
%ADD11C,0.300000*%
%ADD12C,0.120000*%
G04 APERTURE END LIST*
D10*
X168148000Y-59436000D02*
G75*
G03*
X168148000Y-59436000I-254000J0D01*
G01*
X186944000Y-93472000D02*
G75*
G03*
X186944000Y-93472000I-254000J0D01*
G01*
X203638001Y-50546000D02*
G75*
G03*
X203638001Y-50546000I-1J0D01*
G01*
D11*
X166416510Y-106203114D02*
X166916510Y-106203114D01*
X167130796Y-106988828D02*
X166416510Y-106988828D01*
X166416510Y-106988828D02*
X166416510Y-105488828D01*
X166416510Y-105488828D02*
X167130796Y-105488828D01*
X167630796Y-105488828D02*
X168630796Y-106988828D01*
X168630796Y-105488828D02*
X167630796Y-106988828D01*
X169202224Y-106988828D02*
X169202224Y-105488828D01*
X169202224Y-105488828D02*
X169773653Y-105488828D01*
X169773653Y-105488828D02*
X169916510Y-105560257D01*
X169916510Y-105560257D02*
X169987939Y-105631685D01*
X169987939Y-105631685D02*
X170059367Y-105774542D01*
X170059367Y-105774542D02*
X170059367Y-105988828D01*
X170059367Y-105988828D02*
X169987939Y-106131685D01*
X169987939Y-106131685D02*
X169916510Y-106203114D01*
X169916510Y-106203114D02*
X169773653Y-106274542D01*
X169773653Y-106274542D02*
X169202224Y-106274542D01*
X170702224Y-106203114D02*
X171202224Y-106203114D01*
X171416510Y-106988828D02*
X170702224Y-106988828D01*
X170702224Y-106988828D02*
X170702224Y-105488828D01*
X170702224Y-105488828D02*
X171416510Y-105488828D01*
X172916510Y-106988828D02*
X172416510Y-106274542D01*
X172059367Y-106988828D02*
X172059367Y-105488828D01*
X172059367Y-105488828D02*
X172630796Y-105488828D01*
X172630796Y-105488828D02*
X172773653Y-105560257D01*
X172773653Y-105560257D02*
X172845082Y-105631685D01*
X172845082Y-105631685D02*
X172916510Y-105774542D01*
X172916510Y-105774542D02*
X172916510Y-105988828D01*
X172916510Y-105988828D02*
X172845082Y-106131685D01*
X172845082Y-106131685D02*
X172773653Y-106203114D01*
X172773653Y-106203114D02*
X172630796Y-106274542D01*
X172630796Y-106274542D02*
X172059367Y-106274542D01*
X173559367Y-106988828D02*
X173559367Y-105488828D01*
X174273653Y-106988828D02*
X174273653Y-105488828D01*
X174273653Y-105488828D02*
X174773653Y-106560257D01*
X174773653Y-106560257D02*
X175273653Y-105488828D01*
X175273653Y-105488828D02*
X175273653Y-106988828D01*
X175987939Y-106203114D02*
X176487939Y-106203114D01*
X176702225Y-106988828D02*
X175987939Y-106988828D01*
X175987939Y-106988828D02*
X175987939Y-105488828D01*
X175987939Y-105488828D02*
X176702225Y-105488828D01*
X177345082Y-106988828D02*
X177345082Y-105488828D01*
X177345082Y-105488828D02*
X178202225Y-106988828D01*
X178202225Y-106988828D02*
X178202225Y-105488828D01*
X178702226Y-105488828D02*
X179559369Y-105488828D01*
X179130797Y-106988828D02*
X179130797Y-105488828D01*
X179987940Y-106560257D02*
X180702226Y-106560257D01*
X179845083Y-106988828D02*
X180345083Y-105488828D01*
X180345083Y-105488828D02*
X180845083Y-106988828D01*
X182059368Y-106988828D02*
X181345082Y-106988828D01*
X181345082Y-106988828D02*
X181345082Y-105488828D01*
X183702225Y-106988828D02*
X183702225Y-105488828D01*
X183702225Y-105488828D02*
X184202225Y-106560257D01*
X184202225Y-106560257D02*
X184702225Y-105488828D01*
X184702225Y-105488828D02*
X184702225Y-106988828D01*
X186273654Y-106845971D02*
X186202226Y-106917400D01*
X186202226Y-106917400D02*
X185987940Y-106988828D01*
X185987940Y-106988828D02*
X185845083Y-106988828D01*
X185845083Y-106988828D02*
X185630797Y-106917400D01*
X185630797Y-106917400D02*
X185487940Y-106774542D01*
X185487940Y-106774542D02*
X185416511Y-106631685D01*
X185416511Y-106631685D02*
X185345083Y-106345971D01*
X185345083Y-106345971D02*
X185345083Y-106131685D01*
X185345083Y-106131685D02*
X185416511Y-105845971D01*
X185416511Y-105845971D02*
X185487940Y-105703114D01*
X185487940Y-105703114D02*
X185630797Y-105560257D01*
X185630797Y-105560257D02*
X185845083Y-105488828D01*
X185845083Y-105488828D02*
X185987940Y-105488828D01*
X185987940Y-105488828D02*
X186202226Y-105560257D01*
X186202226Y-105560257D02*
X186273654Y-105631685D01*
X186916511Y-105488828D02*
X186916511Y-106703114D01*
X186916511Y-106703114D02*
X186987940Y-106845971D01*
X186987940Y-106845971D02*
X187059369Y-106917400D01*
X187059369Y-106917400D02*
X187202226Y-106988828D01*
X187202226Y-106988828D02*
X187487940Y-106988828D01*
X187487940Y-106988828D02*
X187630797Y-106917400D01*
X187630797Y-106917400D02*
X187702226Y-106845971D01*
X187702226Y-106845971D02*
X187773654Y-106703114D01*
X187773654Y-106703114D02*
X187773654Y-105488828D01*
X189630797Y-106988828D02*
X189630797Y-105488828D01*
X189630797Y-105488828D02*
X190202226Y-105488828D01*
X190202226Y-105488828D02*
X190345083Y-105560257D01*
X190345083Y-105560257D02*
X190416512Y-105631685D01*
X190416512Y-105631685D02*
X190487940Y-105774542D01*
X190487940Y-105774542D02*
X190487940Y-105988828D01*
X190487940Y-105988828D02*
X190416512Y-106131685D01*
X190416512Y-106131685D02*
X190345083Y-106203114D01*
X190345083Y-106203114D02*
X190202226Y-106274542D01*
X190202226Y-106274542D02*
X189630797Y-106274542D01*
X191845083Y-106988828D02*
X191130797Y-106988828D01*
X191130797Y-106988828D02*
X191130797Y-105488828D01*
X192273655Y-106560257D02*
X192987941Y-106560257D01*
X192130798Y-106988828D02*
X192630798Y-105488828D01*
X192630798Y-105488828D02*
X193130798Y-106988828D01*
X193416512Y-105488828D02*
X194273655Y-105488828D01*
X193845083Y-106988828D02*
X193845083Y-105488828D01*
X195273654Y-106203114D02*
X194773654Y-106203114D01*
X194773654Y-106988828D02*
X194773654Y-105488828D01*
X194773654Y-105488828D02*
X195487940Y-105488828D01*
X196345083Y-105488828D02*
X196630797Y-105488828D01*
X196630797Y-105488828D02*
X196773654Y-105560257D01*
X196773654Y-105560257D02*
X196916511Y-105703114D01*
X196916511Y-105703114D02*
X196987940Y-105988828D01*
X196987940Y-105988828D02*
X196987940Y-106488828D01*
X196987940Y-106488828D02*
X196916511Y-106774542D01*
X196916511Y-106774542D02*
X196773654Y-106917400D01*
X196773654Y-106917400D02*
X196630797Y-106988828D01*
X196630797Y-106988828D02*
X196345083Y-106988828D01*
X196345083Y-106988828D02*
X196202226Y-106917400D01*
X196202226Y-106917400D02*
X196059368Y-106774542D01*
X196059368Y-106774542D02*
X195987940Y-106488828D01*
X195987940Y-106488828D02*
X195987940Y-105988828D01*
X195987940Y-105988828D02*
X196059368Y-105703114D01*
X196059368Y-105703114D02*
X196202226Y-105560257D01*
X196202226Y-105560257D02*
X196345083Y-105488828D01*
X198487940Y-106988828D02*
X197987940Y-106274542D01*
X197630797Y-106988828D02*
X197630797Y-105488828D01*
X197630797Y-105488828D02*
X198202226Y-105488828D01*
X198202226Y-105488828D02*
X198345083Y-105560257D01*
X198345083Y-105560257D02*
X198416512Y-105631685D01*
X198416512Y-105631685D02*
X198487940Y-105774542D01*
X198487940Y-105774542D02*
X198487940Y-105988828D01*
X198487940Y-105988828D02*
X198416512Y-106131685D01*
X198416512Y-106131685D02*
X198345083Y-106203114D01*
X198345083Y-106203114D02*
X198202226Y-106274542D01*
X198202226Y-106274542D02*
X197630797Y-106274542D01*
X199130797Y-106988828D02*
X199130797Y-105488828D01*
X199130797Y-105488828D02*
X199630797Y-106560257D01*
X199630797Y-106560257D02*
X200130797Y-105488828D01*
X200130797Y-105488828D02*
X200130797Y-106988828D01*
X202273655Y-105488828D02*
X202416512Y-105488828D01*
X202416512Y-105488828D02*
X202559369Y-105560257D01*
X202559369Y-105560257D02*
X202630798Y-105631685D01*
X202630798Y-105631685D02*
X202702226Y-105774542D01*
X202702226Y-105774542D02*
X202773655Y-106060257D01*
X202773655Y-106060257D02*
X202773655Y-106417400D01*
X202773655Y-106417400D02*
X202702226Y-106703114D01*
X202702226Y-106703114D02*
X202630798Y-106845971D01*
X202630798Y-106845971D02*
X202559369Y-106917400D01*
X202559369Y-106917400D02*
X202416512Y-106988828D01*
X202416512Y-106988828D02*
X202273655Y-106988828D01*
X202273655Y-106988828D02*
X202130798Y-106917400D01*
X202130798Y-106917400D02*
X202059369Y-106845971D01*
X202059369Y-106845971D02*
X201987940Y-106703114D01*
X201987940Y-106703114D02*
X201916512Y-106417400D01*
X201916512Y-106417400D02*
X201916512Y-106060257D01*
X201916512Y-106060257D02*
X201987940Y-105774542D01*
X201987940Y-105774542D02*
X202059369Y-105631685D01*
X202059369Y-105631685D02*
X202130798Y-105560257D01*
X202130798Y-105560257D02*
X202273655Y-105488828D01*
X203416511Y-106845971D02*
X203487940Y-106917400D01*
X203487940Y-106917400D02*
X203416511Y-106988828D01*
X203416511Y-106988828D02*
X203345083Y-106917400D01*
X203345083Y-106917400D02*
X203416511Y-106845971D01*
X203416511Y-106845971D02*
X203416511Y-106988828D01*
X204916512Y-106988828D02*
X204059369Y-106988828D01*
X204487940Y-106988828D02*
X204487940Y-105488828D01*
X204487940Y-105488828D02*
X204345083Y-105703114D01*
X204345083Y-105703114D02*
X204202226Y-105845971D01*
X204202226Y-105845971D02*
X204059369Y-105917400D01*
G36*
X166156312Y-104286448D02*
G01*
X166637471Y-104103265D01*
X166682139Y-104081119D01*
X166721734Y-104049532D01*
X166746509Y-104004848D01*
X166753455Y-103953557D01*
X166753486Y-103949392D01*
X166753486Y-100707069D01*
X166746707Y-100658416D01*
X166720250Y-100615049D01*
X166718071Y-100613035D01*
X166678293Y-100582137D01*
X166637471Y-100561744D01*
X166156312Y-100378562D01*
X166156312Y-100105010D01*
X168391134Y-100105010D01*
X168391134Y-100378562D01*
X167912418Y-100561744D01*
X167865180Y-100582829D01*
X167826933Y-100610593D01*
X167797624Y-100651809D01*
X167787893Y-100703203D01*
X167787854Y-100707069D01*
X167787854Y-102391123D01*
X169489006Y-100561744D01*
X169178817Y-100378562D01*
X169178817Y-100105010D01*
X170829899Y-100105010D01*
X170829899Y-100378562D01*
X170320653Y-100545868D01*
X170271193Y-100564759D01*
X170225856Y-100586300D01*
X170188762Y-100606929D01*
X170143857Y-100636131D01*
X170103786Y-100668188D01*
X170064430Y-100705492D01*
X170060534Y-100709511D01*
X168844205Y-101950265D01*
X170354847Y-103951835D01*
X170386226Y-103990730D01*
X170401253Y-104008011D01*
X170435038Y-104043404D01*
X170458650Y-104066629D01*
X170496813Y-104099354D01*
X170519711Y-104116699D01*
X170563461Y-104142126D01*
X170579550Y-104149672D01*
X171010639Y-104298660D01*
X171010639Y-104560000D01*
X169020060Y-104560000D01*
X169020060Y-104298660D01*
X169269187Y-104147229D01*
X168088273Y-102571863D01*
X167787854Y-102729399D01*
X167787854Y-103949392D01*
X167794304Y-103999314D01*
X167817774Y-104042892D01*
X167826933Y-104051974D01*
X167867844Y-104081284D01*
X167912418Y-104103265D01*
X168387471Y-104286448D01*
X168387471Y-104560000D01*
X166156312Y-104560000D01*
X166156312Y-104286448D01*
G37*
G36*
X173488936Y-100027539D02*
G01*
X173560210Y-100029600D01*
X173630253Y-100033035D01*
X173699066Y-100037843D01*
X173766647Y-100044026D01*
X173832998Y-100051582D01*
X173898119Y-100060512D01*
X173962008Y-100070816D01*
X174024667Y-100082494D01*
X174086095Y-100095546D01*
X174146292Y-100109971D01*
X174205259Y-100125771D01*
X174262995Y-100142944D01*
X174319500Y-100161491D01*
X174374774Y-100181412D01*
X174428817Y-100202707D01*
X174481830Y-100225061D01*
X174533708Y-100248464D01*
X174584451Y-100272917D01*
X174634058Y-100298420D01*
X174682529Y-100324972D01*
X174729866Y-100352573D01*
X174776067Y-100381224D01*
X174821132Y-100410924D01*
X174865063Y-100441674D01*
X174907858Y-100473473D01*
X174949517Y-100506322D01*
X174990042Y-100540220D01*
X175029431Y-100575168D01*
X175067684Y-100611165D01*
X175104802Y-100648212D01*
X175140785Y-100686308D01*
X175175628Y-100725368D01*
X175209326Y-100765305D01*
X175241879Y-100806121D01*
X175273287Y-100847814D01*
X175303550Y-100890384D01*
X175332669Y-100933833D01*
X175360642Y-100978159D01*
X175387471Y-101023363D01*
X175413154Y-101069445D01*
X175437693Y-101116404D01*
X175461087Y-101164242D01*
X175483336Y-101212957D01*
X175504440Y-101262549D01*
X175524399Y-101313020D01*
X175543214Y-101364368D01*
X175560883Y-101416594D01*
X175577594Y-101469521D01*
X175593226Y-101522973D01*
X175607780Y-101576950D01*
X175621257Y-101631451D01*
X175633655Y-101686478D01*
X175644975Y-101742029D01*
X175655217Y-101798104D01*
X175664381Y-101854705D01*
X175672467Y-101911830D01*
X175679474Y-101969480D01*
X175685404Y-102027654D01*
X175690255Y-102086354D01*
X175694029Y-102145578D01*
X175696724Y-102205327D01*
X175698341Y-102265600D01*
X175698880Y-102326399D01*
X175698354Y-102381060D01*
X175696776Y-102435592D01*
X175694147Y-102489996D01*
X175690465Y-102544271D01*
X175685732Y-102598417D01*
X175679947Y-102652434D01*
X175673109Y-102706323D01*
X175665220Y-102760082D01*
X175656280Y-102813713D01*
X175646287Y-102867215D01*
X175639041Y-102902812D01*
X175627513Y-102955917D01*
X175614912Y-103008528D01*
X175601238Y-103060645D01*
X175586490Y-103112269D01*
X175570669Y-103163399D01*
X175553775Y-103214035D01*
X175535808Y-103264178D01*
X175516767Y-103313827D01*
X175496652Y-103362982D01*
X175475465Y-103411643D01*
X175460743Y-103443810D01*
X175437953Y-103491562D01*
X175414003Y-103538649D01*
X175388894Y-103585071D01*
X175362626Y-103630827D01*
X175335199Y-103675918D01*
X175306613Y-103720343D01*
X175276867Y-103764103D01*
X175245962Y-103807197D01*
X175213898Y-103849626D01*
X175180675Y-103891389D01*
X175157882Y-103918862D01*
X175122684Y-103959334D01*
X175086241Y-103998775D01*
X175048553Y-104037186D01*
X175009619Y-104074567D01*
X174969441Y-104110917D01*
X174928017Y-104146237D01*
X174885349Y-104180526D01*
X174841435Y-104213785D01*
X174796276Y-104246014D01*
X174749873Y-104277212D01*
X174718245Y-104297438D01*
X174669974Y-104326615D01*
X174620414Y-104354611D01*
X174569567Y-104381427D01*
X174517432Y-104407061D01*
X174464008Y-104431516D01*
X174409297Y-104454789D01*
X174353298Y-104476882D01*
X174296010Y-104497794D01*
X174237435Y-104517525D01*
X174177572Y-104536076D01*
X174136947Y-104547787D01*
X174075155Y-104563937D01*
X174012054Y-104578499D01*
X173947643Y-104591472D01*
X173881923Y-104602856D01*
X173814894Y-104612652D01*
X173746555Y-104620860D01*
X173676906Y-104627479D01*
X173605948Y-104632509D01*
X173533680Y-104635951D01*
X173484775Y-104637363D01*
X173435287Y-104638069D01*
X173410325Y-104638157D01*
X173341674Y-104637528D01*
X173274026Y-104635638D01*
X173207379Y-104632490D01*
X173141734Y-104628082D01*
X173077091Y-104622415D01*
X173013449Y-104615488D01*
X172950809Y-104607302D01*
X172889172Y-104597857D01*
X172828535Y-104587152D01*
X172768901Y-104575188D01*
X172710268Y-104561965D01*
X172652638Y-104547482D01*
X172596009Y-104531740D01*
X172540381Y-104514738D01*
X172485756Y-104496477D01*
X172432132Y-104476957D01*
X172379529Y-104456258D01*
X172327966Y-104434462D01*
X172277443Y-104411569D01*
X172227960Y-104387579D01*
X172179517Y-104362492D01*
X172132114Y-104336307D01*
X172085751Y-104309026D01*
X172040428Y-104280647D01*
X171996144Y-104251171D01*
X171952901Y-104220597D01*
X171910697Y-104188927D01*
X171869534Y-104156159D01*
X171829410Y-104122294D01*
X171790327Y-104087332D01*
X171752283Y-104051273D01*
X171715279Y-104014117D01*
X171679497Y-103975920D01*
X171644811Y-103936741D01*
X171611223Y-103896580D01*
X171578732Y-103855435D01*
X171547339Y-103813308D01*
X171517042Y-103770198D01*
X171487842Y-103726106D01*
X171459740Y-103681031D01*
X171432735Y-103634973D01*
X171406827Y-103587932D01*
X171382017Y-103539909D01*
X171358303Y-103490903D01*
X171335687Y-103440914D01*
X171314168Y-103389943D01*
X171293746Y-103337989D01*
X171274421Y-103285052D01*
X171256379Y-103231218D01*
X171239502Y-103176574D01*
X171223788Y-103121118D01*
X171209239Y-103064852D01*
X171195853Y-103007774D01*
X171183631Y-102949886D01*
X171172574Y-102891186D01*
X171162680Y-102831676D01*
X171153950Y-102771355D01*
X171146384Y-102710222D01*
X171139982Y-102648279D01*
X171134745Y-102585525D01*
X171130671Y-102521960D01*
X171127761Y-102457584D01*
X171126015Y-102392397D01*
X171125433Y-102326399D01*
X171126043Y-102264122D01*
X171127277Y-102222595D01*
X172244065Y-102222595D01*
X172244337Y-102276467D01*
X172245153Y-102329700D01*
X172246512Y-102382293D01*
X172248416Y-102434247D01*
X172250863Y-102485562D01*
X172253854Y-102536238D01*
X172257389Y-102586274D01*
X172261467Y-102635671D01*
X172266090Y-102684429D01*
X172274043Y-102756367D01*
X172283220Y-102826868D01*
X172293621Y-102895929D01*
X172305245Y-102963553D01*
X172313674Y-103007836D01*
X172327631Y-103072673D01*
X172342941Y-103135749D01*
X172359602Y-103197065D01*
X172377616Y-103256620D01*
X172396983Y-103314416D01*
X172417702Y-103370451D01*
X172439773Y-103424726D01*
X172463197Y-103477240D01*
X172487973Y-103527995D01*
X172514101Y-103576989D01*
X172532272Y-103608674D01*
X172560915Y-103654605D01*
X172590976Y-103698519D01*
X172622453Y-103740414D01*
X172655347Y-103780292D01*
X172689658Y-103818152D01*
X172725386Y-103853995D01*
X172762530Y-103887819D01*
X172801091Y-103919625D01*
X172841070Y-103949414D01*
X172882464Y-103977185D01*
X172910848Y-103994577D01*
X172954865Y-104018802D01*
X173000364Y-104040645D01*
X173047344Y-104060104D01*
X173095805Y-104077181D01*
X173145747Y-104091875D01*
X173197170Y-104104186D01*
X173250075Y-104114114D01*
X173304461Y-104121660D01*
X173360328Y-104126823D01*
X173417676Y-104129603D01*
X173456731Y-104130132D01*
X173508991Y-104129037D01*
X173559985Y-104125753D01*
X173609713Y-104120279D01*
X173658174Y-104112615D01*
X173720818Y-104098991D01*
X173781211Y-104081474D01*
X173839353Y-104060065D01*
X173895242Y-104034763D01*
X173948880Y-104005568D01*
X174000591Y-103972595D01*
X174050088Y-103936570D01*
X174097372Y-103897491D01*
X174142443Y-103855359D01*
X174185300Y-103810174D01*
X174225943Y-103761936D01*
X174264373Y-103710645D01*
X174291743Y-103670173D01*
X174300590Y-103656301D01*
X174326507Y-103613396D01*
X174351137Y-103568946D01*
X174374478Y-103522950D01*
X174396532Y-103475409D01*
X174417297Y-103426322D01*
X174436774Y-103375689D01*
X174454964Y-103323511D01*
X174471865Y-103269787D01*
X174487479Y-103214517D01*
X174501804Y-103157702D01*
X174510639Y-103118967D01*
X174522860Y-103059529D01*
X174533880Y-102998911D01*
X174543697Y-102937112D01*
X174552313Y-102874132D01*
X174559726Y-102809972D01*
X174565937Y-102744631D01*
X174570946Y-102678110D01*
X174574752Y-102610407D01*
X174577357Y-102541524D01*
X174578760Y-102471461D01*
X174579027Y-102424096D01*
X174578745Y-102369938D01*
X174577901Y-102316457D01*
X174576494Y-102263654D01*
X174574523Y-102211528D01*
X174571990Y-102160080D01*
X174568894Y-102109309D01*
X174565236Y-102059215D01*
X174561014Y-102009799D01*
X174556229Y-101961060D01*
X174547997Y-101889222D01*
X174538498Y-101818908D01*
X174527732Y-101750118D01*
X174515700Y-101682852D01*
X174506975Y-101638855D01*
X174492975Y-101574072D01*
X174477537Y-101511157D01*
X174460661Y-101450109D01*
X174442346Y-101390929D01*
X174422593Y-101333617D01*
X174401402Y-101278172D01*
X174378773Y-101224595D01*
X174354705Y-101172885D01*
X174329199Y-101123043D01*
X174302255Y-101075069D01*
X174283493Y-101044124D01*
X174254413Y-100999316D01*
X174223959Y-100956483D01*
X174192131Y-100915624D01*
X174158929Y-100876741D01*
X174124353Y-100839833D01*
X174088404Y-100804899D01*
X174051081Y-100771941D01*
X174012383Y-100740957D01*
X173972312Y-100711949D01*
X173930867Y-100684915D01*
X173902474Y-100667990D01*
X173858696Y-100644201D01*
X173813459Y-100622752D01*
X173766762Y-100603643D01*
X173718605Y-100586874D01*
X173668988Y-100572445D01*
X173617912Y-100560356D01*
X173565376Y-100550606D01*
X173511380Y-100543197D01*
X173455925Y-100538127D01*
X173399009Y-100535397D01*
X173360255Y-100534877D01*
X173304710Y-100536058D01*
X173250732Y-100539600D01*
X173198321Y-100545503D01*
X173147477Y-100553768D01*
X173098201Y-100564394D01*
X173050491Y-100577381D01*
X172989316Y-100598371D01*
X172930927Y-100623559D01*
X172875323Y-100652944D01*
X172848566Y-100669211D01*
X172797199Y-100704283D01*
X172748121Y-100742331D01*
X172701334Y-100783356D01*
X172656836Y-100827358D01*
X172614627Y-100874337D01*
X172574709Y-100924292D01*
X172537080Y-100977224D01*
X172510361Y-101018877D01*
X172501741Y-101033133D01*
X172476980Y-101076639D01*
X172453527Y-101121518D01*
X172431384Y-101167772D01*
X172410551Y-101215399D01*
X172391027Y-101264400D01*
X172372813Y-101314775D01*
X172355908Y-101366524D01*
X172340312Y-101419647D01*
X172326026Y-101474144D01*
X172313049Y-101530014D01*
X172305126Y-101568025D01*
X172294214Y-101625863D01*
X172284375Y-101684431D01*
X172275609Y-101743729D01*
X172267917Y-101803757D01*
X172261298Y-101864515D01*
X172255752Y-101926003D01*
X172251280Y-101988220D01*
X172247881Y-102051168D01*
X172245556Y-102114845D01*
X172244304Y-102179252D01*
X172244065Y-102222595D01*
X171127277Y-102222595D01*
X171127875Y-102202464D01*
X171130928Y-102141428D01*
X171135203Y-102081011D01*
X171140698Y-102021214D01*
X171147415Y-101962038D01*
X171155353Y-101903482D01*
X171164512Y-101845546D01*
X171174892Y-101788230D01*
X171186494Y-101731534D01*
X171199316Y-101675458D01*
X171213360Y-101620003D01*
X171228625Y-101565167D01*
X171245112Y-101510952D01*
X171262819Y-101457357D01*
X171281748Y-101404382D01*
X171301827Y-101352161D01*
X171322983Y-101300827D01*
X171345218Y-101250380D01*
X171368531Y-101200821D01*
X171392922Y-101152149D01*
X171418391Y-101104364D01*
X171444938Y-101057466D01*
X171472563Y-101011456D01*
X171501266Y-100966333D01*
X171531048Y-100922098D01*
X171561907Y-100878749D01*
X171593845Y-100836288D01*
X171626861Y-100794715D01*
X171660954Y-100754028D01*
X171696126Y-100714229D01*
X171732376Y-100675317D01*
X171769824Y-100637388D01*
X171808282Y-100600537D01*
X171847752Y-100564764D01*
X171888234Y-100530069D01*
X171929726Y-100496452D01*
X171972230Y-100463913D01*
X172015746Y-100432453D01*
X172060272Y-100402070D01*
X172105810Y-100372766D01*
X172152360Y-100344540D01*
X172199920Y-100317392D01*
X172248492Y-100291321D01*
X172298075Y-100266330D01*
X172348670Y-100242416D01*
X172400276Y-100219580D01*
X172452893Y-100197822D01*
X172506602Y-100177119D01*
X172561180Y-100157751D01*
X172616626Y-100139719D01*
X172672940Y-100123023D01*
X172730123Y-100107662D01*
X172788173Y-100093637D01*
X172847092Y-100080948D01*
X172906879Y-100069595D01*
X172967534Y-100059577D01*
X173029058Y-100050895D01*
X173091449Y-100043549D01*
X173154709Y-100037538D01*
X173218837Y-100032863D01*
X173283834Y-100029524D01*
X173349698Y-100027520D01*
X173416431Y-100026852D01*
X173488936Y-100027539D01*
G37*
G36*
X176233772Y-104286448D02*
G01*
X176714930Y-104082505D01*
X176758284Y-104058080D01*
X176795531Y-104028771D01*
X176822092Y-103987555D01*
X176830807Y-103937967D01*
X176830946Y-103929853D01*
X176830946Y-100707069D01*
X176824167Y-100657948D01*
X176799819Y-100614977D01*
X176795531Y-100610593D01*
X176755753Y-100579776D01*
X176714930Y-100561744D01*
X176233772Y-100378562D01*
X176233772Y-100105010D01*
X178228015Y-100105010D01*
X179115838Y-102642693D01*
X179268489Y-103183691D01*
X179318559Y-103183691D01*
X180370025Y-100105010D01*
X182336180Y-100105010D01*
X182336180Y-100378562D01*
X181861127Y-100561744D01*
X181816602Y-100582137D01*
X181774432Y-100610989D01*
X181771979Y-100613035D01*
X181742669Y-100652419D01*
X181732938Y-100703206D01*
X181732900Y-100707069D01*
X181732900Y-103949392D01*
X181738946Y-103998524D01*
X181762989Y-104044052D01*
X181769536Y-104050753D01*
X181811363Y-104080978D01*
X181857784Y-104102105D01*
X181861127Y-104103265D01*
X182336180Y-104286448D01*
X182336180Y-104560000D01*
X180113570Y-104560000D01*
X180113570Y-104286448D01*
X180584958Y-104103265D01*
X180631308Y-104080511D01*
X180671876Y-104051507D01*
X180674107Y-104049532D01*
X180701584Y-104007705D01*
X180710600Y-103956581D01*
X180710743Y-103948171D01*
X180710743Y-100853614D01*
X180653346Y-100853614D01*
X180497031Y-101334773D01*
X179606766Y-103870013D01*
X179310011Y-104560000D01*
X178740925Y-104560000D01*
X177614965Y-101335994D01*
X177464756Y-100851172D01*
X177408580Y-100851172D01*
X177408580Y-103929853D01*
X177414425Y-103979372D01*
X177437666Y-104023717D01*
X177443995Y-104029993D01*
X177485679Y-104059674D01*
X177527038Y-104081284D01*
X178003311Y-104286448D01*
X178003311Y-104560000D01*
X176233772Y-104560000D01*
X176233772Y-104286448D01*
G37*
G36*
X185162054Y-100105643D02*
G01*
X185228411Y-100107543D01*
X185293974Y-100110709D01*
X185358742Y-100115142D01*
X185422716Y-100120842D01*
X185485896Y-100127808D01*
X185548282Y-100136040D01*
X185609873Y-100145539D01*
X185670670Y-100156305D01*
X185730673Y-100168337D01*
X185770234Y-100177062D01*
X185828820Y-100191280D01*
X185885968Y-100206915D01*
X185941677Y-100223966D01*
X185995949Y-100242435D01*
X186048782Y-100262320D01*
X186100176Y-100283622D01*
X186150133Y-100306341D01*
X186198651Y-100330477D01*
X186245731Y-100356029D01*
X186291373Y-100382998D01*
X186321002Y-100401765D01*
X186364096Y-100430931D01*
X186405451Y-100461643D01*
X186445068Y-100493900D01*
X186482946Y-100527703D01*
X186519085Y-100563051D01*
X186553485Y-100599945D01*
X186586147Y-100638385D01*
X186617070Y-100678370D01*
X186646254Y-100719901D01*
X186673699Y-100762977D01*
X186691030Y-100792554D01*
X186715473Y-100838303D01*
X186737512Y-100885790D01*
X186757147Y-100935017D01*
X186774377Y-100985982D01*
X186789204Y-101038687D01*
X186801626Y-101093130D01*
X186811643Y-101149312D01*
X186819257Y-101207232D01*
X186824466Y-101266892D01*
X186827271Y-101328290D01*
X186827806Y-101370188D01*
X186826786Y-101436416D01*
X186823727Y-101501378D01*
X186818629Y-101565073D01*
X186811491Y-101627502D01*
X186802314Y-101688664D01*
X186791098Y-101748559D01*
X186777842Y-101807188D01*
X186762547Y-101864551D01*
X186745213Y-101920647D01*
X186725839Y-101975476D01*
X186711790Y-102011325D01*
X186689211Y-102063686D01*
X186664979Y-102114523D01*
X186639093Y-102163835D01*
X186611555Y-102211624D01*
X186582364Y-102257888D01*
X186551520Y-102302628D01*
X186519023Y-102345844D01*
X186484873Y-102387536D01*
X186449070Y-102427703D01*
X186411615Y-102466347D01*
X186385726Y-102491263D01*
X186345895Y-102527334D01*
X186304711Y-102561816D01*
X186262175Y-102594710D01*
X186218286Y-102626016D01*
X186173045Y-102655733D01*
X186126452Y-102683861D01*
X186078506Y-102710401D01*
X186029208Y-102735353D01*
X185978557Y-102758716D01*
X185926554Y-102780490D01*
X185891134Y-102794124D01*
X185837092Y-102812893D01*
X185782127Y-102829816D01*
X185726238Y-102844892D01*
X185669427Y-102858123D01*
X185611692Y-102869507D01*
X185553034Y-102879046D01*
X185493454Y-102886738D01*
X185432950Y-102892584D01*
X185371523Y-102896584D01*
X185309173Y-102898738D01*
X185267094Y-102899148D01*
X185216218Y-102897479D01*
X185166962Y-102893121D01*
X185114423Y-102886058D01*
X185090018Y-102882051D01*
X185040940Y-102872663D01*
X184991405Y-102861596D01*
X184941411Y-102848849D01*
X184890960Y-102834424D01*
X184840508Y-102818624D01*
X184790515Y-102801756D01*
X184740979Y-102783820D01*
X184691902Y-102764815D01*
X184645190Y-102744359D01*
X184596289Y-102720617D01*
X184551252Y-102696102D01*
X184523374Y-102679330D01*
X184523374Y-103943286D01*
X184529421Y-103994402D01*
X184551424Y-104039858D01*
X184560011Y-104049532D01*
X184600921Y-104080062D01*
X184647938Y-104100823D01*
X185158406Y-104286448D01*
X185158406Y-104560000D01*
X182891832Y-104560000D01*
X182891832Y-104286448D01*
X183372990Y-104103265D01*
X183419752Y-104081119D01*
X183458475Y-104049532D01*
X183482297Y-104004848D01*
X183488976Y-103953557D01*
X183489006Y-103949392D01*
X183489006Y-100707069D01*
X183482695Y-100658416D01*
X183458062Y-100615049D01*
X183456033Y-100613035D01*
X184523374Y-100613035D01*
X184523374Y-102310523D01*
X184571002Y-102324262D01*
X184622307Y-102335478D01*
X184625956Y-102336168D01*
X184675785Y-102344106D01*
X184728033Y-102352044D01*
X184752963Y-102355708D01*
X184803338Y-102361432D01*
X184853713Y-102365783D01*
X184887296Y-102367920D01*
X184936984Y-102370152D01*
X184989263Y-102371408D01*
X185016745Y-102371584D01*
X185073030Y-102369952D01*
X185126482Y-102365058D01*
X185177101Y-102356900D01*
X185224885Y-102345480D01*
X185277053Y-102328033D01*
X185284191Y-102325177D01*
X185332718Y-102303648D01*
X185377857Y-102279663D01*
X185419606Y-102253225D01*
X185463169Y-102220004D01*
X185478364Y-102206720D01*
X185516298Y-102169473D01*
X185550721Y-102129783D01*
X185581633Y-102087651D01*
X185609034Y-102043077D01*
X185633763Y-101996518D01*
X185655440Y-101949654D01*
X185674063Y-101902485D01*
X185689634Y-101855010D01*
X185702457Y-101807459D01*
X185713963Y-101755606D01*
X185722378Y-101705492D01*
X185726270Y-101673049D01*
X185731422Y-101621004D01*
X185734886Y-101568714D01*
X185736040Y-101521618D01*
X185735056Y-101466229D01*
X185732104Y-101411495D01*
X185727185Y-101357416D01*
X185720298Y-101303994D01*
X185711443Y-101251228D01*
X185700620Y-101199118D01*
X185695740Y-101178457D01*
X185681685Y-101127921D01*
X185664709Y-101079353D01*
X185644810Y-101032752D01*
X185621990Y-100988120D01*
X185596248Y-100945455D01*
X185567584Y-100904757D01*
X185555300Y-100889030D01*
X185522307Y-100851296D01*
X185485915Y-100815947D01*
X185446124Y-100782984D01*
X185402935Y-100752406D01*
X185356346Y-100724213D01*
X185306359Y-100698406D01*
X185285412Y-100688750D01*
X185230779Y-100666938D01*
X185172211Y-100648822D01*
X185122523Y-100636992D01*
X185070316Y-100627527D01*
X185015590Y-100620429D01*
X184958346Y-100615697D01*
X184898583Y-100613331D01*
X184867757Y-100613035D01*
X184523374Y-100613035D01*
X183456033Y-100613035D01*
X183416174Y-100582137D01*
X183372990Y-100561744D01*
X182891832Y-100378562D01*
X182891832Y-100105010D01*
X185094903Y-100105010D01*
X185162054Y-100105643D01*
G37*
G36*
X187317512Y-104286448D02*
G01*
X187798671Y-104103265D01*
X187844466Y-104080978D01*
X187881713Y-104050753D01*
X187906443Y-104008316D01*
X187914557Y-103957659D01*
X187914686Y-103949392D01*
X187914686Y-100707069D01*
X187907907Y-100657948D01*
X187883560Y-100614977D01*
X187879271Y-100610593D01*
X187839493Y-100579776D01*
X187798671Y-100561744D01*
X187317512Y-100378562D01*
X187317512Y-100105010D01*
X191209522Y-100105010D01*
X191209522Y-101335994D01*
X190793088Y-101335994D01*
X190612348Y-100747369D01*
X190593977Y-100701484D01*
X190564721Y-100663105D01*
X190520286Y-100637613D01*
X190480457Y-100632575D01*
X188949055Y-100632575D01*
X188949055Y-101980795D01*
X189792914Y-101980795D01*
X189842669Y-101975653D01*
X189883284Y-101953928D01*
X189909816Y-101910737D01*
X189927247Y-101861116D01*
X190095775Y-101355533D01*
X190443821Y-101355533D01*
X190443821Y-103114082D01*
X190095775Y-103114082D01*
X189927247Y-102610942D01*
X189909949Y-102564252D01*
X189884505Y-102523014D01*
X189842902Y-102495365D01*
X189792914Y-102488820D01*
X188949055Y-102488820D01*
X188949055Y-104032435D01*
X190721036Y-104032435D01*
X190770753Y-104022389D01*
X190804079Y-104000683D01*
X190836112Y-103961433D01*
X190852928Y-103917641D01*
X191031225Y-103250858D01*
X191446438Y-103250858D01*
X191446438Y-104560000D01*
X187317512Y-104560000D01*
X187317512Y-104286448D01*
G37*
G36*
X192839843Y-104286448D02*
G01*
X193352753Y-104100823D01*
X193398902Y-104080921D01*
X193439049Y-104051307D01*
X193443123Y-104047090D01*
X193467898Y-104001453D01*
X193474844Y-103949894D01*
X193474875Y-103945729D01*
X193474875Y-100613035D01*
X192561406Y-100613035D01*
X192511337Y-100620362D01*
X192473479Y-100642344D01*
X192443769Y-100684204D01*
X192427073Y-100729050D01*
X192245112Y-101394612D01*
X191836005Y-101394612D01*
X191836005Y-100105010D01*
X196150555Y-100105010D01*
X196150555Y-101394612D01*
X195737785Y-101394612D01*
X195559487Y-100729050D01*
X195540579Y-100682897D01*
X195509418Y-100643565D01*
X195467085Y-100618879D01*
X195428817Y-100613035D01*
X194509243Y-100613035D01*
X194509243Y-103945729D01*
X194515289Y-103995263D01*
X194537293Y-104039896D01*
X194545879Y-104049532D01*
X194586180Y-104080062D01*
X194631364Y-104100823D01*
X195146717Y-104286448D01*
X195146717Y-104560000D01*
X192839843Y-104560000D01*
X192839843Y-104286448D01*
G37*
G36*
X197451148Y-104286448D02*
G01*
X197964058Y-104100823D01*
X198010207Y-104080921D01*
X198050354Y-104051307D01*
X198054428Y-104047090D01*
X198079203Y-104001453D01*
X198086149Y-103949894D01*
X198086180Y-103945729D01*
X198086180Y-100613035D01*
X197172711Y-100613035D01*
X197122642Y-100620362D01*
X197084784Y-100642344D01*
X197055074Y-100684204D01*
X197038378Y-100729050D01*
X196856417Y-101394612D01*
X196447310Y-101394612D01*
X196447310Y-100105010D01*
X200761860Y-100105010D01*
X200761860Y-101394612D01*
X200349090Y-101394612D01*
X200170792Y-100729050D01*
X200151884Y-100682897D01*
X200120722Y-100643565D01*
X200078390Y-100618879D01*
X200040122Y-100613035D01*
X199120548Y-100613035D01*
X199120548Y-103945729D01*
X199126594Y-103995263D01*
X199148598Y-104039896D01*
X199157184Y-104049532D01*
X199197484Y-104080062D01*
X199242669Y-104100823D01*
X199758022Y-104286448D01*
X199758022Y-104560000D01*
X197451148Y-104560000D01*
X197451148Y-104286448D01*
G37*
G36*
X201190506Y-104286448D02*
G01*
X201671665Y-104103265D01*
X201717460Y-104080978D01*
X201754707Y-104050753D01*
X201779437Y-104008316D01*
X201787551Y-103957659D01*
X201787680Y-103949392D01*
X201787680Y-100707069D01*
X201780901Y-100657948D01*
X201756553Y-100614977D01*
X201752265Y-100610593D01*
X201712487Y-100579776D01*
X201671665Y-100561744D01*
X201190506Y-100378562D01*
X201190506Y-100105010D01*
X205082516Y-100105010D01*
X205082516Y-101335994D01*
X204666082Y-101335994D01*
X204485342Y-100747369D01*
X204466970Y-100701484D01*
X204437715Y-100663105D01*
X204393280Y-100637613D01*
X204353451Y-100632575D01*
X202822048Y-100632575D01*
X202822048Y-101980795D01*
X203665907Y-101980795D01*
X203715662Y-101975653D01*
X203756277Y-101953928D01*
X203782810Y-101910737D01*
X203800241Y-101861116D01*
X203968769Y-101355533D01*
X204316815Y-101355533D01*
X204316815Y-103114082D01*
X203968769Y-103114082D01*
X203800241Y-102610942D01*
X203782942Y-102564252D01*
X203757498Y-102523014D01*
X203715896Y-102495365D01*
X203665907Y-102488820D01*
X202822048Y-102488820D01*
X202822048Y-104032435D01*
X204594030Y-104032435D01*
X204643747Y-104022389D01*
X204677073Y-104000683D01*
X204709106Y-103961433D01*
X204725921Y-103917641D01*
X204904219Y-103250858D01*
X205319431Y-103250858D01*
X205319431Y-104560000D01*
X201190506Y-104560000D01*
X201190506Y-104286448D01*
G37*
G36*
X208218693Y-100105429D02*
G01*
X208280814Y-100106684D01*
X208341454Y-100108777D01*
X208400612Y-100111708D01*
X208458290Y-100115475D01*
X208514486Y-100120080D01*
X208569201Y-100125521D01*
X208622434Y-100131800D01*
X208674187Y-100138917D01*
X208724458Y-100146870D01*
X208757150Y-100152637D01*
X208805267Y-100161639D01*
X208867387Y-100174576D01*
X208927179Y-100188582D01*
X208984642Y-100203656D01*
X209039778Y-100219799D01*
X209092586Y-100237011D01*
X209143066Y-100255291D01*
X209191218Y-100274639D01*
X209202893Y-100279644D01*
X209248593Y-100300213D01*
X209302874Y-100327106D01*
X209353994Y-100355311D01*
X209401954Y-100384828D01*
X209446754Y-100415656D01*
X209488393Y-100447797D01*
X209511860Y-100467711D01*
X209548741Y-100501771D01*
X209583058Y-100536786D01*
X209620853Y-100580062D01*
X209654957Y-100624713D01*
X209685368Y-100670737D01*
X209703591Y-100702184D01*
X209728649Y-100749697D01*
X209750703Y-100797896D01*
X209769751Y-100846783D01*
X209785794Y-100896357D01*
X209798831Y-100946617D01*
X209802509Y-100963524D01*
X209812054Y-101014400D01*
X209819625Y-101065361D01*
X209825221Y-101116409D01*
X209828841Y-101167543D01*
X209830487Y-101218762D01*
X209830597Y-101235854D01*
X209829318Y-101299606D01*
X209825483Y-101361410D01*
X209819091Y-101421269D01*
X209810142Y-101479181D01*
X209798635Y-101535147D01*
X209784572Y-101589167D01*
X209767952Y-101641240D01*
X209748775Y-101691367D01*
X209727881Y-101739376D01*
X209705499Y-101785706D01*
X209681628Y-101830357D01*
X209656269Y-101873328D01*
X209629421Y-101914620D01*
X209593768Y-101963875D01*
X209555790Y-102010505D01*
X209539948Y-102028422D01*
X209499102Y-102071558D01*
X209456705Y-102112429D01*
X209412758Y-102151033D01*
X209367261Y-102187371D01*
X209320213Y-102221443D01*
X209271615Y-102253250D01*
X209251741Y-102265338D01*
X209202249Y-102294151D01*
X209152995Y-102321056D01*
X209103979Y-102346053D01*
X209055202Y-102369141D01*
X209006664Y-102390322D01*
X208958364Y-102409594D01*
X208939110Y-102416769D01*
X209990576Y-103938401D01*
X210020454Y-103977371D01*
X210038203Y-103999462D01*
X210072260Y-104035876D01*
X210098043Y-104059302D01*
X210138059Y-104090934D01*
X210166431Y-104110593D01*
X210211272Y-104133872D01*
X210237261Y-104142344D01*
X210714756Y-104291332D01*
X210714756Y-104560000D01*
X209568036Y-104560000D01*
X209510362Y-104559141D01*
X209457325Y-104556565D01*
X209401309Y-104551389D01*
X209351604Y-104543876D01*
X209314023Y-104535575D01*
X209263942Y-104519121D01*
X209218110Y-104498610D01*
X209172172Y-104471061D01*
X209155265Y-104458639D01*
X209115481Y-104423720D01*
X209082121Y-104387398D01*
X209051081Y-104346440D01*
X209038029Y-104326748D01*
X209010857Y-104283929D01*
X208980632Y-104237294D01*
X208951680Y-104193357D01*
X208920392Y-104146499D01*
X208911023Y-104132575D01*
X207960918Y-102684214D01*
X207535935Y-102575526D01*
X207535935Y-103946950D01*
X207541579Y-103996872D01*
X207564018Y-104042820D01*
X207570129Y-104049532D01*
X207609208Y-104080062D01*
X207654717Y-104102030D01*
X207658057Y-104103265D01*
X208148985Y-104286448D01*
X208148985Y-104560000D01*
X205904393Y-104560000D01*
X205904393Y-104286448D01*
X206385551Y-104103265D01*
X206431411Y-104079322D01*
X206466152Y-104050753D01*
X206492713Y-104008316D01*
X206501429Y-103957659D01*
X206501567Y-103949392D01*
X206501567Y-100707069D01*
X206494788Y-100657948D01*
X206470440Y-100614977D01*
X206468541Y-100613035D01*
X207535935Y-100613035D01*
X207535935Y-102177411D01*
X207586258Y-102186384D01*
X207620199Y-102190844D01*
X207670230Y-102195805D01*
X207718916Y-102200385D01*
X207748427Y-102203056D01*
X207799374Y-102207292D01*
X207849635Y-102210841D01*
X207882760Y-102212826D01*
X207931705Y-102214407D01*
X207981721Y-102215259D01*
X207986563Y-102215268D01*
X208045579Y-102213539D01*
X208102030Y-102208351D01*
X208155917Y-102199705D01*
X208207241Y-102187600D01*
X208256000Y-102172037D01*
X208302195Y-102153015D01*
X208319955Y-102144438D01*
X208362972Y-102121290D01*
X208411286Y-102090836D01*
X208455994Y-102057462D01*
X208497095Y-102021169D01*
X208534590Y-101981957D01*
X208551986Y-101961256D01*
X208584243Y-101917879D01*
X208613237Y-101872012D01*
X208638968Y-101823654D01*
X208661437Y-101772807D01*
X208680642Y-101719469D01*
X208686319Y-101701137D01*
X208701260Y-101645510D01*
X208713109Y-101589453D01*
X208721868Y-101532967D01*
X208727535Y-101476052D01*
X208730111Y-101418707D01*
X208730283Y-101399497D01*
X208729477Y-101349074D01*
X208725244Y-101276696D01*
X208717384Y-101208224D01*
X208705896Y-101143660D01*
X208690779Y-101083002D01*
X208672035Y-101026252D01*
X208649664Y-100973408D01*
X208623664Y-100924471D01*
X208594036Y-100879441D01*
X208560781Y-100838318D01*
X208523898Y-100801102D01*
X208483547Y-100767492D01*
X208439891Y-100737189D01*
X208392930Y-100710191D01*
X208342662Y-100686499D01*
X208289088Y-100666113D01*
X208232209Y-100649032D01*
X208172023Y-100635258D01*
X208108532Y-100624789D01*
X208041735Y-100617627D01*
X207971632Y-100613770D01*
X207923060Y-100613035D01*
X207535935Y-100613035D01*
X206468541Y-100613035D01*
X206466152Y-100610593D01*
X206426374Y-100579776D01*
X206385551Y-100561744D01*
X205904393Y-100378562D01*
X205904393Y-100105010D01*
X208155091Y-100105010D01*
X208218693Y-100105429D01*
G37*
G36*
X210846647Y-102371584D02*
G01*
X212822572Y-102371584D01*
X212822572Y-103172700D01*
X210846647Y-103172700D01*
X210846647Y-102371584D01*
G37*
G36*
X213140087Y-104286448D02*
G01*
X213528434Y-104147229D01*
X213574852Y-104124935D01*
X213615552Y-104096484D01*
X213638343Y-104076399D01*
X213673435Y-104041254D01*
X213706507Y-104004667D01*
X213734819Y-103970153D01*
X214981678Y-102419211D01*
X213762907Y-100672875D01*
X213732101Y-100632798D01*
X213698298Y-100596877D01*
X213676200Y-100576399D01*
X213637560Y-100545544D01*
X213592046Y-100519531D01*
X213572397Y-100511674D01*
X213196263Y-100378562D01*
X213196263Y-100105010D01*
X215300415Y-100105010D01*
X215300415Y-100378562D01*
X214881539Y-100560523D01*
X215494588Y-101449567D01*
X215688762Y-101811046D01*
X215707080Y-101811046D01*
X216644972Y-100586168D01*
X216244414Y-100378562D01*
X216244414Y-100105010D01*
X217801462Y-100105010D01*
X217801462Y-100378562D01*
X217442425Y-100517780D01*
X217398794Y-100541662D01*
X217357074Y-100573212D01*
X217343507Y-100584947D01*
X217307720Y-100618268D01*
X217271312Y-100655935D01*
X217245810Y-100685087D01*
X216035586Y-102201835D01*
X217286110Y-103986029D01*
X217317537Y-104026787D01*
X217351368Y-104064797D01*
X217375258Y-104088611D01*
X217415553Y-104121680D01*
X217460299Y-104146925D01*
X217476619Y-104153335D01*
X217849090Y-104286448D01*
X217849090Y-104560000D01*
X215754707Y-104560000D01*
X215754707Y-104286448D01*
X216173584Y-104100823D01*
X215526340Y-103166594D01*
X215332167Y-102811221D01*
X215313849Y-102811221D01*
X214328329Y-104078841D01*
X214725224Y-104286448D01*
X214725224Y-104560000D01*
X213140087Y-104560000D01*
X213140087Y-104286448D01*
G37*
D12*
%TO.C,SW17*%
X155185000Y-102555000D02*
X155185000Y-116525000D01*
X141215000Y-116525000D02*
X141215000Y-102555000D01*
X155185000Y-116525000D02*
X141215000Y-116525000D01*
X141215000Y-102555000D02*
X155185000Y-102555000D01*
%TO.C,SW16*%
X135658332Y-102555000D02*
X135658332Y-116525000D01*
X121688332Y-116525000D02*
X121688332Y-102555000D01*
X135658332Y-116525000D02*
X121688332Y-116525000D01*
X121688332Y-102555000D02*
X135658332Y-102555000D01*
%TO.C,SW15*%
X102161666Y-102555000D02*
X116131666Y-102555000D01*
X116131666Y-116525000D02*
X102161666Y-116525000D01*
X102161666Y-116525000D02*
X102161666Y-102555000D01*
X116131666Y-102555000D02*
X116131666Y-116525000D01*
%TO.C,SW14*%
X96605000Y-102555000D02*
X96605000Y-116525000D01*
X82635000Y-116525000D02*
X82635000Y-102555000D01*
X96605000Y-116525000D02*
X82635000Y-116525000D01*
X82635000Y-102555000D02*
X96605000Y-102555000D01*
%TO.C,SW13*%
X155185000Y-82528332D02*
X155185000Y-96498332D01*
X141215000Y-96498332D02*
X141215000Y-82528332D01*
X155185000Y-96498332D02*
X141215000Y-96498332D01*
X141215000Y-82528332D02*
X155185000Y-82528332D01*
%TO.C,SW12*%
X121688332Y-82528332D02*
X135658332Y-82528332D01*
X135658332Y-96498332D02*
X121688332Y-96498332D01*
X121688332Y-96498332D02*
X121688332Y-82528332D01*
X135658332Y-82528332D02*
X135658332Y-96498332D01*
%TO.C,SW11*%
X116131666Y-82528332D02*
X116131666Y-96498332D01*
X102161666Y-96498332D02*
X102161666Y-82528332D01*
X116131666Y-96498332D02*
X102161666Y-96498332D01*
X102161666Y-82528332D02*
X116131666Y-82528332D01*
%TO.C,SW10*%
X82635000Y-82528332D02*
X96605000Y-82528332D01*
X96605000Y-96498332D02*
X82635000Y-96498332D01*
X82635000Y-96498332D02*
X82635000Y-82528332D01*
X96605000Y-82528332D02*
X96605000Y-96498332D01*
%TO.C,SW9*%
X141215000Y-62501666D02*
X155185000Y-62501666D01*
X155185000Y-76471666D02*
X141215000Y-76471666D01*
X141215000Y-76471666D02*
X141215000Y-62501666D01*
X155185000Y-62501666D02*
X155185000Y-76471666D01*
%TO.C,SW8*%
X121688332Y-62501666D02*
X135658332Y-62501666D01*
X135658332Y-76471666D02*
X121688332Y-76471666D01*
X121688332Y-76471666D02*
X121688332Y-62501666D01*
X135658332Y-62501666D02*
X135658332Y-76471666D01*
%TO.C,SW7*%
X102161666Y-62501666D02*
X116131666Y-62501666D01*
X116131666Y-76471666D02*
X102161666Y-76471666D01*
X102161666Y-76471666D02*
X102161666Y-62501666D01*
X116131666Y-62501666D02*
X116131666Y-76471666D01*
%TO.C,SW6*%
X96605000Y-62501666D02*
X96605000Y-76471666D01*
X82635000Y-76471666D02*
X82635000Y-62501666D01*
X96605000Y-76471666D02*
X82635000Y-76471666D01*
X82635000Y-62501666D02*
X96605000Y-62501666D01*
%TO.C,SW5*%
X155185000Y-42475000D02*
X155185000Y-56445000D01*
X141215000Y-56445000D02*
X141215000Y-42475000D01*
X155185000Y-56445000D02*
X141215000Y-56445000D01*
X141215000Y-42475000D02*
X155185000Y-42475000D01*
%TO.C,SW4*%
X135658332Y-42475000D02*
X135658332Y-56445000D01*
X121688332Y-56445000D02*
X121688332Y-42475000D01*
X135658332Y-56445000D02*
X121688332Y-56445000D01*
X121688332Y-42475000D02*
X135658332Y-42475000D01*
%TO.C,SW3*%
X102161666Y-42475000D02*
X116131666Y-42475000D01*
X116131666Y-56445000D02*
X102161666Y-56445000D01*
X102161666Y-56445000D02*
X102161666Y-42475000D01*
X116131666Y-42475000D02*
X116131666Y-56445000D01*
%TO.C,SW2*%
X96605000Y-42475000D02*
X96605000Y-56445000D01*
X82635000Y-56445000D02*
X82635000Y-42475000D01*
X96605000Y-56445000D02*
X82635000Y-56445000D01*
X82635000Y-42475000D02*
X96605000Y-42475000D01*
%TO.C,R8*%
X188122500Y-60537258D02*
X188122500Y-60062742D01*
X187077500Y-60537258D02*
X187077500Y-60062742D01*
%TO.C,R9*%
X186522500Y-60537258D02*
X186522500Y-60062742D01*
X185477500Y-60537258D02*
X185477500Y-60062742D01*
%TO.C,C12*%
X166310000Y-67040580D02*
X166310000Y-66759420D01*
X165290000Y-67040580D02*
X165290000Y-66759420D01*
%TO.C,C1*%
X201390000Y-48159420D02*
X201390000Y-48440580D01*
X202410000Y-48159420D02*
X202410000Y-48440580D01*
%TO.C,D11*%
X156860000Y-61500000D02*
X156860000Y-59500000D01*
X156860000Y-61500000D02*
X152850000Y-61500000D01*
X156860000Y-59500000D02*
X152850000Y-59500000D01*
%TO.C,TP2*%
X222146600Y-54974200D02*
G75*
G03*
X222146600Y-54974200I-1700000J0D01*
G01*
%TO.C,D1*%
X187500000Y-51940000D02*
X185500000Y-51940000D01*
X187500000Y-51940000D02*
X187500000Y-55950000D01*
X185500000Y-51940000D02*
X185500000Y-55950000D01*
%TO.C,SW1*%
X163830000Y-53970000D02*
X162500000Y-53970000D01*
X163830000Y-52640000D02*
X163830000Y-53970000D01*
X163830000Y-51370000D02*
X163830000Y-46230000D01*
X163830000Y-51370000D02*
X161170000Y-51370000D01*
X163830000Y-46230000D02*
X161170000Y-46230000D01*
X161170000Y-51370000D02*
X161170000Y-46230000D01*
%TO.C,TP3*%
X165530000Y-85598000D02*
G75*
G03*
X165530000Y-85598000I-1700000J0D01*
G01*
%TO.C,D9*%
X117360000Y-60500000D02*
X117360000Y-58500000D01*
X117360000Y-60500000D02*
X113350000Y-60500000D01*
X117360000Y-58500000D02*
X113350000Y-58500000D01*
%TO.C,D14*%
X137360000Y-81500000D02*
X137360000Y-79500000D01*
X137360000Y-81500000D02*
X133350000Y-81500000D01*
X137360000Y-79500000D02*
X133350000Y-79500000D01*
%TO.C,D18*%
X137360000Y-101500000D02*
X137360000Y-99500000D01*
X137360000Y-101500000D02*
X133350000Y-101500000D01*
X137360000Y-99500000D02*
X133350000Y-99500000D01*
%TO.C,D19*%
X156860000Y-101000000D02*
X156860000Y-99000000D01*
X156860000Y-101000000D02*
X152850000Y-101000000D01*
X156860000Y-99000000D02*
X152850000Y-99000000D01*
%TO.C,D8*%
X98360000Y-60500000D02*
X98360000Y-58500000D01*
X98360000Y-60500000D02*
X94350000Y-60500000D01*
X98360000Y-58500000D02*
X94350000Y-58500000D01*
%TO.C,C15*%
X164699836Y-58272000D02*
X164484164Y-58272000D01*
X164699836Y-57552000D02*
X164484164Y-57552000D01*
%TO.C,C17*%
X188218000Y-94780164D02*
X188218000Y-94995836D01*
X187498000Y-94780164D02*
X187498000Y-94995836D01*
%TO.C,R13*%
X203556359Y-40980000D02*
X203863641Y-40980000D01*
X203556359Y-40220000D02*
X203863641Y-40220000D01*
%TO.C,Q1*%
X184340000Y-49262500D02*
X184340000Y-50937500D01*
X184340000Y-49262500D02*
X184340000Y-48612500D01*
X187460000Y-49262500D02*
X187460000Y-49912500D01*
X187460000Y-49262500D02*
X187460000Y-48612500D01*
%TO.C,R16*%
X189256000Y-85208641D02*
X189256000Y-84901359D01*
X190016000Y-85208641D02*
X190016000Y-84901359D01*
%TO.C,C4*%
X200035000Y-47638748D02*
X200035000Y-48161252D01*
X198565000Y-47638748D02*
X198565000Y-48161252D01*
%TO.C,TP5*%
X222146600Y-72974200D02*
G75*
G03*
X222146600Y-72974200I-1700000J0D01*
G01*
%TO.C,F1*%
X195203752Y-53170000D02*
X190796248Y-53170000D01*
X195203752Y-47830000D02*
X190796248Y-47830000D01*
%TO.C,U1*%
X203040000Y-48200000D02*
X203040000Y-50000000D01*
X203040000Y-48200000D02*
X203040000Y-47400000D01*
X206160000Y-48200000D02*
X206160000Y-49000000D01*
X206160000Y-48200000D02*
X206160000Y-47400000D01*
%TO.C,C14*%
X183669836Y-60360000D02*
X183454164Y-60360000D01*
X183669836Y-59640000D02*
X183454164Y-59640000D01*
%TO.C,C2*%
X203935000Y-54138748D02*
X203935000Y-54661252D01*
X202465000Y-54138748D02*
X202465000Y-54661252D01*
%TO.C,J3*%
X199710000Y-68647000D02*
X199710000Y-75117000D01*
X199710000Y-68647000D02*
X200352470Y-68647000D01*
X199710000Y-75117000D02*
X200352470Y-75117000D01*
X200967530Y-68647000D02*
X201170000Y-68647000D01*
X200967530Y-75117000D02*
X201622470Y-75117000D01*
X201930000Y-68582000D02*
X202880000Y-68582000D01*
X202237530Y-75117000D02*
X202880000Y-75117000D01*
X202690000Y-69977000D02*
X202880000Y-69977000D01*
X202880000Y-68582000D02*
X202880000Y-69342000D01*
X202880000Y-69977000D02*
X202880000Y-75117000D01*
%TO.C,C3*%
X206135000Y-54138748D02*
X206135000Y-54661252D01*
X204665000Y-54138748D02*
X204665000Y-54661252D01*
%TO.C,R5*%
X208037742Y-50677500D02*
X208512258Y-50677500D01*
X208037742Y-51722500D02*
X208512258Y-51722500D01*
%TO.C,D2*%
X197900000Y-54860000D02*
X199900000Y-54860000D01*
X197900000Y-54860000D02*
X197900000Y-50850000D01*
X199900000Y-54860000D02*
X199900000Y-50850000D01*
%TO.C,U4*%
X187440000Y-90000000D02*
X187440000Y-93450000D01*
X187440000Y-90000000D02*
X187440000Y-88050000D01*
X192560000Y-90000000D02*
X192560000Y-91950000D01*
X192560000Y-90000000D02*
X192560000Y-88050000D01*
%TO.C,C9*%
X171632164Y-55120000D02*
X171847836Y-55120000D01*
X171632164Y-55840000D02*
X171847836Y-55840000D01*
%TO.C,D5*%
X117360000Y-41500000D02*
X117360000Y-39500000D01*
X117360000Y-41500000D02*
X113350000Y-41500000D01*
X117360000Y-39500000D02*
X113350000Y-39500000D01*
%TO.C,D7*%
X156010000Y-42000000D02*
X156010000Y-40000000D01*
X156010000Y-42000000D02*
X152000000Y-42000000D01*
X156010000Y-40000000D02*
X152000000Y-40000000D01*
%TO.C,D4*%
X98010000Y-42000000D02*
X98010000Y-40000000D01*
X98010000Y-42000000D02*
X94000000Y-42000000D01*
X98010000Y-40000000D02*
X94000000Y-40000000D01*
%TO.C,TP4*%
X222146600Y-66974200D02*
G75*
G03*
X222146600Y-66974200I-1700000J0D01*
G01*
%TO.C,C11*%
X166772000Y-66655836D02*
X166772000Y-66440164D01*
X167492000Y-66655836D02*
X167492000Y-66440164D01*
%TO.C,D13*%
X117360000Y-80500000D02*
X117360000Y-78500000D01*
X117360000Y-80500000D02*
X113350000Y-80500000D01*
X117360000Y-78500000D02*
X113350000Y-78500000D01*
%TO.C,D6*%
X137360000Y-41500000D02*
X137360000Y-39500000D01*
X137360000Y-41500000D02*
X133350000Y-41500000D01*
X137360000Y-39500000D02*
X133350000Y-39500000D01*
%TO.C,C6*%
X171875836Y-71334000D02*
X171660164Y-71334000D01*
X171875836Y-70614000D02*
X171660164Y-70614000D01*
%TO.C,J5*%
X174650000Y-40955000D02*
X174650000Y-38955000D01*
X165250000Y-40955000D02*
X165250000Y-38955000D01*
%TO.C,C5*%
X183318000Y-58635836D02*
X183318000Y-58420164D01*
X184038000Y-58635836D02*
X184038000Y-58420164D01*
%TO.C,C13*%
X177095000Y-71462836D02*
X177095000Y-71247164D01*
X177815000Y-71462836D02*
X177815000Y-71247164D01*
%TO.C,D17*%
X117360000Y-100500000D02*
X117360000Y-98500000D01*
X117360000Y-100500000D02*
X113350000Y-100500000D01*
X117360000Y-98500000D02*
X113350000Y-98500000D01*
%TO.C,D16*%
X97860000Y-100500000D02*
X97860000Y-98500000D01*
X97860000Y-100500000D02*
X93850000Y-100500000D01*
X97860000Y-98500000D02*
X93850000Y-98500000D01*
%TO.C,TP1*%
X222146600Y-48974200D02*
G75*
G03*
X222146600Y-48974200I-1700000J0D01*
G01*
%TO.C,C8*%
X182048000Y-58607836D02*
X182048000Y-58392164D01*
X182768000Y-58607836D02*
X182768000Y-58392164D01*
%TO.C,D10*%
X137360000Y-61500000D02*
X137360000Y-59500000D01*
X137360000Y-61500000D02*
X133350000Y-61500000D01*
X137360000Y-59500000D02*
X133350000Y-59500000D01*
%TO.C,C10*%
X168856836Y-58044000D02*
X168641164Y-58044000D01*
X168856836Y-57324000D02*
X168641164Y-57324000D01*
%TO.C,FB1*%
X200285000Y-44560000D02*
X200285000Y-42640000D01*
X200285000Y-42640000D02*
X197600000Y-42640000D01*
X197600000Y-44560000D02*
X200285000Y-44560000D01*
%TO.C,J2*%
X190980000Y-121282000D02*
X190980000Y-119952000D01*
X192310000Y-121282000D02*
X190980000Y-121282000D01*
X193580000Y-121282000D02*
X203800000Y-121282000D01*
X193580000Y-121282000D02*
X193580000Y-118622000D01*
X203800000Y-121282000D02*
X203800000Y-118622000D01*
X193580000Y-118622000D02*
X203800000Y-118622000D01*
%TO.C,C18*%
X190517748Y-94153000D02*
X191040252Y-94153000D01*
X190517748Y-95623000D02*
X191040252Y-95623000D01*
%TO.C,R2*%
X203372936Y-42890000D02*
X204827064Y-42890000D01*
X203372936Y-44710000D02*
X204827064Y-44710000D01*
%TO.C,R14*%
X208080000Y-38887359D02*
X208080000Y-39194641D01*
X207320000Y-38887359D02*
X207320000Y-39194641D01*
%TO.C,C7*%
X179086836Y-71207000D02*
X178871164Y-71207000D01*
X179086836Y-70487000D02*
X178871164Y-70487000D01*
%TO.C,D12*%
X98010000Y-80500000D02*
X98010000Y-78500000D01*
X98010000Y-80500000D02*
X94000000Y-80500000D01*
X98010000Y-78500000D02*
X94000000Y-78500000D01*
%TO.C,U3*%
X171742500Y-46744000D02*
X171742500Y-44944000D01*
X171742500Y-46744000D02*
X171742500Y-47544000D01*
X168622500Y-46744000D02*
X168622500Y-45944000D01*
X168622500Y-46744000D02*
X168622500Y-47544000D01*
%TO.C,U2*%
X169932000Y-57990000D02*
X169932000Y-58940000D01*
X169932000Y-58940000D02*
X168592000Y-58940000D01*
X169932000Y-68210000D02*
X169932000Y-67260000D01*
X170882000Y-57990000D02*
X169932000Y-57990000D01*
X170882000Y-68210000D02*
X169932000Y-68210000D01*
X179202000Y-57990000D02*
X180152000Y-57990000D01*
X179202000Y-68210000D02*
X180152000Y-68210000D01*
X180152000Y-57990000D02*
X180152000Y-58940000D01*
X180152000Y-68210000D02*
X180152000Y-67260000D01*
%TO.C,D3*%
X164248170Y-68772000D02*
X164248170Y-70692000D01*
X164248170Y-70692000D02*
X166933170Y-70692000D01*
X166933170Y-68772000D02*
X164248170Y-68772000D01*
%TO.C,R15*%
X187986000Y-85208641D02*
X187986000Y-84901359D01*
X188746000Y-85208641D02*
X188746000Y-84901359D01*
%TO.C,R12*%
X165861500Y-46526064D02*
X165861500Y-46071936D01*
X167331500Y-46526064D02*
X167331500Y-46071936D01*
%TO.C,R4*%
X207680000Y-43446359D02*
X207680000Y-43753641D01*
X206920000Y-43446359D02*
X206920000Y-43753641D01*
%TO.C,R11*%
X172973500Y-46526064D02*
X172973500Y-46071936D01*
X174443500Y-46526064D02*
X174443500Y-46071936D01*
%TO.C,R1*%
X208535000Y-46260436D02*
X208535000Y-46714564D01*
X207065000Y-46260436D02*
X207065000Y-46714564D01*
%TO.C,R10*%
X166978359Y-61342000D02*
X167285641Y-61342000D01*
X166978359Y-62102000D02*
X167285641Y-62102000D01*
%TO.C,R3*%
X207680000Y-49156359D02*
X207680000Y-49463641D01*
X206920000Y-49156359D02*
X206920000Y-49463641D01*
%TO.C,R6*%
X163900170Y-69578359D02*
X163900170Y-69885641D01*
X163140170Y-69578359D02*
X163140170Y-69885641D01*
%TO.C,R7*%
X171888359Y-53620000D02*
X172195641Y-53620000D01*
X171888359Y-54380000D02*
X172195641Y-54380000D01*
%TO.C,J4*%
X185226000Y-42358000D02*
X185226000Y-43688000D01*
X183896000Y-42358000D02*
X185226000Y-42358000D01*
X182626000Y-42358000D02*
X180026000Y-42358000D01*
X182626000Y-42358000D02*
X182626000Y-45018000D01*
X180026000Y-42358000D02*
X180026000Y-45018000D01*
X182626000Y-45018000D02*
X180026000Y-45018000D01*
%TO.C,C16*%
X164484164Y-62632000D02*
X164699836Y-62632000D01*
X164484164Y-63352000D02*
X164699836Y-63352000D01*
%TO.C,Y1*%
X163068000Y-58636000D02*
X165853000Y-58636000D01*
X163068000Y-58836000D02*
X163068000Y-58636000D01*
X165853000Y-62306000D02*
X163253000Y-62306000D01*
%TO.C,L1*%
X200460000Y-55490000D02*
X200460000Y-58510000D01*
X197940000Y-55490000D02*
X197940000Y-58510000D01*
%TO.C,D15*%
X156860000Y-81500000D02*
X156860000Y-79500000D01*
X156860000Y-81500000D02*
X152850000Y-81500000D01*
X156860000Y-79500000D02*
X152850000Y-79500000D01*
%TD*%
M02*
