%TF.GenerationSoftware,KiCad,Pcbnew,7.0.4-40-g0180cb380f*%
%TF.CreationDate,2023-06-12T22:45:27+02:00*%
%TF.ProjectId,New Business Card,4e657720-4275-4736-996e-657373204361,rev?*%
%TF.SameCoordinates,Original*%
%TF.FileFunction,Paste,Top*%
%TF.FilePolarity,Positive*%
%FSLAX46Y46*%
G04 Gerber Fmt 4.6, Leading zero omitted, Abs format (unit mm)*
G04 Created by KiCad (PCBNEW 7.0.4-40-g0180cb380f) date 2023-06-12 22:45:27*
%MOMM*%
%LPD*%
G01*
G04 APERTURE LIST*
G04 Aperture macros list*
%AMRoundRect*
0 Rectangle with rounded corners*
0 $1 Rounding radius*
0 $2 $3 $4 $5 $6 $7 $8 $9 X,Y pos of 4 corners*
0 Add a 4 corners polygon primitive as box body*
4,1,4,$2,$3,$4,$5,$6,$7,$8,$9,$2,$3,0*
0 Add four circle primitives for the rounded corners*
1,1,$1+$1,$2,$3*
1,1,$1+$1,$4,$5*
1,1,$1+$1,$6,$7*
1,1,$1+$1,$8,$9*
0 Add four rect primitives between the rounded corners*
20,1,$1+$1,$2,$3,$4,$5,0*
20,1,$1+$1,$4,$5,$6,$7,0*
20,1,$1+$1,$6,$7,$8,$9,0*
20,1,$1+$1,$8,$9,$2,$3,0*%
G04 Aperture macros list end*
%ADD10RoundRect,0.200000X0.275000X-0.200000X0.275000X0.200000X-0.275000X0.200000X-0.275000X-0.200000X0*%
%ADD11RoundRect,0.147500X-0.172500X0.147500X-0.172500X-0.147500X0.172500X-0.147500X0.172500X0.147500X0*%
%ADD12RoundRect,0.225000X0.250000X-0.225000X0.250000X0.225000X-0.250000X0.225000X-0.250000X-0.225000X0*%
%ADD13RoundRect,0.225000X-0.250000X0.225000X-0.250000X-0.225000X0.250000X-0.225000X0.250000X0.225000X0*%
%ADD14RoundRect,0.225000X0.225000X0.375000X-0.225000X0.375000X-0.225000X-0.375000X0.225000X-0.375000X0*%
%ADD15RoundRect,0.225000X-0.375000X0.225000X-0.375000X-0.225000X0.375000X-0.225000X0.375000X0.225000X0*%
%ADD16RoundRect,0.140000X0.140000X0.170000X-0.140000X0.170000X-0.140000X-0.170000X0.140000X-0.170000X0*%
%ADD17RoundRect,0.140000X-0.170000X0.140000X-0.170000X-0.140000X0.170000X-0.140000X0.170000X0.140000X0*%
%ADD18RoundRect,0.135000X-0.135000X-0.185000X0.135000X-0.185000X0.135000X0.185000X-0.135000X0.185000X0*%
%ADD19RoundRect,0.150000X0.150000X-0.587500X0.150000X0.587500X-0.150000X0.587500X-0.150000X-0.587500X0*%
%ADD20RoundRect,0.135000X0.185000X-0.135000X0.185000X0.135000X-0.185000X0.135000X-0.185000X-0.135000X0*%
%ADD21RoundRect,0.250000X-0.475000X0.250000X-0.475000X-0.250000X0.475000X-0.250000X0.475000X0.250000X0*%
%ADD22RoundRect,0.250000X0.712500X2.475000X-0.712500X2.475000X-0.712500X-2.475000X0.712500X-2.475000X0*%
%ADD23RoundRect,0.150000X0.150000X-0.512500X0.150000X0.512500X-0.150000X0.512500X-0.150000X-0.512500X0*%
%ADD24RoundRect,0.200000X-0.200000X-0.275000X0.200000X-0.275000X0.200000X0.275000X-0.200000X0.275000X0*%
%ADD25RoundRect,0.225000X0.375000X-0.225000X0.375000X0.225000X-0.375000X0.225000X-0.375000X-0.225000X0*%
%ADD26RoundRect,0.150000X0.150000X-0.825000X0.150000X0.825000X-0.150000X0.825000X-0.150000X-0.825000X0*%
%ADD27RoundRect,0.140000X-0.140000X-0.170000X0.140000X-0.170000X0.140000X0.170000X-0.140000X0.170000X0*%
%ADD28RoundRect,0.140000X0.170000X-0.140000X0.170000X0.140000X-0.170000X0.140000X-0.170000X-0.140000X0*%
%ADD29R,0.600000X1.450000*%
%ADD30R,0.300000X1.450000*%
%ADD31RoundRect,0.243750X0.243750X0.456250X-0.243750X0.456250X-0.243750X-0.456250X0.243750X-0.456250X0*%
%ADD32RoundRect,0.250000X-0.250000X-0.475000X0.250000X-0.475000X0.250000X0.475000X-0.250000X0.475000X0*%
%ADD33RoundRect,0.250000X-0.312500X-0.625000X0.312500X-0.625000X0.312500X0.625000X-0.312500X0.625000X0*%
%ADD34RoundRect,0.135000X-0.185000X0.135000X-0.185000X-0.135000X0.185000X-0.135000X0.185000X0.135000X0*%
%ADD35RoundRect,0.150000X-0.150000X0.512500X-0.150000X-0.512500X0.150000X-0.512500X0.150000X0.512500X0*%
%ADD36RoundRect,0.075000X-0.700000X-0.075000X0.700000X-0.075000X0.700000X0.075000X-0.700000X0.075000X0*%
%ADD37RoundRect,0.075000X-0.075000X-0.700000X0.075000X-0.700000X0.075000X0.700000X-0.075000X0.700000X0*%
%ADD38RoundRect,0.243750X-0.243750X-0.456250X0.243750X-0.456250X0.243750X0.456250X-0.243750X0.456250X0*%
%ADD39RoundRect,0.250000X0.450000X-0.262500X0.450000X0.262500X-0.450000X0.262500X-0.450000X-0.262500X0*%
%ADD40RoundRect,0.250000X-0.450000X0.262500X-0.450000X-0.262500X0.450000X-0.262500X0.450000X0.262500X0*%
%ADD41R,0.900000X1.000000*%
%ADD42R,2.000000X0.850000*%
G04 APERTURE END LIST*
D10*
%TO.C,R8*%
X187600000Y-61125000D03*
X187600000Y-59475000D03*
%TD*%
%TO.C,R9*%
X186000000Y-61125000D03*
X186000000Y-59475000D03*
%TD*%
D11*
%TO.C,L2*%
X164500000Y-66040000D03*
X164500000Y-67010000D03*
%TD*%
D12*
%TO.C,C12*%
X165800000Y-67675000D03*
X165800000Y-66125000D03*
%TD*%
D13*
%TO.C,C1*%
X201900000Y-47525000D03*
X201900000Y-49075000D03*
%TD*%
D14*
%TO.C,D11*%
X156150000Y-60500000D03*
X152850000Y-60500000D03*
%TD*%
D15*
%TO.C,D1*%
X186500000Y-52650000D03*
X186500000Y-55950000D03*
%TD*%
D14*
%TO.C,D9*%
X116650000Y-59500000D03*
X113350000Y-59500000D03*
%TD*%
%TO.C,D14*%
X136650000Y-80500000D03*
X133350000Y-80500000D03*
%TD*%
%TO.C,D18*%
X136650000Y-100500000D03*
X133350000Y-100500000D03*
%TD*%
%TO.C,D19*%
X156150000Y-100000000D03*
X152850000Y-100000000D03*
%TD*%
%TO.C,D8*%
X97650000Y-59500000D03*
X94350000Y-59500000D03*
%TD*%
D16*
%TO.C,C15*%
X165072000Y-57912000D03*
X164112000Y-57912000D03*
%TD*%
D17*
%TO.C,C17*%
X187858000Y-94408000D03*
X187858000Y-95368000D03*
%TD*%
D18*
%TO.C,R13*%
X204220000Y-40600000D03*
X203200000Y-40600000D03*
%TD*%
D19*
%TO.C,Q1*%
X184950000Y-50200000D03*
X186850000Y-50200000D03*
X185900000Y-48325000D03*
%TD*%
D20*
%TO.C,R16*%
X189636000Y-85565000D03*
X189636000Y-84545000D03*
%TD*%
D21*
%TO.C,C4*%
X199300000Y-46950000D03*
X199300000Y-48850000D03*
%TD*%
D22*
%TO.C,F1*%
X196387500Y-50500000D03*
X189612500Y-50500000D03*
%TD*%
D23*
%TO.C,U1*%
X203650000Y-49337500D03*
X204600000Y-49337500D03*
X205550000Y-49337500D03*
X205550000Y-47062500D03*
X204600000Y-47062500D03*
X203650000Y-47062500D03*
%TD*%
D16*
%TO.C,C14*%
X184042000Y-60000000D03*
X183082000Y-60000000D03*
%TD*%
D21*
%TO.C,C2*%
X203200000Y-53450000D03*
X203200000Y-55350000D03*
%TD*%
%TO.C,C3*%
X205400000Y-53450000D03*
X205400000Y-55350000D03*
%TD*%
D24*
%TO.C,R5*%
X207450000Y-51200000D03*
X209100000Y-51200000D03*
%TD*%
D25*
%TO.C,D2*%
X198900000Y-54150000D03*
X198900000Y-50850000D03*
%TD*%
D26*
%TO.C,U4*%
X188095000Y-92475000D03*
X189365000Y-92475000D03*
X190635000Y-92475000D03*
X191905000Y-92475000D03*
X191905000Y-87525000D03*
X190635000Y-87525000D03*
X189365000Y-87525000D03*
X188095000Y-87525000D03*
%TD*%
D27*
%TO.C,C9*%
X171260000Y-55480000D03*
X172220000Y-55480000D03*
%TD*%
D14*
%TO.C,D5*%
X116650000Y-40500000D03*
X113350000Y-40500000D03*
%TD*%
%TO.C,D7*%
X155300000Y-41000000D03*
X152000000Y-41000000D03*
%TD*%
%TO.C,D4*%
X97300000Y-41000000D03*
X94000000Y-41000000D03*
%TD*%
D28*
%TO.C,C11*%
X167132000Y-67028000D03*
X167132000Y-66068000D03*
%TD*%
D14*
%TO.C,D13*%
X116650000Y-79500000D03*
X113350000Y-79500000D03*
%TD*%
%TO.C,D6*%
X136650000Y-40500000D03*
X133350000Y-40500000D03*
%TD*%
D16*
%TO.C,C6*%
X172248000Y-70974000D03*
X171288000Y-70974000D03*
%TD*%
D29*
%TO.C,J5*%
X173200000Y-43100000D03*
X172400000Y-43100000D03*
D30*
X171200000Y-43100000D03*
X170200000Y-43100000D03*
X169700000Y-43100000D03*
X168700000Y-43100000D03*
D29*
X167500000Y-43100000D03*
X166700000Y-43100000D03*
X166700000Y-43100000D03*
X167500000Y-43100000D03*
D30*
X168200000Y-43100000D03*
X169200000Y-43100000D03*
X170700000Y-43100000D03*
X171700000Y-43100000D03*
D29*
X172400000Y-43100000D03*
X173200000Y-43100000D03*
%TD*%
D28*
%TO.C,C5*%
X183678000Y-59008000D03*
X183678000Y-58048000D03*
%TD*%
%TO.C,C13*%
X177455000Y-71835000D03*
X177455000Y-70875000D03*
%TD*%
D14*
%TO.C,D17*%
X116650000Y-99500000D03*
X113350000Y-99500000D03*
%TD*%
%TO.C,D16*%
X97150000Y-99500000D03*
X93850000Y-99500000D03*
%TD*%
D28*
%TO.C,C8*%
X182408000Y-58980000D03*
X182408000Y-58020000D03*
%TD*%
D14*
%TO.C,D10*%
X136650000Y-60500000D03*
X133350000Y-60500000D03*
%TD*%
D16*
%TO.C,C10*%
X169229000Y-57684000D03*
X168269000Y-57684000D03*
%TD*%
D31*
%TO.C,FB1*%
X199537500Y-43600000D03*
X197662500Y-43600000D03*
%TD*%
D32*
%TO.C,C18*%
X189829000Y-94888000D03*
X191729000Y-94888000D03*
%TD*%
D33*
%TO.C,R2*%
X202637500Y-43800000D03*
X205562500Y-43800000D03*
%TD*%
D34*
%TO.C,R14*%
X207700000Y-38531000D03*
X207700000Y-39551000D03*
%TD*%
D16*
%TO.C,C7*%
X179459000Y-70847000D03*
X178499000Y-70847000D03*
%TD*%
D14*
%TO.C,D12*%
X97300000Y-79500000D03*
X94000000Y-79500000D03*
%TD*%
D35*
%TO.C,U3*%
X171132500Y-45606500D03*
X170182500Y-45606500D03*
X169232500Y-45606500D03*
X169232500Y-47881500D03*
X170182500Y-47881500D03*
X171132500Y-47881500D03*
%TD*%
D36*
%TO.C,U2*%
X169367000Y-59350000D03*
X169367000Y-59850000D03*
X169367000Y-60350000D03*
X169367000Y-60850000D03*
X169367000Y-61350000D03*
X169367000Y-61850000D03*
X169367000Y-62350000D03*
X169367000Y-62850000D03*
X169367000Y-63350000D03*
X169367000Y-63850000D03*
X169367000Y-64350000D03*
X169367000Y-64850000D03*
X169367000Y-65350000D03*
X169367000Y-65850000D03*
X169367000Y-66350000D03*
X169367000Y-66850000D03*
D37*
X171292000Y-68775000D03*
X171792000Y-68775000D03*
X172292000Y-68775000D03*
X172792000Y-68775000D03*
X173292000Y-68775000D03*
X173792000Y-68775000D03*
X174292000Y-68775000D03*
X174792000Y-68775000D03*
X175292000Y-68775000D03*
X175792000Y-68775000D03*
X176292000Y-68775000D03*
X176792000Y-68775000D03*
X177292000Y-68775000D03*
X177792000Y-68775000D03*
X178292000Y-68775000D03*
X178792000Y-68775000D03*
D36*
X180717000Y-66850000D03*
X180717000Y-66350000D03*
X180717000Y-65850000D03*
X180717000Y-65350000D03*
X180717000Y-64850000D03*
X180717000Y-64350000D03*
X180717000Y-63850000D03*
X180717000Y-63350000D03*
X180717000Y-62850000D03*
X180717000Y-62350000D03*
X180717000Y-61850000D03*
X180717000Y-61350000D03*
X180717000Y-60850000D03*
X180717000Y-60350000D03*
X180717000Y-59850000D03*
X180717000Y-59350000D03*
D37*
X178792000Y-57425000D03*
X178292000Y-57425000D03*
X177792000Y-57425000D03*
X177292000Y-57425000D03*
X176792000Y-57425000D03*
X176292000Y-57425000D03*
X175792000Y-57425000D03*
X175292000Y-57425000D03*
X174792000Y-57425000D03*
X174292000Y-57425000D03*
X173792000Y-57425000D03*
X173292000Y-57425000D03*
X172792000Y-57425000D03*
X172292000Y-57425000D03*
X171792000Y-57425000D03*
X171292000Y-57425000D03*
%TD*%
D38*
%TO.C,D3*%
X164995670Y-69732000D03*
X166870670Y-69732000D03*
%TD*%
D20*
%TO.C,R15*%
X188366000Y-85565000D03*
X188366000Y-84545000D03*
%TD*%
D39*
%TO.C,R12*%
X166596500Y-47211500D03*
X166596500Y-45386500D03*
%TD*%
D34*
%TO.C,R4*%
X207300000Y-43090000D03*
X207300000Y-44110000D03*
%TD*%
D39*
%TO.C,R11*%
X173708500Y-47211500D03*
X173708500Y-45386500D03*
%TD*%
D40*
%TO.C,R1*%
X207800000Y-45575000D03*
X207800000Y-47400000D03*
%TD*%
D18*
%TO.C,R10*%
X166622000Y-61722000D03*
X167642000Y-61722000D03*
%TD*%
D34*
%TO.C,R3*%
X207300000Y-48800000D03*
X207300000Y-49820000D03*
%TD*%
%TO.C,R6*%
X163520170Y-69222000D03*
X163520170Y-70242000D03*
%TD*%
D18*
%TO.C,R7*%
X171532000Y-54000000D03*
X172552000Y-54000000D03*
%TD*%
D27*
%TO.C,C16*%
X164112000Y-62992000D03*
X165072000Y-62992000D03*
%TD*%
D41*
%TO.C,Y1*%
X163778000Y-59396000D03*
X163778000Y-61546000D03*
X165328000Y-61546000D03*
X165328000Y-59396000D03*
%TD*%
D42*
%TO.C,L1*%
X199200000Y-56175000D03*
X199200000Y-57825000D03*
%TD*%
D14*
%TO.C,D15*%
X156150000Y-80500000D03*
X152850000Y-80500000D03*
%TD*%
M02*
