%TF.GenerationSoftware,KiCad,Pcbnew,7.0.4-40-g0180cb380f*%
%TF.CreationDate,2023-06-12T22:45:27+02:00*%
%TF.ProjectId,New Business Card,4e657720-4275-4736-996e-657373204361,rev?*%
%TF.SameCoordinates,Original*%
%TF.FileFunction,Soldermask,Bot*%
%TF.FilePolarity,Negative*%
%FSLAX46Y46*%
G04 Gerber Fmt 4.6, Leading zero omitted, Abs format (unit mm)*
G04 Created by KiCad (PCBNEW 7.0.4-40-g0180cb380f) date 2023-06-12 22:45:27*
%MOMM*%
%LPD*%
G01*
G04 APERTURE LIST*
%ADD10C,4.000000*%
%ADD11C,1.700000*%
%ADD12C,2.200000*%
%ADD13C,1.524000*%
%ADD14C,3.500000*%
%ADD15R,1.524000X1.524000*%
%ADD16C,3.000000*%
%ADD17R,1.700000X1.700000*%
%ADD18O,1.700000X1.700000*%
%ADD19C,5.600000*%
%ADD20R,1.000000X1.000000*%
%ADD21O,1.000000X1.000000*%
%ADD22C,0.650000*%
%ADD23O,1.000000X2.100000*%
%ADD24O,1.000000X1.600000*%
G04 APERTURE END LIST*
D10*
%TO.C,SW17*%
X148200000Y-109540000D03*
D11*
X143120000Y-109540000D03*
X153280000Y-109540000D03*
D12*
X150740000Y-104460000D03*
X144390000Y-107000000D03*
%TD*%
D10*
%TO.C,SW16*%
X128673332Y-109540000D03*
D11*
X123593332Y-109540000D03*
X133753332Y-109540000D03*
D12*
X131213332Y-104460000D03*
X124863332Y-107000000D03*
%TD*%
%TO.C,SW15*%
X105336666Y-107000000D03*
X111686666Y-104460000D03*
D11*
X114226666Y-109540000D03*
X104066666Y-109540000D03*
D10*
X109146666Y-109540000D03*
%TD*%
%TO.C,SW14*%
X89620000Y-109540000D03*
D11*
X84540000Y-109540000D03*
X94700000Y-109540000D03*
D12*
X92160000Y-104460000D03*
X85810000Y-107000000D03*
%TD*%
D10*
%TO.C,SW13*%
X148200000Y-89513332D03*
D11*
X143120000Y-89513332D03*
X153280000Y-89513332D03*
D12*
X150740000Y-84433332D03*
X144390000Y-86973332D03*
%TD*%
%TO.C,SW12*%
X124863332Y-86973332D03*
X131213332Y-84433332D03*
D11*
X133753332Y-89513332D03*
X123593332Y-89513332D03*
D10*
X128673332Y-89513332D03*
%TD*%
%TO.C,SW11*%
X109146666Y-89513332D03*
D11*
X104066666Y-89513332D03*
X114226666Y-89513332D03*
D12*
X111686666Y-84433332D03*
X105336666Y-86973332D03*
%TD*%
%TO.C,SW10*%
X85810000Y-86973332D03*
X92160000Y-84433332D03*
D11*
X94700000Y-89513332D03*
X84540000Y-89513332D03*
D10*
X89620000Y-89513332D03*
%TD*%
D12*
%TO.C,SW9*%
X144390000Y-66946666D03*
X150740000Y-64406666D03*
D11*
X153280000Y-69486666D03*
X143120000Y-69486666D03*
D10*
X148200000Y-69486666D03*
%TD*%
D12*
%TO.C,SW8*%
X124863332Y-66946666D03*
X131213332Y-64406666D03*
D11*
X133753332Y-69486666D03*
X123593332Y-69486666D03*
D10*
X128673332Y-69486666D03*
%TD*%
D12*
%TO.C,SW7*%
X105336666Y-66946666D03*
X111686666Y-64406666D03*
D11*
X114226666Y-69486666D03*
X104066666Y-69486666D03*
D10*
X109146666Y-69486666D03*
%TD*%
%TO.C,SW6*%
X89620000Y-69486666D03*
D11*
X84540000Y-69486666D03*
X94700000Y-69486666D03*
D12*
X92160000Y-64406666D03*
X85810000Y-66946666D03*
%TD*%
D10*
%TO.C,SW5*%
X148200000Y-49460000D03*
D11*
X143120000Y-49460000D03*
X153280000Y-49460000D03*
D12*
X150740000Y-44380000D03*
X144390000Y-46920000D03*
%TD*%
D10*
%TO.C,SW4*%
X128673332Y-49460000D03*
D11*
X123593332Y-49460000D03*
X133753332Y-49460000D03*
D12*
X131213332Y-44380000D03*
X124863332Y-46920000D03*
%TD*%
%TO.C,SW3*%
X105336666Y-46920000D03*
X111686666Y-44380000D03*
D11*
X114226666Y-49460000D03*
X104066666Y-49460000D03*
D10*
X109146666Y-49460000D03*
%TD*%
%TO.C,SW2*%
X89620000Y-49460000D03*
D11*
X84540000Y-49460000D03*
X94700000Y-49460000D03*
D12*
X92160000Y-44380000D03*
X85810000Y-46920000D03*
%TD*%
D13*
%TO.C,J1*%
X205760000Y-38500000D03*
X203220000Y-38500000D03*
X200680000Y-38500000D03*
D14*
X212600000Y-62700000D03*
X212600000Y-39200000D03*
D15*
X198140000Y-38500000D03*
D14*
X191300000Y-62800000D03*
X191300000Y-39300000D03*
%TD*%
D16*
%TO.C,TP2*%
X220446600Y-54974200D03*
%TD*%
D17*
%TO.C,SW1*%
X162500000Y-52640000D03*
D18*
X162500000Y-50100000D03*
X162500000Y-47560000D03*
%TD*%
D16*
%TO.C,TP3*%
X163830000Y-85598000D03*
%TD*%
D19*
%TO.C,H2*%
X80000000Y-120000000D03*
%TD*%
D16*
%TO.C,TP5*%
X220446600Y-72974200D03*
%TD*%
D19*
%TO.C,H5*%
X220000000Y-40000000D03*
%TD*%
D20*
%TO.C,J3*%
X201930000Y-69342000D03*
D21*
X200660000Y-69342000D03*
X201930000Y-70612000D03*
X200660000Y-70612000D03*
X201930000Y-71882000D03*
X200660000Y-71882000D03*
X201930000Y-73152000D03*
X200660000Y-73152000D03*
X201930000Y-74422000D03*
X200660000Y-74422000D03*
%TD*%
D19*
%TO.C,H6*%
X220000000Y-120000000D03*
%TD*%
D16*
%TO.C,TP4*%
X220446600Y-66974200D03*
%TD*%
D22*
%TO.C,J5*%
X172840000Y-41655000D03*
X167060000Y-41655000D03*
D23*
X174270000Y-42185000D03*
D24*
X174270000Y-38005000D03*
D23*
X165630000Y-42185000D03*
D24*
X165630000Y-38005000D03*
%TD*%
D16*
%TO.C,TP1*%
X220446600Y-48974200D03*
%TD*%
D17*
%TO.C,J2*%
X192310000Y-119952000D03*
D18*
X194850000Y-119952000D03*
X197390000Y-119952000D03*
X199930000Y-119952000D03*
X202470000Y-119952000D03*
%TD*%
D19*
%TO.C,H4*%
X160000000Y-40000000D03*
%TD*%
%TO.C,H3*%
X80000000Y-40000000D03*
%TD*%
D17*
%TO.C,J4*%
X183896000Y-43688000D03*
D18*
X181356000Y-43688000D03*
%TD*%
D19*
%TO.C,H1*%
X160000000Y-120000000D03*
%TD*%
M02*
