%TF.GenerationSoftware,KiCad,Pcbnew,7.0.4-40-g0180cb380f*%
%TF.CreationDate,2023-06-12T22:45:27+02:00*%
%TF.ProjectId,New Business Card,4e657720-4275-4736-996e-657373204361,rev?*%
%TF.SameCoordinates,Original*%
%TF.FileFunction,Copper,L1,Top*%
%TF.FilePolarity,Positive*%
%FSLAX46Y46*%
G04 Gerber Fmt 4.6, Leading zero omitted, Abs format (unit mm)*
G04 Created by KiCad (PCBNEW 7.0.4-40-g0180cb380f) date 2023-06-12 22:45:27*
%MOMM*%
%LPD*%
G01*
G04 APERTURE LIST*
G04 Aperture macros list*
%AMRoundRect*
0 Rectangle with rounded corners*
0 $1 Rounding radius*
0 $2 $3 $4 $5 $6 $7 $8 $9 X,Y pos of 4 corners*
0 Add a 4 corners polygon primitive as box body*
4,1,4,$2,$3,$4,$5,$6,$7,$8,$9,$2,$3,0*
0 Add four circle primitives for the rounded corners*
1,1,$1+$1,$2,$3*
1,1,$1+$1,$4,$5*
1,1,$1+$1,$6,$7*
1,1,$1+$1,$8,$9*
0 Add four rect primitives between the rounded corners*
20,1,$1+$1,$2,$3,$4,$5,0*
20,1,$1+$1,$4,$5,$6,$7,0*
20,1,$1+$1,$6,$7,$8,$9,0*
20,1,$1+$1,$8,$9,$2,$3,0*%
G04 Aperture macros list end*
%TA.AperFunction,ComponentPad*%
%ADD10C,2.200000*%
%TD*%
%TA.AperFunction,ComponentPad*%
%ADD11C,1.524000*%
%TD*%
%TA.AperFunction,CastellatedPad*%
%ADD12C,3.500000*%
%TD*%
%TA.AperFunction,ComponentPad*%
%ADD13R,1.524000X1.524000*%
%TD*%
%TA.AperFunction,SMDPad,CuDef*%
%ADD14RoundRect,0.200000X0.275000X-0.200000X0.275000X0.200000X-0.275000X0.200000X-0.275000X-0.200000X0*%
%TD*%
%TA.AperFunction,SMDPad,CuDef*%
%ADD15RoundRect,0.147500X-0.172500X0.147500X-0.172500X-0.147500X0.172500X-0.147500X0.172500X0.147500X0*%
%TD*%
%TA.AperFunction,SMDPad,CuDef*%
%ADD16RoundRect,0.225000X0.250000X-0.225000X0.250000X0.225000X-0.250000X0.225000X-0.250000X-0.225000X0*%
%TD*%
%TA.AperFunction,SMDPad,CuDef*%
%ADD17RoundRect,0.225000X-0.250000X0.225000X-0.250000X-0.225000X0.250000X-0.225000X0.250000X0.225000X0*%
%TD*%
%TA.AperFunction,SMDPad,CuDef*%
%ADD18RoundRect,0.225000X0.225000X0.375000X-0.225000X0.375000X-0.225000X-0.375000X0.225000X-0.375000X0*%
%TD*%
%TA.AperFunction,ComponentPad*%
%ADD19C,3.000000*%
%TD*%
%TA.AperFunction,SMDPad,CuDef*%
%ADD20RoundRect,0.225000X-0.375000X0.225000X-0.375000X-0.225000X0.375000X-0.225000X0.375000X0.225000X0*%
%TD*%
%TA.AperFunction,ComponentPad*%
%ADD21R,1.700000X1.700000*%
%TD*%
%TA.AperFunction,ComponentPad*%
%ADD22O,1.700000X1.700000*%
%TD*%
%TA.AperFunction,ComponentPad*%
%ADD23C,5.600000*%
%TD*%
%TA.AperFunction,SMDPad,CuDef*%
%ADD24RoundRect,0.140000X0.140000X0.170000X-0.140000X0.170000X-0.140000X-0.170000X0.140000X-0.170000X0*%
%TD*%
%TA.AperFunction,SMDPad,CuDef*%
%ADD25RoundRect,0.140000X-0.170000X0.140000X-0.170000X-0.140000X0.170000X-0.140000X0.170000X0.140000X0*%
%TD*%
%TA.AperFunction,SMDPad,CuDef*%
%ADD26RoundRect,0.135000X-0.135000X-0.185000X0.135000X-0.185000X0.135000X0.185000X-0.135000X0.185000X0*%
%TD*%
%TA.AperFunction,SMDPad,CuDef*%
%ADD27RoundRect,0.150000X0.150000X-0.587500X0.150000X0.587500X-0.150000X0.587500X-0.150000X-0.587500X0*%
%TD*%
%TA.AperFunction,SMDPad,CuDef*%
%ADD28RoundRect,0.135000X0.185000X-0.135000X0.185000X0.135000X-0.185000X0.135000X-0.185000X-0.135000X0*%
%TD*%
%TA.AperFunction,SMDPad,CuDef*%
%ADD29RoundRect,0.250000X-0.475000X0.250000X-0.475000X-0.250000X0.475000X-0.250000X0.475000X0.250000X0*%
%TD*%
%TA.AperFunction,SMDPad,CuDef*%
%ADD30RoundRect,0.250000X0.712500X2.475000X-0.712500X2.475000X-0.712500X-2.475000X0.712500X-2.475000X0*%
%TD*%
%TA.AperFunction,SMDPad,CuDef*%
%ADD31RoundRect,0.150000X0.150000X-0.512500X0.150000X0.512500X-0.150000X0.512500X-0.150000X-0.512500X0*%
%TD*%
%TA.AperFunction,ComponentPad*%
%ADD32R,1.000000X1.000000*%
%TD*%
%TA.AperFunction,ComponentPad*%
%ADD33O,1.000000X1.000000*%
%TD*%
%TA.AperFunction,SMDPad,CuDef*%
%ADD34RoundRect,0.200000X-0.200000X-0.275000X0.200000X-0.275000X0.200000X0.275000X-0.200000X0.275000X0*%
%TD*%
%TA.AperFunction,SMDPad,CuDef*%
%ADD35RoundRect,0.225000X0.375000X-0.225000X0.375000X0.225000X-0.375000X0.225000X-0.375000X-0.225000X0*%
%TD*%
%TA.AperFunction,SMDPad,CuDef*%
%ADD36RoundRect,0.150000X0.150000X-0.825000X0.150000X0.825000X-0.150000X0.825000X-0.150000X-0.825000X0*%
%TD*%
%TA.AperFunction,SMDPad,CuDef*%
%ADD37RoundRect,0.140000X-0.140000X-0.170000X0.140000X-0.170000X0.140000X0.170000X-0.140000X0.170000X0*%
%TD*%
%TA.AperFunction,SMDPad,CuDef*%
%ADD38RoundRect,0.140000X0.170000X-0.140000X0.170000X0.140000X-0.170000X0.140000X-0.170000X-0.140000X0*%
%TD*%
%TA.AperFunction,SMDPad,CuDef*%
%ADD39R,0.600000X1.450000*%
%TD*%
%TA.AperFunction,SMDPad,CuDef*%
%ADD40R,0.300000X1.450000*%
%TD*%
%TA.AperFunction,ComponentPad*%
%ADD41O,1.000000X2.100000*%
%TD*%
%TA.AperFunction,ComponentPad*%
%ADD42O,1.000000X1.600000*%
%TD*%
%TA.AperFunction,SMDPad,CuDef*%
%ADD43RoundRect,0.243750X0.243750X0.456250X-0.243750X0.456250X-0.243750X-0.456250X0.243750X-0.456250X0*%
%TD*%
%TA.AperFunction,SMDPad,CuDef*%
%ADD44RoundRect,0.250000X-0.250000X-0.475000X0.250000X-0.475000X0.250000X0.475000X-0.250000X0.475000X0*%
%TD*%
%TA.AperFunction,SMDPad,CuDef*%
%ADD45RoundRect,0.250000X-0.312500X-0.625000X0.312500X-0.625000X0.312500X0.625000X-0.312500X0.625000X0*%
%TD*%
%TA.AperFunction,SMDPad,CuDef*%
%ADD46RoundRect,0.135000X-0.185000X0.135000X-0.185000X-0.135000X0.185000X-0.135000X0.185000X0.135000X0*%
%TD*%
%TA.AperFunction,SMDPad,CuDef*%
%ADD47RoundRect,0.150000X-0.150000X0.512500X-0.150000X-0.512500X0.150000X-0.512500X0.150000X0.512500X0*%
%TD*%
%TA.AperFunction,SMDPad,CuDef*%
%ADD48RoundRect,0.075000X-0.700000X-0.075000X0.700000X-0.075000X0.700000X0.075000X-0.700000X0.075000X0*%
%TD*%
%TA.AperFunction,SMDPad,CuDef*%
%ADD49RoundRect,0.075000X-0.075000X-0.700000X0.075000X-0.700000X0.075000X0.700000X-0.075000X0.700000X0*%
%TD*%
%TA.AperFunction,SMDPad,CuDef*%
%ADD50RoundRect,0.243750X-0.243750X-0.456250X0.243750X-0.456250X0.243750X0.456250X-0.243750X0.456250X0*%
%TD*%
%TA.AperFunction,SMDPad,CuDef*%
%ADD51RoundRect,0.250000X0.450000X-0.262500X0.450000X0.262500X-0.450000X0.262500X-0.450000X-0.262500X0*%
%TD*%
%TA.AperFunction,SMDPad,CuDef*%
%ADD52RoundRect,0.250000X-0.450000X0.262500X-0.450000X-0.262500X0.450000X-0.262500X0.450000X0.262500X0*%
%TD*%
%TA.AperFunction,SMDPad,CuDef*%
%ADD53R,0.900000X1.000000*%
%TD*%
%TA.AperFunction,SMDPad,CuDef*%
%ADD54R,2.000000X0.850000*%
%TD*%
%TA.AperFunction,ViaPad*%
%ADD55C,0.600000*%
%TD*%
%TA.AperFunction,Conductor*%
%ADD56C,0.200000*%
%TD*%
%TA.AperFunction,Conductor*%
%ADD57C,0.500000*%
%TD*%
%TA.AperFunction,Conductor*%
%ADD58C,1.000000*%
%TD*%
G04 APERTURE END LIST*
D10*
%TO.P,SW17,1,1*%
%TO.N,KEY_ROW_4*%
X150740000Y-104460000D03*
%TO.P,SW17,2,2*%
%TO.N,Net-(D19-A)*%
X144390000Y-107000000D03*
%TD*%
%TO.P,SW16,1,1*%
%TO.N,KEY_ROW_4*%
X131213332Y-104460000D03*
%TO.P,SW16,2,2*%
%TO.N,Net-(D18-A)*%
X124863332Y-107000000D03*
%TD*%
%TO.P,SW15,2,2*%
%TO.N,Net-(D17-A)*%
X105336666Y-107000000D03*
%TO.P,SW15,1,1*%
%TO.N,KEY_ROW_4*%
X111686666Y-104460000D03*
%TD*%
%TO.P,SW14,1,1*%
%TO.N,KEY_ROW_4*%
X92160000Y-104460000D03*
%TO.P,SW14,2,2*%
%TO.N,Net-(D16-A)*%
X85810000Y-107000000D03*
%TD*%
%TO.P,SW13,1,1*%
%TO.N,KEY_ROW_3*%
X150740000Y-84433332D03*
%TO.P,SW13,2,2*%
%TO.N,Net-(D15-A)*%
X144390000Y-86973332D03*
%TD*%
%TO.P,SW12,2,2*%
%TO.N,Net-(D14-A)*%
X124863332Y-86973332D03*
%TO.P,SW12,1,1*%
%TO.N,KEY_ROW_3*%
X131213332Y-84433332D03*
%TD*%
%TO.P,SW11,1,1*%
%TO.N,KEY_ROW_3*%
X111686666Y-84433332D03*
%TO.P,SW11,2,2*%
%TO.N,Net-(D13-A)*%
X105336666Y-86973332D03*
%TD*%
%TO.P,SW10,2,2*%
%TO.N,Net-(D12-A)*%
X85810000Y-86973332D03*
%TO.P,SW10,1,1*%
%TO.N,KEY_ROW_3*%
X92160000Y-84433332D03*
%TD*%
%TO.P,SW9,2,2*%
%TO.N,Net-(D11-A)*%
X144390000Y-66946666D03*
%TO.P,SW9,1,1*%
%TO.N,KEY_ROW_2*%
X150740000Y-64406666D03*
%TD*%
%TO.P,SW8,2,2*%
%TO.N,Net-(D10-A)*%
X124863332Y-66946666D03*
%TO.P,SW8,1,1*%
%TO.N,KEY_ROW_2*%
X131213332Y-64406666D03*
%TD*%
%TO.P,SW7,2,2*%
%TO.N,Net-(D9-A)*%
X105336666Y-66946666D03*
%TO.P,SW7,1,1*%
%TO.N,KEY_ROW_2*%
X111686666Y-64406666D03*
%TD*%
%TO.P,SW6,1,1*%
%TO.N,KEY_ROW_2*%
X92160000Y-64406666D03*
%TO.P,SW6,2,2*%
%TO.N,Net-(D8-A)*%
X85810000Y-66946666D03*
%TD*%
%TO.P,SW5,1,1*%
%TO.N,KEY_ROW_1*%
X150740000Y-44380000D03*
%TO.P,SW5,2,2*%
%TO.N,Net-(D7-A)*%
X144390000Y-46920000D03*
%TD*%
%TO.P,SW4,1,1*%
%TO.N,KEY_ROW_1*%
X131213332Y-44380000D03*
%TO.P,SW4,2,2*%
%TO.N,Net-(D6-A)*%
X124863332Y-46920000D03*
%TD*%
%TO.P,SW3,2,2*%
%TO.N,Net-(D5-A)*%
X105336666Y-46920000D03*
%TO.P,SW3,1,1*%
%TO.N,KEY_ROW_1*%
X111686666Y-44380000D03*
%TD*%
%TO.P,SW2,1,1*%
%TO.N,KEY_ROW_1*%
X92160000Y-44380000D03*
%TO.P,SW2,2,2*%
%TO.N,Net-(D4-A)*%
X85810000Y-46920000D03*
%TD*%
D11*
%TO.P,J1,4,Pin_4*%
%TO.N,I2C_1_SDA*%
X205760000Y-38500000D03*
%TO.P,J1,3,Pin_3*%
%TO.N,I2C_1_SCL*%
X203220000Y-38500000D03*
%TO.P,J1,2,Pin_2*%
%TO.N,+3V3*%
X200680000Y-38500000D03*
D12*
%TO.P,J1,1,Pin_1*%
%TO.N,GND*%
X212600000Y-62700000D03*
X212600000Y-39200000D03*
D13*
X198140000Y-38500000D03*
D12*
X191300000Y-62800000D03*
X191300000Y-39300000D03*
%TD*%
D14*
%TO.P,R8,1*%
%TO.N,Net-(U2-PA11)*%
X187600000Y-61125000D03*
%TO.P,R8,2*%
%TO.N,USB_D-*%
X187600000Y-59475000D03*
%TD*%
%TO.P,R9,1*%
%TO.N,Net-(U2-PA12)*%
X186000000Y-61125000D03*
%TO.P,R9,2*%
%TO.N,USB_D+*%
X186000000Y-59475000D03*
%TD*%
D15*
%TO.P,L2,1*%
%TO.N,+3V3*%
X164500000Y-66040000D03*
%TO.P,L2,2*%
%TO.N,+3.3VA*%
X164500000Y-67010000D03*
%TD*%
D16*
%TO.P,C12,1*%
%TO.N,+3.3VA*%
X165800000Y-67675000D03*
%TO.P,C12,2*%
%TO.N,GND*%
X165800000Y-66125000D03*
%TD*%
D17*
%TO.P,C1,1*%
%TO.N,BUCK_SW*%
X201900000Y-47525000D03*
%TO.P,C1,2*%
%TO.N,BUCK_BST*%
X201900000Y-49075000D03*
%TD*%
D18*
%TO.P,D11,1,K*%
%TO.N,KEY_COL_4*%
X156150000Y-60500000D03*
%TO.P,D11,2,A*%
%TO.N,Net-(D11-A)*%
X152850000Y-60500000D03*
%TD*%
D19*
%TO.P,TP2,1,1*%
%TO.N,+5V*%
X220446600Y-54974200D03*
%TD*%
D20*
%TO.P,D1,1,K*%
%TO.N,Net-(D1-K)*%
X186500000Y-52650000D03*
%TO.P,D1,2,A*%
%TO.N,+5V*%
X186500000Y-55950000D03*
%TD*%
D21*
%TO.P,SW1,1,A*%
%TO.N,+3V3*%
X162500000Y-52640000D03*
D22*
%TO.P,SW1,2,B*%
%TO.N,Net-(SW1-B)*%
X162500000Y-50100000D03*
%TO.P,SW1,3,C*%
%TO.N,GND*%
X162500000Y-47560000D03*
%TD*%
D19*
%TO.P,TP3,1,1*%
%TO.N,+3.3VA*%
X163830000Y-85598000D03*
%TD*%
D18*
%TO.P,D9,1,K*%
%TO.N,KEY_COL_2*%
X116650000Y-59500000D03*
%TO.P,D9,2,A*%
%TO.N,Net-(D9-A)*%
X113350000Y-59500000D03*
%TD*%
%TO.P,D14,1,K*%
%TO.N,KEY_COL_3*%
X136650000Y-80500000D03*
%TO.P,D14,2,A*%
%TO.N,Net-(D14-A)*%
X133350000Y-80500000D03*
%TD*%
D23*
%TO.P,H2,1,1*%
%TO.N,GND*%
X80000000Y-120000000D03*
%TD*%
D18*
%TO.P,D18,1,K*%
%TO.N,KEY_COL_3*%
X136650000Y-100500000D03*
%TO.P,D18,2,A*%
%TO.N,Net-(D18-A)*%
X133350000Y-100500000D03*
%TD*%
%TO.P,D19,1,K*%
%TO.N,KEY_COL_4*%
X156150000Y-100000000D03*
%TO.P,D19,2,A*%
%TO.N,Net-(D19-A)*%
X152850000Y-100000000D03*
%TD*%
%TO.P,D8,1,K*%
%TO.N,KEY_COL_1*%
X97650000Y-59500000D03*
%TO.P,D8,2,A*%
%TO.N,Net-(D8-A)*%
X94350000Y-59500000D03*
%TD*%
D24*
%TO.P,C15,1*%
%TO.N,GND*%
X165072000Y-57912000D03*
%TO.P,C15,2*%
%TO.N,HSE_IN*%
X164112000Y-57912000D03*
%TD*%
D25*
%TO.P,C17,1*%
%TO.N,+3V3*%
X187858000Y-94408000D03*
%TO.P,C17,2*%
%TO.N,GND*%
X187858000Y-95368000D03*
%TD*%
D26*
%TO.P,R13,2*%
%TO.N,+3V3*%
X204220000Y-40600000D03*
%TO.P,R13,1*%
%TO.N,I2C_1_SCL*%
X203200000Y-40600000D03*
%TD*%
D27*
%TO.P,Q1,1,G*%
%TO.N,GND*%
X184950000Y-50200000D03*
%TO.P,Q1,2,S*%
%TO.N,Net-(D1-K)*%
X186850000Y-50200000D03*
%TO.P,Q1,3,D*%
%TO.N,+12V*%
X185900000Y-48325000D03*
%TD*%
D28*
%TO.P,R16,1*%
%TO.N,I2C2_SDA*%
X189636000Y-85565000D03*
%TO.P,R16,2*%
%TO.N,+3V3*%
X189636000Y-84545000D03*
%TD*%
D29*
%TO.P,C4,1*%
%TO.N,BUCK_IN*%
X199300000Y-46950000D03*
%TO.P,C4,2*%
%TO.N,GND*%
X199300000Y-48850000D03*
%TD*%
D19*
%TO.P,TP5,1,1*%
%TO.N,GND*%
X220446600Y-72974200D03*
%TD*%
D23*
%TO.P,H5,1,1*%
%TO.N,GND*%
X220000000Y-40000000D03*
%TD*%
D30*
%TO.P,F1,1*%
%TO.N,Net-(F1-Pad1)*%
X196387500Y-50500000D03*
%TO.P,F1,2*%
%TO.N,Net-(D1-K)*%
X189612500Y-50500000D03*
%TD*%
D31*
%TO.P,U1,1,BST*%
%TO.N,BUCK_BST*%
X203650000Y-49337500D03*
%TO.P,U1,2,GND*%
%TO.N,GND*%
X204600000Y-49337500D03*
%TO.P,U1,3,FB*%
%TO.N,BUCK_FB*%
X205550000Y-49337500D03*
%TO.P,U1,4,EN*%
%TO.N,BUCK_EN*%
X205550000Y-47062500D03*
%TO.P,U1,5,IN*%
%TO.N,BUCK_IN*%
X204600000Y-47062500D03*
%TO.P,U1,6,SW*%
%TO.N,BUCK_SW*%
X203650000Y-47062500D03*
%TD*%
D24*
%TO.P,C14,1*%
%TO.N,GND*%
X184042000Y-60000000D03*
%TO.P,C14,2*%
%TO.N,Net-(U2-VCAP_2)*%
X183082000Y-60000000D03*
%TD*%
D29*
%TO.P,C2,1*%
%TO.N,GND*%
X203200000Y-53450000D03*
%TO.P,C2,2*%
%TO.N,+3V3*%
X203200000Y-55350000D03*
%TD*%
D32*
%TO.P,J3,1,Pin_1*%
%TO.N,+3V3*%
X201930000Y-69342000D03*
D33*
%TO.P,J3,2,Pin_2*%
%TO.N,SWDIO*%
X200660000Y-69342000D03*
%TO.P,J3,3,Pin_3*%
%TO.N,GND*%
X201930000Y-70612000D03*
%TO.P,J3,4,Pin_4*%
%TO.N,SWCLK*%
X200660000Y-70612000D03*
%TO.P,J3,5,Pin_5*%
%TO.N,GND*%
X201930000Y-71882000D03*
%TO.P,J3,6,Pin_6*%
%TO.N,SWO*%
X200660000Y-71882000D03*
%TO.P,J3,7,Pin_7*%
%TO.N,unconnected-(J3-Pin_7-Pad7)*%
X201930000Y-73152000D03*
%TO.P,J3,8,Pin_8*%
%TO.N,unconnected-(J3-Pin_8-Pad8)*%
X200660000Y-73152000D03*
%TO.P,J3,9,Pin_9*%
%TO.N,GND*%
X201930000Y-74422000D03*
%TO.P,J3,10,Pin_10*%
%TO.N,NRST*%
X200660000Y-74422000D03*
%TD*%
D29*
%TO.P,C3,1*%
%TO.N,GND*%
X205400000Y-53450000D03*
%TO.P,C3,2*%
%TO.N,+3V3*%
X205400000Y-55350000D03*
%TD*%
D34*
%TO.P,R5,1*%
%TO.N,Net-(R3-Pad2)*%
X207450000Y-51200000D03*
%TO.P,R5,2*%
%TO.N,GND*%
X209100000Y-51200000D03*
%TD*%
D35*
%TO.P,D2,1,K*%
%TO.N,BUCK_SW*%
X198900000Y-54150000D03*
%TO.P,D2,2,A*%
%TO.N,GND*%
X198900000Y-50850000D03*
%TD*%
D36*
%TO.P,U4,1,VDD5V*%
%TO.N,+3V3*%
X188095000Y-92475000D03*
%TO.P,U4,2,VDD3V3*%
X189365000Y-92475000D03*
%TO.P,U4,3,OUT*%
%TO.N,Net-(U4-OUT)*%
X190635000Y-92475000D03*
%TO.P,U4,4,GND*%
%TO.N,GND*%
X191905000Y-92475000D03*
%TO.P,U4,5,PGO*%
X191905000Y-87525000D03*
%TO.P,U4,6,SDA*%
%TO.N,I2C2_SDA*%
X190635000Y-87525000D03*
%TO.P,U4,7,SCL*%
%TO.N,I2C2_SCL*%
X189365000Y-87525000D03*
%TO.P,U4,8,DIR*%
%TO.N,GND*%
X188095000Y-87525000D03*
%TD*%
D37*
%TO.P,C9,1*%
%TO.N,+3V3*%
X171260000Y-55480000D03*
%TO.P,C9,2*%
%TO.N,GND*%
X172220000Y-55480000D03*
%TD*%
D18*
%TO.P,D5,1,K*%
%TO.N,KEY_COL_2*%
X116650000Y-40500000D03*
%TO.P,D5,2,A*%
%TO.N,Net-(D5-A)*%
X113350000Y-40500000D03*
%TD*%
%TO.P,D7,1,K*%
%TO.N,KEY_COL_4*%
X155300000Y-41000000D03*
%TO.P,D7,2,A*%
%TO.N,Net-(D7-A)*%
X152000000Y-41000000D03*
%TD*%
%TO.P,D4,1,K*%
%TO.N,KEY_COL_1*%
X97300000Y-41000000D03*
%TO.P,D4,2,A*%
%TO.N,Net-(D4-A)*%
X94000000Y-41000000D03*
%TD*%
D23*
%TO.P,H6,1,1*%
%TO.N,GND*%
X220000000Y-120000000D03*
%TD*%
D19*
%TO.P,TP4,1,1*%
%TO.N,+3V3*%
X220446600Y-66974200D03*
%TD*%
D38*
%TO.P,C11,1*%
%TO.N,+3.3VA*%
X167132000Y-67028000D03*
%TO.P,C11,2*%
%TO.N,GND*%
X167132000Y-66068000D03*
%TD*%
D18*
%TO.P,D13,1,K*%
%TO.N,KEY_COL_2*%
X116650000Y-79500000D03*
%TO.P,D13,2,A*%
%TO.N,Net-(D13-A)*%
X113350000Y-79500000D03*
%TD*%
%TO.P,D6,1,K*%
%TO.N,KEY_COL_3*%
X136650000Y-40500000D03*
%TO.P,D6,2,A*%
%TO.N,Net-(D6-A)*%
X133350000Y-40500000D03*
%TD*%
D24*
%TO.P,C6,1*%
%TO.N,+3V3*%
X172248000Y-70974000D03*
%TO.P,C6,2*%
%TO.N,GND*%
X171288000Y-70974000D03*
%TD*%
D39*
%TO.P,J5,A1,GND*%
%TO.N,GND*%
X173200000Y-43100000D03*
%TO.P,J5,A4,VBUS*%
%TO.N,+5V*%
X172400000Y-43100000D03*
D40*
%TO.P,J5,A5,CC1*%
%TO.N,Net-(J5-CC1)*%
X171200000Y-43100000D03*
%TO.P,J5,A6,D+*%
%TO.N,USB_CONN_D-*%
X170200000Y-43100000D03*
%TO.P,J5,A7,D-*%
%TO.N,USB_CONN_D+*%
X169700000Y-43100000D03*
%TO.P,J5,A8,SBU1*%
%TO.N,unconnected-(J5-SBU1-PadA8)*%
X168700000Y-43100000D03*
D39*
%TO.P,J5,A9,VBUS*%
%TO.N,+5V*%
X167500000Y-43100000D03*
%TO.P,J5,A12,GND*%
%TO.N,GND*%
X166700000Y-43100000D03*
%TO.P,J5,B1,GND*%
X166700000Y-43100000D03*
%TO.P,J5,B4,VBUS*%
%TO.N,+5V*%
X167500000Y-43100000D03*
D40*
%TO.P,J5,B5,CC2*%
%TO.N,Net-(J5-CC2)*%
X168200000Y-43100000D03*
%TO.P,J5,B6,D+*%
%TO.N,USB_CONN_D-*%
X169200000Y-43100000D03*
%TO.P,J5,B7,D-*%
%TO.N,USB_CONN_D+*%
X170700000Y-43100000D03*
%TO.P,J5,B8,SBU2*%
%TO.N,unconnected-(J5-SBU2-PadB8)*%
X171700000Y-43100000D03*
D39*
%TO.P,J5,B9,VBUS*%
%TO.N,+5V*%
X172400000Y-43100000D03*
%TO.P,J5,B12,GND*%
%TO.N,GND*%
X173200000Y-43100000D03*
D41*
%TO.P,J5,S1,SHIELD*%
%TO.N,unconnected-(J5-SHIELD-PadS1)*%
X174270000Y-42185000D03*
D42*
X174270000Y-38005000D03*
D41*
X165630000Y-42185000D03*
D42*
X165630000Y-38005000D03*
%TD*%
D38*
%TO.P,C5,1*%
%TO.N,+3V3*%
X183678000Y-59008000D03*
%TO.P,C5,2*%
%TO.N,GND*%
X183678000Y-58048000D03*
%TD*%
%TO.P,C13,1*%
%TO.N,GND*%
X177455000Y-71835000D03*
%TO.P,C13,2*%
%TO.N,Net-(U2-VCAP_1)*%
X177455000Y-70875000D03*
%TD*%
D18*
%TO.P,D17,1,K*%
%TO.N,KEY_COL_2*%
X116650000Y-99500000D03*
%TO.P,D17,2,A*%
%TO.N,Net-(D17-A)*%
X113350000Y-99500000D03*
%TD*%
%TO.P,D16,1,K*%
%TO.N,KEY_COL_1*%
X97150000Y-99500000D03*
%TO.P,D16,2,A*%
%TO.N,Net-(D16-A)*%
X93850000Y-99500000D03*
%TD*%
D19*
%TO.P,TP1,1,1*%
%TO.N,+12V*%
X220446600Y-48974200D03*
%TD*%
D38*
%TO.P,C8,1*%
%TO.N,+3V3*%
X182408000Y-58980000D03*
%TO.P,C8,2*%
%TO.N,GND*%
X182408000Y-58020000D03*
%TD*%
D18*
%TO.P,D10,1,K*%
%TO.N,KEY_COL_3*%
X136650000Y-60500000D03*
%TO.P,D10,2,A*%
%TO.N,Net-(D10-A)*%
X133350000Y-60500000D03*
%TD*%
D24*
%TO.P,C10,1*%
%TO.N,+3V3*%
X169229000Y-57684000D03*
%TO.P,C10,2*%
%TO.N,GND*%
X168269000Y-57684000D03*
%TD*%
D43*
%TO.P,FB1,1*%
%TO.N,BUCK_IN*%
X199537500Y-43600000D03*
%TO.P,FB1,2*%
%TO.N,Net-(F1-Pad1)*%
X197662500Y-43600000D03*
%TD*%
D21*
%TO.P,J2,1,Pin_1*%
%TO.N,+3V3*%
X192310000Y-119952000D03*
D22*
%TO.P,J2,2,Pin_2*%
%TO.N,SPI2_MOSI*%
X194850000Y-119952000D03*
%TO.P,J2,3,Pin_3*%
%TO.N,SPI2_MISO*%
X197390000Y-119952000D03*
%TO.P,J2,4,Pin_4*%
%TO.N,SPI2_SCK*%
X199930000Y-119952000D03*
%TO.P,J2,5,Pin_5*%
%TO.N,GND*%
X202470000Y-119952000D03*
%TD*%
D44*
%TO.P,C18,1*%
%TO.N,Net-(U4-OUT)*%
X189829000Y-94888000D03*
%TO.P,C18,2*%
%TO.N,GND*%
X191729000Y-94888000D03*
%TD*%
D45*
%TO.P,R2,1*%
%TO.N,BUCK_IN*%
X202637500Y-43800000D03*
%TO.P,R2,2*%
%TO.N,BUCK_EN*%
X205562500Y-43800000D03*
%TD*%
D46*
%TO.P,R14,1*%
%TO.N,I2C_1_SDA*%
X207700000Y-38531000D03*
%TO.P,R14,2*%
%TO.N,+3V3*%
X207700000Y-39551000D03*
%TD*%
D24*
%TO.P,C7,1*%
%TO.N,+3V3*%
X179459000Y-70847000D03*
%TO.P,C7,2*%
%TO.N,GND*%
X178499000Y-70847000D03*
%TD*%
D18*
%TO.P,D12,1,K*%
%TO.N,KEY_COL_1*%
X97300000Y-79500000D03*
%TO.P,D12,2,A*%
%TO.N,Net-(D12-A)*%
X94000000Y-79500000D03*
%TD*%
D47*
%TO.P,U3,1,I/O1*%
%TO.N,USB_CONN_D-*%
X171132500Y-45606500D03*
%TO.P,U3,2,GND*%
%TO.N,GND*%
X170182500Y-45606500D03*
%TO.P,U3,3,I/O2*%
%TO.N,USB_CONN_D+*%
X169232500Y-45606500D03*
%TO.P,U3,4,I/O2*%
%TO.N,USB_D+*%
X169232500Y-47881500D03*
%TO.P,U3,5,VBUS*%
%TO.N,+5V*%
X170182500Y-47881500D03*
%TO.P,U3,6,I/O1*%
%TO.N,USB_D-*%
X171132500Y-47881500D03*
%TD*%
D48*
%TO.P,U2,1,VBAT*%
%TO.N,+3V3*%
X169367000Y-59350000D03*
%TO.P,U2,2,PC13*%
%TO.N,unconnected-(U2-PC13-Pad2)*%
X169367000Y-59850000D03*
%TO.P,U2,3,PC14*%
%TO.N,unconnected-(U2-PC14-Pad3)*%
X169367000Y-60350000D03*
%TO.P,U2,4,PC15*%
%TO.N,unconnected-(U2-PC15-Pad4)*%
X169367000Y-60850000D03*
%TO.P,U2,5,PH0*%
%TO.N,HSE_IN*%
X169367000Y-61350000D03*
%TO.P,U2,6,PH1*%
%TO.N,HSE_OUT*%
X169367000Y-61850000D03*
%TO.P,U2,7,NRST*%
%TO.N,NRST*%
X169367000Y-62350000D03*
%TO.P,U2,8,PC0*%
%TO.N,KEY_COL_1*%
X169367000Y-62850000D03*
%TO.P,U2,9,PC1*%
%TO.N,KEY_COL_2*%
X169367000Y-63350000D03*
%TO.P,U2,10,PC2*%
%TO.N,KEY_COL_3*%
X169367000Y-63850000D03*
%TO.P,U2,11,PC3*%
%TO.N,KEY_COL_4*%
X169367000Y-64350000D03*
%TO.P,U2,12,VSSA*%
%TO.N,GND*%
X169367000Y-64850000D03*
%TO.P,U2,13,VDDA*%
%TO.N,+3.3VA*%
X169367000Y-65350000D03*
%TO.P,U2,14,PA0*%
%TO.N,unconnected-(U2-PA0-Pad14)*%
X169367000Y-65850000D03*
%TO.P,U2,15,PA1*%
%TO.N,unconnected-(U2-PA1-Pad15)*%
X169367000Y-66350000D03*
%TO.P,U2,16,PA2*%
%TO.N,LED_STATUS*%
X169367000Y-66850000D03*
D49*
%TO.P,U2,17,PA3*%
%TO.N,unconnected-(U2-PA3-Pad17)*%
X171292000Y-68775000D03*
%TO.P,U2,18,VSS*%
%TO.N,GND*%
X171792000Y-68775000D03*
%TO.P,U2,19,VDD*%
%TO.N,+3V3*%
X172292000Y-68775000D03*
%TO.P,U2,20,PA4*%
%TO.N,KEY_ROW_1*%
X172792000Y-68775000D03*
%TO.P,U2,21,PA5*%
%TO.N,KEY_ROW_2*%
X173292000Y-68775000D03*
%TO.P,U2,22,PA6*%
%TO.N,KEY_ROW_3*%
X173792000Y-68775000D03*
%TO.P,U2,23,PA7*%
%TO.N,KEY_ROW_4*%
X174292000Y-68775000D03*
%TO.P,U2,24,PC4*%
%TO.N,unconnected-(U2-PC4-Pad24)*%
X174792000Y-68775000D03*
%TO.P,U2,25,PC5*%
%TO.N,unconnected-(U2-PC5-Pad25)*%
X175292000Y-68775000D03*
%TO.P,U2,26,PB0*%
%TO.N,unconnected-(U2-PB0-Pad26)*%
X175792000Y-68775000D03*
%TO.P,U2,27,PB1*%
%TO.N,unconnected-(U2-PB1-Pad27)*%
X176292000Y-68775000D03*
%TO.P,U2,28,PB2*%
%TO.N,unconnected-(U2-PB2-Pad28)*%
X176792000Y-68775000D03*
%TO.P,U2,29,PB10*%
%TO.N,I2C2_SCL*%
X177292000Y-68775000D03*
%TO.P,U2,30,PB11*%
%TO.N,I2C2_SDA*%
X177792000Y-68775000D03*
%TO.P,U2,31,VCAP_1*%
%TO.N,Net-(U2-VCAP_1)*%
X178292000Y-68775000D03*
%TO.P,U2,32,VDD*%
%TO.N,+3V3*%
X178792000Y-68775000D03*
D48*
%TO.P,U2,33,PB12*%
%TO.N,unconnected-(U2-PB12-Pad33)*%
X180717000Y-66850000D03*
%TO.P,U2,34,PB13*%
%TO.N,SPI2_SCK*%
X180717000Y-66350000D03*
%TO.P,U2,35,PB14*%
%TO.N,SPI2_MISO*%
X180717000Y-65850000D03*
%TO.P,U2,36,PB15*%
%TO.N,SPI2_MOSI*%
X180717000Y-65350000D03*
%TO.P,U2,37,PC6*%
%TO.N,unconnected-(U2-PC6-Pad37)*%
X180717000Y-64850000D03*
%TO.P,U2,38,PC7*%
%TO.N,unconnected-(U2-PC7-Pad38)*%
X180717000Y-64350000D03*
%TO.P,U2,39,PC8*%
%TO.N,unconnected-(U2-PC8-Pad39)*%
X180717000Y-63850000D03*
%TO.P,U2,40,PC9*%
%TO.N,unconnected-(U2-PC9-Pad40)*%
X180717000Y-63350000D03*
%TO.P,U2,41,PA8*%
%TO.N,unconnected-(U2-PA8-Pad41)*%
X180717000Y-62850000D03*
%TO.P,U2,42,PA9*%
%TO.N,unconnected-(U2-PA9-Pad42)*%
X180717000Y-62350000D03*
%TO.P,U2,43,PA10*%
%TO.N,unconnected-(U2-PA10-Pad43)*%
X180717000Y-61850000D03*
%TO.P,U2,44,PA11*%
%TO.N,Net-(U2-PA11)*%
X180717000Y-61350000D03*
%TO.P,U2,45,PA12*%
%TO.N,Net-(U2-PA12)*%
X180717000Y-60850000D03*
%TO.P,U2,46,PA13*%
%TO.N,SWDIO*%
X180717000Y-60350000D03*
%TO.P,U2,47,VCAP_2*%
%TO.N,Net-(U2-VCAP_2)*%
X180717000Y-59850000D03*
%TO.P,U2,48,VDD*%
%TO.N,+3V3*%
X180717000Y-59350000D03*
D49*
%TO.P,U2,49,PA14*%
%TO.N,SWCLK*%
X178792000Y-57425000D03*
%TO.P,U2,50,PA15*%
%TO.N,unconnected-(U2-PA15-Pad50)*%
X178292000Y-57425000D03*
%TO.P,U2,51,PC10*%
%TO.N,unconnected-(U2-PC10-Pad51)*%
X177792000Y-57425000D03*
%TO.P,U2,52,PC11*%
%TO.N,unconnected-(U2-PC11-Pad52)*%
X177292000Y-57425000D03*
%TO.P,U2,53,PC12*%
%TO.N,unconnected-(U2-PC12-Pad53)*%
X176792000Y-57425000D03*
%TO.P,U2,54,PD2*%
%TO.N,unconnected-(U2-PD2-Pad54)*%
X176292000Y-57425000D03*
%TO.P,U2,55,PB3*%
%TO.N,SWO*%
X175792000Y-57425000D03*
%TO.P,U2,56,PB4*%
%TO.N,unconnected-(U2-PB4-Pad56)*%
X175292000Y-57425000D03*
%TO.P,U2,57,PB5*%
%TO.N,unconnected-(U2-PB5-Pad57)*%
X174792000Y-57425000D03*
%TO.P,U2,58,PB6*%
%TO.N,I2C_1_SCL*%
X174292000Y-57425000D03*
%TO.P,U2,59,PB7*%
%TO.N,I2C_1_SDA*%
X173792000Y-57425000D03*
%TO.P,U2,60,BOOT0*%
%TO.N,BOOT0*%
X173292000Y-57425000D03*
%TO.P,U2,61,PB8*%
%TO.N,unconnected-(U2-PB8-Pad61)*%
X172792000Y-57425000D03*
%TO.P,U2,62,PB9*%
%TO.N,unconnected-(U2-PB9-Pad62)*%
X172292000Y-57425000D03*
%TO.P,U2,63,VSS*%
%TO.N,GND*%
X171792000Y-57425000D03*
%TO.P,U2,64,VDD*%
%TO.N,+3V3*%
X171292000Y-57425000D03*
%TD*%
D50*
%TO.P,D3,1,K*%
%TO.N,Net-(D3-K)*%
X164995670Y-69732000D03*
%TO.P,D3,2,A*%
%TO.N,LED_STATUS*%
X166870670Y-69732000D03*
%TD*%
D28*
%TO.P,R15,1*%
%TO.N,I2C2_SCL*%
X188366000Y-85565000D03*
%TO.P,R15,2*%
%TO.N,+3V3*%
X188366000Y-84545000D03*
%TD*%
D51*
%TO.P,R12,1*%
%TO.N,GND*%
X166596500Y-47211500D03*
%TO.P,R12,2*%
%TO.N,Net-(J5-CC2)*%
X166596500Y-45386500D03*
%TD*%
D46*
%TO.P,R4,1*%
%TO.N,BUCK_EN*%
X207300000Y-43090000D03*
%TO.P,R4,2*%
%TO.N,GND*%
X207300000Y-44110000D03*
%TD*%
D51*
%TO.P,R11,1*%
%TO.N,GND*%
X173708500Y-47211500D03*
%TO.P,R11,2*%
%TO.N,Net-(J5-CC1)*%
X173708500Y-45386500D03*
%TD*%
D52*
%TO.P,R1,1*%
%TO.N,+3V3*%
X207800000Y-45575000D03*
%TO.P,R1,2*%
%TO.N,BUCK_FB*%
X207800000Y-47400000D03*
%TD*%
D23*
%TO.P,H4,1,1*%
%TO.N,GND*%
X160000000Y-40000000D03*
%TD*%
D26*
%TO.P,R10,1*%
%TO.N,Net-(C16-Pad2)*%
X166622000Y-61722000D03*
%TO.P,R10,2*%
%TO.N,HSE_OUT*%
X167642000Y-61722000D03*
%TD*%
D46*
%TO.P,R3,1*%
%TO.N,BUCK_FB*%
X207300000Y-48800000D03*
%TO.P,R3,2*%
%TO.N,Net-(R3-Pad2)*%
X207300000Y-49820000D03*
%TD*%
%TO.P,R6,1*%
%TO.N,GND*%
X163520170Y-69222000D03*
%TO.P,R6,2*%
%TO.N,Net-(D3-K)*%
X163520170Y-70242000D03*
%TD*%
D26*
%TO.P,R7,1*%
%TO.N,Net-(SW1-B)*%
X171532000Y-54000000D03*
%TO.P,R7,2*%
%TO.N,BOOT0*%
X172552000Y-54000000D03*
%TD*%
D23*
%TO.P,H3,1,1*%
%TO.N,GND*%
X80000000Y-40000000D03*
%TD*%
D21*
%TO.P,J4,1,Pin_1*%
%TO.N,GND*%
X183896000Y-43688000D03*
D22*
%TO.P,J4,2,Pin_2*%
%TO.N,+12V*%
X181356000Y-43688000D03*
%TD*%
D37*
%TO.P,C16,1*%
%TO.N,GND*%
X164112000Y-62992000D03*
%TO.P,C16,2*%
%TO.N,Net-(C16-Pad2)*%
X165072000Y-62992000D03*
%TD*%
D23*
%TO.P,H1,1,1*%
%TO.N,GND*%
X160000000Y-120000000D03*
%TD*%
D53*
%TO.P,Y1,1,1*%
%TO.N,HSE_IN*%
X163778000Y-59396000D03*
%TO.P,Y1,2,2*%
%TO.N,GND*%
X163778000Y-61546000D03*
%TO.P,Y1,3,3*%
%TO.N,Net-(C16-Pad2)*%
X165328000Y-61546000D03*
%TO.P,Y1,4,4*%
%TO.N,GND*%
X165328000Y-59396000D03*
%TD*%
D54*
%TO.P,L1,1*%
%TO.N,BUCK_SW*%
X199200000Y-56175000D03*
%TO.P,L1,2*%
%TO.N,+3V3*%
X199200000Y-57825000D03*
%TD*%
D18*
%TO.P,D15,1,K*%
%TO.N,KEY_COL_4*%
X156150000Y-80500000D03*
%TO.P,D15,2,A*%
%TO.N,Net-(D15-A)*%
X152850000Y-80500000D03*
%TD*%
D55*
%TO.N,KEY_ROW_1*%
X154000000Y-45000000D03*
X164000000Y-72000000D03*
%TO.N,KEY_COL_1*%
X100000000Y-59500000D03*
X159000000Y-60500000D03*
%TO.N,KEY_COL_2*%
X119000000Y-59500000D03*
X159000000Y-61500000D03*
%TO.N,KEY_COL_3*%
X139500000Y-61000000D03*
X159000000Y-62500000D03*
%TO.N,I2C_1_SCL*%
X195400000Y-43000000D03*
X176900000Y-54200000D03*
%TO.N,I2C_1_SDA*%
X176200000Y-53400000D03*
X194100000Y-43000000D03*
%TO.N,+3V3*%
X163100000Y-66900000D03*
%TO.N,GND*%
X170180000Y-70866000D03*
X163830000Y-44450000D03*
X182626000Y-49022000D03*
X176530000Y-72136000D03*
X163576000Y-68326000D03*
X186690000Y-96266000D03*
X204400000Y-50546000D03*
X166370000Y-49022000D03*
X172466000Y-59436000D03*
X209226000Y-50038000D03*
X176022000Y-43688000D03*
X175514000Y-48006000D03*
X171196000Y-64770000D03*
X165100000Y-56388000D03*
X198120000Y-49022000D03*
X197612000Y-46736000D03*
X167640000Y-56896000D03*
X187452000Y-85852000D03*
X205162000Y-52070000D03*
X193548000Y-95504000D03*
X203384000Y-51816000D03*
X210200000Y-51100000D03*
X183642000Y-57150000D03*
X193040000Y-85344000D03*
X184912000Y-60452000D03*
X182372000Y-57150000D03*
X208210000Y-44196000D03*
X209226000Y-52070000D03*
X161544000Y-60960000D03*
%TO.N,+3V3*%
X180340000Y-70612000D03*
X190246000Y-83820000D03*
X205310000Y-40622000D03*
X168910000Y-56642000D03*
X209117000Y-45575000D03*
X197358000Y-57912000D03*
X217170000Y-66040000D03*
X204908000Y-56388000D03*
X207774000Y-40523000D03*
X206432000Y-56642000D03*
X208536000Y-39507000D03*
X184912000Y-58928000D03*
X203638000Y-56388000D03*
X189484000Y-90170000D03*
X172466000Y-71882000D03*
X170180000Y-55372000D03*
X204294000Y-39606000D03*
X199200000Y-59118000D03*
X187960000Y-83566000D03*
%TO.N,+5V*%
X170180000Y-49530000D03*
X172974000Y-50546000D03*
X166624000Y-44374500D03*
%TO.N,SWDIO*%
X178308000Y-60960000D03*
X196800000Y-69342000D03*
%TO.N,SWCLK*%
X177800000Y-59690000D03*
X198882000Y-70358000D03*
%TO.N,SWO*%
X176022000Y-60452000D03*
X183388000Y-62992000D03*
%TO.N,NRST*%
X175514000Y-63246000D03*
X196342000Y-74422000D03*
%TO.N,USB_CONN_D+*%
X170942000Y-41747500D03*
X168148000Y-45720000D03*
%TO.N,KEY_ROW_2*%
X171442000Y-74100000D03*
%TO.N,KEY_ROW_3*%
X169742000Y-74800000D03*
%TO.N,KEY_ROW_4*%
X173542000Y-75500000D03*
%TD*%
D56*
%TO.N,KEY_ROW_1*%
X153380000Y-44380000D02*
X150740000Y-44380000D01*
X154000000Y-45000000D02*
X153380000Y-44380000D01*
X164879000Y-72879000D02*
X164000000Y-72000000D01*
X172629000Y-72879000D02*
X164879000Y-72879000D01*
%TO.N,KEY_COL_1*%
X100000000Y-59500000D02*
X97650000Y-59500000D01*
X162484000Y-63984000D02*
X159000000Y-60500000D01*
X163326000Y-63984000D02*
X162484000Y-63984000D01*
%TO.N,KEY_COL_2*%
X161901600Y-64401600D02*
X159000000Y-61500000D01*
X167965882Y-63650000D02*
X167214282Y-64401600D01*
X168110915Y-63650000D02*
X167965882Y-63650000D01*
X168410915Y-63350000D02*
X168110915Y-63650000D01*
X169367000Y-63350000D02*
X168410915Y-63350000D01*
X167214282Y-64401600D02*
X161901600Y-64401600D01*
X119000000Y-59500000D02*
X116650000Y-59500000D01*
D57*
%TO.N,KEY_COL_3*%
X139000000Y-60500000D02*
X139500000Y-61000000D01*
X136650000Y-60500000D02*
X139000000Y-60500000D01*
D56*
X161301600Y-64801600D02*
X159000000Y-62500000D01*
X163376315Y-64801600D02*
X161301600Y-64801600D01*
%TO.N,KEY_COL_4*%
X160851600Y-65201600D02*
X156150000Y-60500000D01*
X168297254Y-64450000D02*
X167545654Y-65201600D01*
X168461670Y-64450000D02*
X168297254Y-64450000D01*
X167545654Y-65201600D02*
X160851600Y-65201600D01*
X168561670Y-64350000D02*
X168461670Y-64450000D01*
X169367000Y-64350000D02*
X168561670Y-64350000D01*
D57*
X156150000Y-41850000D02*
X155300000Y-41000000D01*
X156150000Y-60500000D02*
X156150000Y-41850000D01*
X156150000Y-80500000D02*
X156150000Y-60500000D01*
X156150000Y-100000000D02*
X156150000Y-80500000D01*
%TO.N,KEY_COL_3*%
X136650000Y-80500000D02*
X136650000Y-100500000D01*
X136650000Y-60500000D02*
X136650000Y-80500000D01*
X136650000Y-40500000D02*
X136650000Y-60500000D01*
%TO.N,KEY_COL_2*%
X116650000Y-59500000D02*
X116650000Y-40500000D01*
X116650000Y-79500000D02*
X116650000Y-59500000D01*
X116650000Y-99500000D02*
X116650000Y-79500000D01*
%TO.N,KEY_COL_1*%
X97150000Y-79650000D02*
X97150000Y-99500000D01*
X97300000Y-79500000D02*
X97150000Y-79650000D01*
X97650000Y-79150000D02*
X97300000Y-79500000D01*
X97650000Y-59500000D02*
X97650000Y-79150000D01*
X97650000Y-41350000D02*
X97300000Y-41000000D01*
X97650000Y-59500000D02*
X97650000Y-41350000D01*
%TO.N,Net-(D16-A)*%
X85810000Y-105190000D02*
X85810000Y-107000000D01*
X91500000Y-99500000D02*
X85810000Y-105190000D01*
X93850000Y-99500000D02*
X91500000Y-99500000D01*
%TO.N,Net-(D12-A)*%
X85810000Y-85581666D02*
X85810000Y-86973332D01*
X91891666Y-79500000D02*
X85810000Y-85581666D01*
X94000000Y-79500000D02*
X91891666Y-79500000D01*
%TO.N,Net-(D8-A)*%
X91500000Y-59500000D02*
X94350000Y-59500000D01*
X85810000Y-65190000D02*
X91500000Y-59500000D01*
X85810000Y-66946666D02*
X85810000Y-65190000D01*
D56*
%TO.N,KEY_ROW_1*%
X172828000Y-69903000D02*
X172828000Y-68811000D01*
X173137000Y-70212000D02*
X172828000Y-69903000D01*
X173137000Y-72371000D02*
X173137000Y-70212000D01*
X172629000Y-72879000D02*
X173137000Y-72371000D01*
X172828000Y-68811000D02*
X172792000Y-68775000D01*
D57*
%TO.N,Net-(D7-A)*%
X144390000Y-46920000D02*
X150310000Y-41000000D01*
X150310000Y-41000000D02*
X152000000Y-41000000D01*
%TO.N,Net-(D11-A)*%
X150836666Y-60500000D02*
X152850000Y-60500000D01*
X144390000Y-66946666D02*
X150836666Y-60500000D01*
%TO.N,Net-(D15-A)*%
X144390000Y-86973332D02*
X150863332Y-80500000D01*
X150863332Y-80500000D02*
X152850000Y-80500000D01*
%TO.N,Net-(D19-A)*%
X151390000Y-100000000D02*
X152850000Y-100000000D01*
X144390000Y-107000000D02*
X151390000Y-100000000D01*
%TO.N,Net-(D18-A)*%
X131363332Y-100500000D02*
X133350000Y-100500000D01*
X124863332Y-107000000D02*
X131363332Y-100500000D01*
%TO.N,Net-(D14-A)*%
X131336664Y-80500000D02*
X133350000Y-80500000D01*
X124863332Y-86973332D02*
X131336664Y-80500000D01*
%TO.N,Net-(D10-A)*%
X131309998Y-60500000D02*
X133350000Y-60500000D01*
X124863332Y-66946666D02*
X131309998Y-60500000D01*
%TO.N,Net-(D6-A)*%
X131283332Y-40500000D02*
X133350000Y-40500000D01*
X124863332Y-46920000D02*
X131283332Y-40500000D01*
%TO.N,Net-(D5-A)*%
X106930000Y-46920000D02*
X113350000Y-40500000D01*
X105336666Y-46920000D02*
X106930000Y-46920000D01*
%TO.N,Net-(D9-A)*%
X112783332Y-59500000D02*
X113350000Y-59500000D01*
X105336666Y-66946666D02*
X112783332Y-59500000D01*
%TO.N,Net-(D13-A)*%
X112809998Y-79500000D02*
X113350000Y-79500000D01*
X105336666Y-86973332D02*
X112809998Y-79500000D01*
%TO.N,Net-(D17-A)*%
X112836666Y-99500000D02*
X113350000Y-99500000D01*
X105336666Y-107000000D02*
X112836666Y-99500000D01*
%TO.N,Net-(D4-A)*%
X91730000Y-41000000D02*
X94000000Y-41000000D01*
X85810000Y-46920000D02*
X91730000Y-41000000D01*
D56*
%TO.N,SWDIO*%
X196800000Y-69342000D02*
X200660000Y-69342000D01*
%TO.N,I2C_1_SDA*%
X205791000Y-38531000D02*
X205760000Y-38500000D01*
X207700000Y-38531000D02*
X205791000Y-38531000D01*
X204698000Y-37438000D02*
X205760000Y-38500000D01*
X202100000Y-38118105D02*
X202780105Y-37438000D01*
X201592314Y-39562000D02*
X202100000Y-39054314D01*
X198272314Y-39562000D02*
X201592314Y-39562000D01*
X202100000Y-39054314D02*
X202100000Y-38118105D01*
X202780105Y-37438000D02*
X204698000Y-37438000D01*
X196000000Y-41100000D02*
X196734314Y-41100000D01*
X196734314Y-41100000D02*
X198272314Y-39562000D01*
X194100000Y-43000000D02*
X196000000Y-41100000D01*
%TO.N,I2C_1_SCL*%
X201758000Y-39962000D02*
X203220000Y-38500000D01*
X198438000Y-39962000D02*
X201758000Y-39962000D01*
X195400000Y-43000000D02*
X198438000Y-39962000D01*
X176711670Y-54200000D02*
X176900000Y-54200000D01*
X174292000Y-57425000D02*
X174292000Y-56619670D01*
X174292000Y-56619670D02*
X176711670Y-54200000D01*
%TO.N,I2C_1_SDA*%
X173792000Y-55808000D02*
X176200000Y-53400000D01*
X173792000Y-57425000D02*
X173792000Y-55808000D01*
%TO.N,I2C_1_SCL*%
X203220000Y-40580000D02*
X203220000Y-38500000D01*
X203200000Y-40600000D02*
X203220000Y-40580000D01*
%TO.N,Net-(U2-PA11)*%
X186574138Y-62150862D02*
X187600000Y-61125000D01*
X180717000Y-61350000D02*
X184395785Y-61350000D01*
X184395785Y-61350000D02*
X185196647Y-62150862D01*
X185196647Y-62150862D02*
X186574138Y-62150862D01*
%TO.N,Net-(U2-PA12)*%
X184461471Y-60850000D02*
X180717000Y-60850000D01*
X184736471Y-61125000D02*
X184461471Y-60850000D01*
X186000000Y-61125000D02*
X184736471Y-61125000D01*
%TO.N,USB_D-*%
X186272103Y-58147103D02*
X187600000Y-59475000D01*
X186124000Y-58147103D02*
X186272103Y-58147103D01*
%TO.N,USB_D+*%
X185674000Y-59149000D02*
X186000000Y-59475000D01*
X185674000Y-58333471D02*
X185674000Y-59149000D01*
X182215800Y-56550000D02*
X183890529Y-56550000D01*
X172222103Y-51279000D02*
X173251083Y-52307980D01*
X183890529Y-56550000D02*
X185674000Y-58333471D01*
X170318314Y-51279000D02*
X172222103Y-51279000D01*
X177973780Y-52307980D02*
X182215800Y-56550000D01*
X169232500Y-50193186D02*
X170318314Y-51279000D01*
X173251083Y-52307980D02*
X177973780Y-52307980D01*
X169232500Y-47881500D02*
X169232500Y-50193186D01*
%TO.N,USB_D-*%
X184076917Y-56100020D02*
X186124000Y-58147103D01*
X173437471Y-51858000D02*
X178160200Y-51858000D01*
X178160200Y-51858000D02*
X182402220Y-56100020D01*
X171704000Y-50829000D02*
X172408471Y-50829000D01*
X171132500Y-50257500D02*
X171704000Y-50829000D01*
X172408471Y-50829000D02*
X173437471Y-51858000D01*
X171132500Y-47881500D02*
X171132500Y-50257500D01*
X182402220Y-56100020D02*
X184076917Y-56100020D01*
%TO.N,GND*%
X178273000Y-71835000D02*
X177455000Y-71835000D01*
X178499000Y-70847000D02*
X178499000Y-71609000D01*
X178499000Y-71609000D02*
X178273000Y-71835000D01*
D57*
%TO.N,+3V3*%
X209117000Y-45575000D02*
X207800000Y-45575000D01*
%TO.N,GND*%
X209226000Y-51326000D02*
X209100000Y-51200000D01*
X209226000Y-52070000D02*
X209226000Y-51326000D01*
X209226000Y-51074000D02*
X209100000Y-51200000D01*
X209226000Y-50038000D02*
X209226000Y-51074000D01*
X210100000Y-51200000D02*
X209150000Y-51200000D01*
X210200000Y-51100000D02*
X210100000Y-51200000D01*
%TO.N,Net-(R3-Pad2)*%
X207450000Y-49970000D02*
X207300000Y-49820000D01*
X207450000Y-51200000D02*
X207450000Y-49970000D01*
%TO.N,+3V3*%
X199200000Y-59118000D02*
X199200000Y-57825000D01*
%TO.N,BUCK_IN*%
X199737500Y-43800000D02*
X199537500Y-43600000D01*
X202637500Y-43800000D02*
X199737500Y-43800000D01*
%TO.N,BUCK_SW*%
X200500000Y-48925000D02*
X201900000Y-47525000D01*
X200475000Y-52575000D02*
X200475000Y-51225000D01*
X200500000Y-51200000D02*
X200500000Y-48925000D01*
X198900000Y-54150000D02*
X200475000Y-52575000D01*
X200475000Y-51225000D02*
X200500000Y-51200000D01*
X203187500Y-47525000D02*
X203650000Y-47062500D01*
X201900000Y-47525000D02*
X203187500Y-47525000D01*
%TO.N,BUCK_BST*%
X201900000Y-49075000D02*
X203387500Y-49075000D01*
X203387500Y-49075000D02*
X203650000Y-49337500D01*
%TO.N,BUCK_SW*%
X199200000Y-54450000D02*
X198900000Y-54150000D01*
X199200000Y-56175000D02*
X199200000Y-54450000D01*
%TO.N,GND*%
X199300000Y-50450000D02*
X198900000Y-50850000D01*
X199300000Y-48850000D02*
X199300000Y-50450000D01*
D56*
%TO.N,+3V3*%
X163960000Y-66040000D02*
X163100000Y-66900000D01*
X164500000Y-66040000D02*
X163960000Y-66040000D01*
%TO.N,GND*%
X165857000Y-66068000D02*
X165800000Y-66125000D01*
X167132000Y-66068000D02*
X165857000Y-66068000D01*
%TO.N,+3.3VA*%
X166447000Y-67028000D02*
X165800000Y-67675000D01*
X167132000Y-67028000D02*
X166447000Y-67028000D01*
X165135000Y-67010000D02*
X165800000Y-67675000D01*
X164500000Y-67010000D02*
X165135000Y-67010000D01*
X164043471Y-67010000D02*
X164500000Y-67010000D01*
D57*
%TO.N,+5V*%
X167350500Y-44374500D02*
X167500000Y-44225000D01*
X166624000Y-44374500D02*
X167350500Y-44374500D01*
X167500000Y-44225000D02*
X167500000Y-43100000D01*
D56*
%TO.N,GND*%
X188095000Y-87525000D02*
X188095000Y-86495000D01*
D57*
X170750972Y-46736000D02*
X173233000Y-46736000D01*
X170182500Y-46167528D02*
X170750972Y-46736000D01*
D56*
X166700000Y-43100000D02*
X165858000Y-43942000D01*
X164846000Y-43942000D02*
X164338000Y-44450000D01*
X165354000Y-58674000D02*
X165328000Y-58700000D01*
X174503000Y-48006000D02*
X175514000Y-48006000D01*
X168269000Y-57525000D02*
X167640000Y-56896000D01*
X171116000Y-64850000D02*
X171196000Y-64770000D01*
X170288000Y-70974000D02*
X170180000Y-70866000D01*
X165072000Y-57912000D02*
X165100000Y-57912000D01*
D57*
X197612000Y-47162000D02*
X197612000Y-46736000D01*
D56*
X165072000Y-57912000D02*
X165072000Y-56416000D01*
D57*
X199300000Y-48850000D02*
X197612000Y-47162000D01*
D56*
X165072000Y-56416000D02*
X165100000Y-56388000D01*
D57*
X203200000Y-53450000D02*
X203200000Y-52000000D01*
D56*
X176831000Y-71835000D02*
X176530000Y-72136000D01*
X167244939Y-66068000D02*
X168462939Y-64850000D01*
X173788000Y-43688000D02*
X176022000Y-43688000D01*
X182408000Y-58020000D02*
X182408000Y-57186000D01*
X163520170Y-69222000D02*
X163520170Y-68381830D01*
D57*
X203200000Y-52000000D02*
X203384000Y-51816000D01*
X166596500Y-48795500D02*
X166370000Y-49022000D01*
D56*
X163778000Y-61546000D02*
X162130000Y-61546000D01*
X184950000Y-50200000D02*
X183804000Y-50200000D01*
D57*
X208124000Y-44110000D02*
X208210000Y-44196000D01*
D56*
X164084000Y-62992000D02*
X163778000Y-62686000D01*
X168269000Y-57684000D02*
X168269000Y-57525000D01*
D57*
X166596500Y-47211500D02*
X166596500Y-48795500D01*
X204600000Y-49337500D02*
X204600000Y-50346000D01*
D56*
X183678000Y-58048000D02*
X183678000Y-57186000D01*
X184042000Y-60000000D02*
X184460000Y-60000000D01*
X177455000Y-71835000D02*
X176831000Y-71835000D01*
X169367000Y-64850000D02*
X171116000Y-64850000D01*
X171792000Y-68775000D02*
X171792000Y-70470000D01*
D57*
X205400000Y-52308000D02*
X205162000Y-52070000D01*
D56*
X171792000Y-58762000D02*
X172466000Y-59436000D01*
X183804000Y-50200000D02*
X182626000Y-49022000D01*
X171792000Y-55908000D02*
X172220000Y-55480000D01*
X163778000Y-62686000D02*
X163778000Y-61546000D01*
X173708500Y-47211500D02*
X174503000Y-48006000D01*
X173200000Y-43100000D02*
X173788000Y-43688000D01*
X182408000Y-57186000D02*
X182372000Y-57150000D01*
D57*
X204600000Y-50346000D02*
X204400000Y-50546000D01*
D56*
X188095000Y-86495000D02*
X187452000Y-85852000D01*
X192345000Y-95504000D02*
X193548000Y-95504000D01*
D57*
X170182500Y-45606500D02*
X170182500Y-46167528D01*
D56*
X191905000Y-92475000D02*
X191905000Y-94712000D01*
D57*
X199128000Y-49022000D02*
X199300000Y-48850000D01*
X191905000Y-86479000D02*
X193040000Y-85344000D01*
D56*
X165858000Y-43942000D02*
X164846000Y-43942000D01*
X165328000Y-58700000D02*
X165328000Y-59396000D01*
X163520170Y-68381830D02*
X163576000Y-68326000D01*
D57*
X205400000Y-53450000D02*
X205400000Y-52308000D01*
X207300000Y-44110000D02*
X208124000Y-44110000D01*
D56*
X164338000Y-44450000D02*
X163830000Y-44450000D01*
X162130000Y-61546000D02*
X161544000Y-60960000D01*
D57*
X191905000Y-87525000D02*
X191905000Y-86479000D01*
D56*
X191905000Y-94712000D02*
X191729000Y-94888000D01*
X165100000Y-57912000D02*
X165354000Y-58166000D01*
X168462939Y-64850000D02*
X169367000Y-64850000D01*
X191729000Y-94888000D02*
X192345000Y-95504000D01*
X171288000Y-70974000D02*
X170288000Y-70974000D01*
X171792000Y-70470000D02*
X171288000Y-70974000D01*
D57*
X198120000Y-49022000D02*
X199128000Y-49022000D01*
D56*
X165354000Y-58166000D02*
X165354000Y-58674000D01*
X171792000Y-57425000D02*
X171792000Y-58762000D01*
X187858000Y-95368000D02*
X187588000Y-95368000D01*
X183678000Y-57186000D02*
X183642000Y-57150000D01*
X187588000Y-95368000D02*
X186690000Y-96266000D01*
X164112000Y-62992000D02*
X164084000Y-62992000D01*
X184460000Y-60000000D02*
X184912000Y-60452000D01*
X171792000Y-57425000D02*
X171792000Y-55908000D01*
D57*
X173233000Y-46736000D02*
X173708500Y-47211500D01*
D56*
%TO.N,+3V3*%
X189636000Y-84430000D02*
X190246000Y-83820000D01*
D57*
X204294000Y-40526000D02*
X204220000Y-40600000D01*
D56*
X188095000Y-94171000D02*
X187858000Y-94408000D01*
D57*
X197358000Y-57912000D02*
X199113000Y-57912000D01*
X207700000Y-39551000D02*
X207700000Y-40449000D01*
D56*
X171260000Y-57393000D02*
X171292000Y-57425000D01*
D57*
X203200000Y-55350000D02*
X203200000Y-55600000D01*
D56*
X172248000Y-71664000D02*
X172466000Y-71882000D01*
D57*
X203638000Y-55788000D02*
X203200000Y-55350000D01*
X204908000Y-55842000D02*
X205400000Y-55350000D01*
D56*
X169129000Y-58965000D02*
X169129000Y-57784000D01*
X170288000Y-55480000D02*
X170180000Y-55372000D01*
X179459000Y-70847000D02*
X180105000Y-70847000D01*
X180717000Y-59350000D02*
X182038000Y-59350000D01*
X184832000Y-59008000D02*
X184912000Y-58928000D01*
X169367000Y-59203000D02*
X169129000Y-58965000D01*
X179487000Y-70593000D02*
X179487000Y-69470000D01*
X188366000Y-84545000D02*
X188366000Y-83972000D01*
X171260000Y-55480000D02*
X171260000Y-57393000D01*
X183650000Y-58980000D02*
X183678000Y-59008000D01*
D57*
X205288000Y-40600000D02*
X205310000Y-40622000D01*
X220446600Y-66974200D02*
X218104200Y-66974200D01*
D56*
X188095000Y-92475000D02*
X189365000Y-92475000D01*
X169229000Y-57684000D02*
X169229000Y-56961000D01*
X188095000Y-92475000D02*
X188095000Y-94171000D01*
X182038000Y-59350000D02*
X182408000Y-58980000D01*
D57*
X208536000Y-39507000D02*
X207744000Y-39507000D01*
D56*
X172248000Y-70974000D02*
X172248000Y-71664000D01*
X172248000Y-70974000D02*
X172292000Y-70930000D01*
X189636000Y-84545000D02*
X189636000Y-84430000D01*
D57*
X204294000Y-39606000D02*
X204294000Y-40526000D01*
X205400000Y-55610000D02*
X206432000Y-56642000D01*
D56*
X183678000Y-59008000D02*
X184832000Y-59008000D01*
X169129000Y-57784000D02*
X169229000Y-57684000D01*
X171260000Y-55480000D02*
X170288000Y-55480000D01*
X188366000Y-83972000D02*
X187960000Y-83566000D01*
D57*
X204220000Y-40600000D02*
X205288000Y-40600000D01*
D56*
X172292000Y-70930000D02*
X172292000Y-68775000D01*
X179487000Y-69470000D02*
X178792000Y-68775000D01*
X180105000Y-70847000D02*
X180340000Y-70612000D01*
D57*
X218104200Y-66974200D02*
X217170000Y-66040000D01*
X207700000Y-40449000D02*
X207774000Y-40523000D01*
D56*
X189365000Y-90289000D02*
X189484000Y-90170000D01*
D57*
X203638000Y-56388000D02*
X203638000Y-55788000D01*
D56*
X169229000Y-56961000D02*
X168910000Y-56642000D01*
D57*
X204908000Y-56388000D02*
X204908000Y-55842000D01*
X207744000Y-39507000D02*
X207700000Y-39551000D01*
X205400000Y-55350000D02*
X205400000Y-55610000D01*
D56*
X182408000Y-58980000D02*
X183650000Y-58980000D01*
X189365000Y-92475000D02*
X189365000Y-90289000D01*
X169367000Y-59350000D02*
X169367000Y-59203000D01*
D57*
%TO.N,BUCK_IN*%
X199537500Y-43600000D02*
X199537500Y-46712500D01*
D58*
X199537500Y-46712500D02*
X199300000Y-46950000D01*
D57*
X204600000Y-45762500D02*
X204600000Y-47062500D01*
X202637500Y-43800000D02*
X204600000Y-45762500D01*
D56*
%TO.N,+3.3VA*%
X169367000Y-65350000D02*
X168561670Y-65350000D01*
X167738984Y-67028000D02*
X167132000Y-67028000D01*
X162560000Y-84328000D02*
X163830000Y-85598000D01*
X167894000Y-66872984D02*
X167738984Y-67028000D01*
X164043471Y-67010000D02*
X162560000Y-68493471D01*
X162560000Y-68493471D02*
X162560000Y-84328000D01*
X167894000Y-66017670D02*
X167894000Y-66872984D01*
X168561670Y-65350000D02*
X167894000Y-66017670D01*
%TO.N,Net-(U2-VCAP_1)*%
X177455000Y-70875000D02*
X178292000Y-70038000D01*
X178292000Y-70038000D02*
X178292000Y-68775000D01*
%TO.N,Net-(U2-VCAP_2)*%
X180717000Y-59850000D02*
X182932000Y-59850000D01*
X182932000Y-59850000D02*
X183082000Y-60000000D01*
%TO.N,HSE_IN*%
X163778000Y-59396000D02*
X163778000Y-58246000D01*
X163778000Y-58246000D02*
X164112000Y-57912000D01*
X167307183Y-60452000D02*
X168205183Y-61350000D01*
X163778000Y-59396000D02*
X164834000Y-60452000D01*
X168205183Y-61350000D02*
X169367000Y-61350000D01*
X164834000Y-60452000D02*
X167307183Y-60452000D01*
%TO.N,Net-(C16-Pad2)*%
X165504000Y-61722000D02*
X165328000Y-61546000D01*
X165328000Y-61546000D02*
X165328000Y-62736000D01*
X165328000Y-62736000D02*
X165072000Y-62992000D01*
X166622000Y-61722000D02*
X165504000Y-61722000D01*
%TO.N,Net-(U4-OUT)*%
X190635000Y-94082000D02*
X189829000Y-94888000D01*
X190635000Y-92475000D02*
X190635000Y-94082000D01*
D58*
%TO.N,Net-(D1-K)*%
X189312500Y-50200000D02*
X189612500Y-50500000D01*
D57*
X186850000Y-52300000D02*
X186500000Y-52650000D01*
X186850000Y-50200000D02*
X189312500Y-50200000D01*
X186850000Y-50200000D02*
X186850000Y-52300000D01*
%TO.N,+5V*%
X184150000Y-53600000D02*
X186500000Y-55950000D01*
X174299449Y-44275000D02*
X172450000Y-44275000D01*
X184150000Y-52070000D02*
X184150000Y-53600000D01*
X215488800Y-59932000D02*
X220446600Y-54974200D01*
X176070028Y-51308000D02*
X176264000Y-51114028D01*
X176070028Y-51308000D02*
X173736000Y-51308000D01*
X172400000Y-44225000D02*
X172400000Y-43100000D01*
X170180000Y-47884000D02*
X170182500Y-47881500D01*
X176264000Y-51114028D02*
X176264000Y-46239551D01*
X170180000Y-49530000D02*
X170180000Y-47884000D01*
X172450000Y-44275000D02*
X172400000Y-44225000D01*
X176070028Y-51308000D02*
X183388000Y-51308000D01*
X190482000Y-59932000D02*
X215488800Y-59932000D01*
X173736000Y-51308000D02*
X172974000Y-50546000D01*
X176264000Y-46239551D02*
X174299449Y-44275000D01*
X183388000Y-51308000D02*
X184150000Y-52070000D01*
X186500000Y-55950000D02*
X190482000Y-59932000D01*
D56*
%TO.N,Net-(D3-K)*%
X164360670Y-70367000D02*
X163645170Y-70367000D01*
X163645170Y-70367000D02*
X163520170Y-70242000D01*
X164995670Y-69732000D02*
X164360670Y-70367000D01*
%TO.N,LED_STATUS*%
X168482670Y-66850000D02*
X166870670Y-68462000D01*
X166870670Y-68462000D02*
X166870670Y-69732000D01*
X169367000Y-66850000D02*
X168482670Y-66850000D01*
%TO.N,KEY_COL_1*%
X167945228Y-63250000D02*
X167714142Y-63250000D01*
X168345229Y-62850000D02*
X167945228Y-63250000D01*
X169367000Y-62850000D02*
X168345229Y-62850000D01*
X167714142Y-63250000D02*
X166980142Y-63984000D01*
X166980142Y-63984000D02*
X163326000Y-63984000D01*
%TO.N,KEY_COL_3*%
X169367000Y-63850000D02*
X168476601Y-63850000D01*
X167379968Y-64801600D02*
X163376315Y-64801600D01*
X168276601Y-64050000D02*
X168131568Y-64050000D01*
X168476601Y-63850000D02*
X168276601Y-64050000D01*
X168131568Y-64050000D02*
X167379968Y-64801600D01*
D57*
%TO.N,+12V*%
X184568000Y-46900000D02*
X185887500Y-46900000D01*
X185900000Y-46900000D02*
X185900000Y-48325000D01*
X181356000Y-43688000D02*
X184568000Y-46900000D01*
D56*
%TO.N,SPI2_MOSI*%
X179911670Y-65350000D02*
X180717000Y-65350000D01*
X179642000Y-67080330D02*
X179642000Y-65619670D01*
X194850000Y-77871372D02*
X184278628Y-67300000D01*
X184278628Y-67300000D02*
X179861670Y-67300000D01*
X194850000Y-119952000D02*
X194850000Y-77871372D01*
X179861670Y-67300000D02*
X179642000Y-67080330D01*
X179642000Y-65619670D02*
X179911670Y-65350000D01*
%TO.N,SPI2_MISO*%
X180717000Y-65850000D02*
X183960000Y-65850000D01*
X195650000Y-77540001D02*
X195650000Y-118212000D01*
X195650000Y-118212000D02*
X197390000Y-119952000D01*
X183960000Y-65850000D02*
X195650000Y-77540001D01*
%TO.N,SPI2_SCK*%
X181522330Y-66350000D02*
X180717000Y-66350000D01*
X199930000Y-119952000D02*
X198780000Y-121102000D01*
X198780000Y-121102000D02*
X196913654Y-121102000D01*
X195250000Y-77705686D02*
X183838314Y-66294000D01*
X181578330Y-66294000D02*
X181522330Y-66350000D01*
X196913654Y-121102000D02*
X196000000Y-120188346D01*
X196000000Y-120188346D02*
X196000000Y-119475654D01*
X183838314Y-66294000D02*
X181578330Y-66294000D01*
X195250000Y-118725654D02*
X195250000Y-77705686D01*
X196000000Y-119475654D02*
X195250000Y-118725654D01*
%TO.N,SWDIO*%
X178918000Y-60350000D02*
X178308000Y-60960000D01*
X180717000Y-60350000D02*
X178918000Y-60350000D01*
%TO.N,SWCLK*%
X198882000Y-70358000D02*
X199136000Y-70612000D01*
X199136000Y-70612000D02*
X200660000Y-70612000D01*
X177800000Y-59690000D02*
X178792000Y-58698000D01*
X178792000Y-58698000D02*
X178792000Y-57425000D01*
%TO.N,SWO*%
X176022000Y-60452000D02*
X175792000Y-60222000D01*
X175792000Y-60222000D02*
X175792000Y-57425000D01*
X200660000Y-71882000D02*
X192278000Y-71882000D01*
X192278000Y-71882000D02*
X183388000Y-62992000D01*
%TO.N,NRST*%
X169367000Y-62350000D02*
X174618000Y-62350000D01*
X196342000Y-74422000D02*
X200660000Y-74422000D01*
X174618000Y-62350000D02*
X175514000Y-63246000D01*
%TO.N,Net-(J5-CC1)*%
X172511500Y-45386500D02*
X173708500Y-45386500D01*
X171200000Y-43100000D02*
X171200000Y-44075000D01*
X171200000Y-44075000D02*
X172511500Y-45386500D01*
%TO.N,USB_CONN_D-*%
X169415000Y-41910000D02*
X169985000Y-41910000D01*
X170200000Y-42125000D02*
X170200000Y-43100000D01*
X170200000Y-44450000D02*
X170394000Y-44644000D01*
X170394000Y-44644000D02*
X170882000Y-44644000D01*
X169200000Y-43100000D02*
X169200000Y-42125000D01*
X170200000Y-43100000D02*
X170200000Y-44450000D01*
X169200000Y-42125000D02*
X169415000Y-41910000D01*
X169985000Y-41910000D02*
X170200000Y-42125000D01*
X170882000Y-44644000D02*
X171132500Y-44894500D01*
X171132500Y-44894500D02*
X171132500Y-45606500D01*
%TO.N,USB_CONN_D+*%
X170700000Y-41989500D02*
X170700000Y-43100000D01*
X169700000Y-43100000D02*
X169700000Y-44450000D01*
X168261500Y-45606500D02*
X168148000Y-45720000D01*
X170942000Y-41747500D02*
X170700000Y-41989500D01*
X169700000Y-44450000D02*
X169232500Y-44917500D01*
X169232500Y-45606500D02*
X168261500Y-45606500D01*
X169232500Y-44917500D02*
X169232500Y-45606500D01*
%TO.N,Net-(J5-CC2)*%
X167465500Y-45386500D02*
X166596500Y-45386500D01*
X168200000Y-43100000D02*
X168200000Y-44652000D01*
X168200000Y-44652000D02*
X167465500Y-45386500D01*
D57*
%TO.N,BUCK_FB*%
X207300000Y-48800000D02*
X207300000Y-47900000D01*
X206087500Y-48800000D02*
X207300000Y-48800000D01*
X205550000Y-49337500D02*
X206087500Y-48800000D01*
X207300000Y-47900000D02*
X207800000Y-47400000D01*
%TO.N,BUCK_EN*%
X205550000Y-43812500D02*
X205562500Y-43800000D01*
X206272500Y-43090000D02*
X207300000Y-43090000D01*
X205562500Y-43800000D02*
X206272500Y-43090000D01*
X205550000Y-47062500D02*
X205550000Y-43812500D01*
D56*
%TO.N,Net-(SW1-B)*%
X166400000Y-54000000D02*
X162500000Y-50100000D01*
X171532000Y-54000000D02*
X166400000Y-54000000D01*
%TO.N,BOOT0*%
X173292000Y-54740000D02*
X173292000Y-57425000D01*
X172552000Y-54000000D02*
X173292000Y-54740000D01*
%TO.N,HSE_OUT*%
X167642000Y-61722000D02*
X167770000Y-61850000D01*
X167770000Y-61850000D02*
X169367000Y-61850000D01*
%TO.N,I2C2_SCL*%
X175930000Y-70958000D02*
X177292000Y-69596000D01*
X177292000Y-69596000D02*
X177292000Y-68775000D01*
X189365000Y-87525000D02*
X189365000Y-86564000D01*
X175930000Y-73129000D02*
X175930000Y-70958000D01*
X189365000Y-86564000D02*
X188366000Y-85565000D01*
X188366000Y-85565000D02*
X175930000Y-73129000D01*
%TO.N,I2C2_SDA*%
X178886330Y-67564000D02*
X188986000Y-77663670D01*
X177792000Y-67969670D02*
X178197670Y-67564000D01*
X188986000Y-84915000D02*
X189636000Y-85565000D01*
X190635000Y-86564000D02*
X189636000Y-85565000D01*
X178197670Y-67564000D02*
X178886330Y-67564000D01*
X188986000Y-77663670D02*
X188986000Y-84915000D01*
X177792000Y-68775000D02*
X177792000Y-67969670D01*
X190635000Y-87525000D02*
X190635000Y-86564000D01*
%TO.N,KEY_ROW_2*%
X173537000Y-72590670D02*
X173537000Y-70046315D01*
X173537000Y-70046315D02*
X173292000Y-69801314D01*
X173292000Y-69801314D02*
X173292000Y-68775000D01*
X172027670Y-74100000D02*
X173537000Y-72590670D01*
X171442000Y-74100000D02*
X172027670Y-74100000D01*
%TO.N,KEY_ROW_3*%
X171893356Y-74800000D02*
X173937000Y-72756355D01*
X169742000Y-74800000D02*
X171893356Y-74800000D01*
X173937000Y-72756355D02*
X173937000Y-69775000D01*
X173937000Y-69775000D02*
X173792000Y-69630000D01*
X173792000Y-69630000D02*
X173792000Y-68775000D01*
%TO.N,KEY_ROW_4*%
X174342000Y-72634314D02*
X174342000Y-74700000D01*
X174337000Y-68820000D02*
X174337000Y-72629314D01*
X174292000Y-68775000D02*
X174337000Y-68820000D01*
X174342000Y-74700000D02*
X173542000Y-75500000D01*
X174337000Y-72629314D02*
X174342000Y-72634314D01*
D57*
%TO.N,Net-(F1-Pad1)*%
X196387500Y-46712500D02*
X196387500Y-50500000D01*
X197662500Y-44037500D02*
X197662500Y-45437500D01*
D58*
X197662500Y-43600000D02*
X197662500Y-44037500D01*
D57*
X197662500Y-45437500D02*
X196387500Y-46712500D01*
%TD*%
M02*
