M48
; DRILL file {KiCad 7.0.4-40-g0180cb380f} date Mon Jun 12 22:44:03 2023
; FORMAT={3:3/ absolute / metric / suppress leading zeros}
; #@! TF.CreationDate,2023-06-12T22:44:05+02:00
; #@! TF.GenerationSoftware,Kicad,Pcbnew,7.0.4-40-g0180cb380f
; #@! TF.FileFunction,MixedPlating,1,4
FMAT,2
METRIC,TZ
; #@! TA.AperFunction,Plated,PTH,ViaDrill
T1C0.300
; #@! TA.AperFunction,Plated,PTH,ComponentDrill
T2C0.600
; #@! TA.AperFunction,Plated,PTH,ComponentDrill
T3C0.700
; #@! TA.AperFunction,Plated,PTH,ComponentDrill
T4C0.762
; #@! TA.AperFunction,Plated,PTH,ComponentDrill
T5C1.000
; #@! TA.AperFunction,Plated,PTH,ComponentDrill
T6C1.500
; #@! TA.AperFunction,Plated,PTH,ComponentDrill
T7C2.000
; #@! TA.AperFunction,Plated,PTH,ComponentDrill
T8C2.720
; #@! TA.AperFunction,Plated,PTH,ComponentDrill
T9C3.200
; #@! TA.AperFunction,NonPlated,NPTH,ComponentDrill
T10C0.650
; #@! TA.AperFunction,NonPlated,NPTH,ComponentDrill
T11C1.700
; #@! TA.AperFunction,NonPlated,NPTH,ComponentDrill
T12C4.000
%
G90
G05
T1
X100000Y-59500
X119000Y-59500
X139500Y-61000
X154000Y-45000
X159000Y-60500
X159000Y-61500
X159000Y-62500
X161544Y-60960
X163100Y-66900
X163576Y-68326
X163830Y-44450
X164000Y-72000
X165100Y-56388
X166370Y-49022
X166624Y-44375
X167640Y-56896
X168148Y-45720
X168910Y-56642
X169742Y-74800
X170180Y-49530
X170180Y-55372
X170180Y-70866
X170942Y-41748
X171196Y-64770
X171442Y-74100
X172466Y-59436
X172466Y-71882
X172974Y-50546
X173542Y-75500
X175514Y-48006
X175514Y-63246
X176022Y-43688
X176022Y-60452
X176200Y-53400
X176530Y-72136
X176900Y-54200
X177800Y-59690
X178308Y-60960
X180340Y-70612
X182372Y-57150
X182626Y-49022
X183388Y-62992
X183642Y-57150
X184912Y-58928
X184912Y-60452
X186690Y-96266
X187452Y-85852
X187960Y-83566
X189484Y-90170
X190246Y-83820
X193040Y-85344
X193548Y-95504
X194100Y-43000
X195400Y-43000
X196342Y-74422
X196800Y-69342
X197358Y-57912
X197612Y-46736
X198120Y-49022
X198882Y-70358
X199200Y-59118
X203384Y-51816
X203638Y-56388
X204294Y-39606
X204400Y-50546
X204908Y-56388
X205162Y-52070
X205310Y-40622
X206432Y-56642
X207774Y-40523
X208210Y-44196
X208536Y-39507
X209117Y-45575
X209226Y-50038
X209226Y-52070
X210200Y-51100
X217170Y-66040
T3
X200660Y-69342
X200660Y-70612
X200660Y-71882
X200660Y-73152
X200660Y-74422
X201930Y-69342
X201930Y-70612
X201930Y-71882
X201930Y-73152
X201930Y-74422
T4
X198140Y-38500
X200680Y-38500
X203220Y-38500
X205760Y-38500
T5
X162500Y-47560
X162500Y-50100
X162500Y-52640
X181356Y-43688
X183896Y-43688
X192310Y-119952
X194850Y-119952
X197390Y-119952
X199930Y-119952
X202470Y-119952
T6
X85810Y-46920
X85810Y-66947
X85810Y-86973
X85810Y-107000
X92160Y-44380
X92160Y-64407
X92160Y-84433
X92160Y-104460
X105337Y-46920
X105337Y-66947
X105337Y-86973
X105337Y-107000
X111687Y-44380
X111687Y-64407
X111687Y-84433
X111687Y-104460
X124863Y-46920
X124863Y-66947
X124863Y-86973
X124863Y-107000
X131213Y-44380
X131213Y-64407
X131213Y-84433
X131213Y-104460
X144390Y-46920
X144390Y-66947
X144390Y-86973
X144390Y-107000
X150740Y-44380
X150740Y-64407
X150740Y-84433
X150740Y-104460
T7
X163830Y-85598
X220447Y-48974
X220447Y-54974
X220447Y-66974
X220447Y-72974
T8
X191300Y-39300
X191300Y-62800
X212600Y-39200
X212600Y-62700
T9
X80000Y-40000
X80000Y-120000
X160000Y-40000
X160000Y-120000
X220000Y-40000
X220000Y-120000
T10
X167060Y-41655
X172840Y-41655
T11
X84540Y-49460
X84540Y-69487
X84540Y-89513
X84540Y-109540
X94700Y-49460
X94700Y-69487
X94700Y-89513
X94700Y-109540
X104067Y-49460
X104067Y-69487
X104067Y-89513
X104067Y-109540
X114227Y-49460
X114227Y-69487
X114227Y-89513
X114227Y-109540
X123593Y-49460
X123593Y-69487
X123593Y-89513
X123593Y-109540
X133753Y-49460
X133753Y-69487
X133753Y-89513
X133753Y-109540
X143120Y-49460
X143120Y-69487
X143120Y-89513
X143120Y-109540
X153280Y-49460
X153280Y-69487
X153280Y-89513
X153280Y-109540
T12
X89620Y-49460
X89620Y-69487
X89620Y-89513
X89620Y-109540
X109147Y-49460
X109147Y-69487
X109147Y-89513
X109147Y-109540
X128673Y-49460
X128673Y-69487
X128673Y-89513
X128673Y-109540
X148200Y-49460
X148200Y-69487
X148200Y-89513
X148200Y-109540
T2
G00X165630Y-38305
M15
G01X165630Y-37705
M16
G05
G00X165630Y-42735
M15
G01X165630Y-41635
M16
G05
G00X174270Y-38305
M15
G01X174270Y-37705
M16
G05
G00X174270Y-42735
M15
G01X174270Y-41635
M16
G05
T0
M30
