%TF.GenerationSoftware,KiCad,Pcbnew,7.0.4-40-g0180cb380f*%
%TF.CreationDate,2023-06-12T22:45:27+02:00*%
%TF.ProjectId,New Business Card,4e657720-4275-4736-996e-657373204361,rev?*%
%TF.SameCoordinates,Original*%
%TF.FileFunction,Copper,L4,Bot*%
%TF.FilePolarity,Positive*%
%FSLAX46Y46*%
G04 Gerber Fmt 4.6, Leading zero omitted, Abs format (unit mm)*
G04 Created by KiCad (PCBNEW 7.0.4-40-g0180cb380f) date 2023-06-12 22:45:27*
%MOMM*%
%LPD*%
G01*
G04 APERTURE LIST*
%TA.AperFunction,ComponentPad*%
%ADD10C,2.200000*%
%TD*%
%TA.AperFunction,ComponentPad*%
%ADD11C,1.524000*%
%TD*%
%TA.AperFunction,CastellatedPad*%
%ADD12C,3.500000*%
%TD*%
%TA.AperFunction,ComponentPad*%
%ADD13R,1.524000X1.524000*%
%TD*%
%TA.AperFunction,ComponentPad*%
%ADD14C,3.000000*%
%TD*%
%TA.AperFunction,ComponentPad*%
%ADD15R,1.700000X1.700000*%
%TD*%
%TA.AperFunction,ComponentPad*%
%ADD16O,1.700000X1.700000*%
%TD*%
%TA.AperFunction,ComponentPad*%
%ADD17C,5.600000*%
%TD*%
%TA.AperFunction,ComponentPad*%
%ADD18R,1.000000X1.000000*%
%TD*%
%TA.AperFunction,ComponentPad*%
%ADD19O,1.000000X1.000000*%
%TD*%
%TA.AperFunction,ComponentPad*%
%ADD20O,1.000000X2.100000*%
%TD*%
%TA.AperFunction,ComponentPad*%
%ADD21O,1.000000X1.600000*%
%TD*%
%TA.AperFunction,ViaPad*%
%ADD22C,0.600000*%
%TD*%
%TA.AperFunction,Conductor*%
%ADD23C,0.200000*%
%TD*%
%TA.AperFunction,Conductor*%
%ADD24C,0.500000*%
%TD*%
G04 APERTURE END LIST*
D10*
%TO.P,SW17,1,1*%
%TO.N,KEY_ROW_4*%
X150740000Y-104460000D03*
%TO.P,SW17,2,2*%
%TO.N,Net-(D19-A)*%
X144390000Y-107000000D03*
%TD*%
%TO.P,SW16,1,1*%
%TO.N,KEY_ROW_4*%
X131213332Y-104460000D03*
%TO.P,SW16,2,2*%
%TO.N,Net-(D18-A)*%
X124863332Y-107000000D03*
%TD*%
%TO.P,SW15,2,2*%
%TO.N,Net-(D17-A)*%
X105336666Y-107000000D03*
%TO.P,SW15,1,1*%
%TO.N,KEY_ROW_4*%
X111686666Y-104460000D03*
%TD*%
%TO.P,SW14,1,1*%
%TO.N,KEY_ROW_4*%
X92160000Y-104460000D03*
%TO.P,SW14,2,2*%
%TO.N,Net-(D16-A)*%
X85810000Y-107000000D03*
%TD*%
%TO.P,SW13,1,1*%
%TO.N,KEY_ROW_3*%
X150740000Y-84433332D03*
%TO.P,SW13,2,2*%
%TO.N,Net-(D15-A)*%
X144390000Y-86973332D03*
%TD*%
%TO.P,SW12,2,2*%
%TO.N,Net-(D14-A)*%
X124863332Y-86973332D03*
%TO.P,SW12,1,1*%
%TO.N,KEY_ROW_3*%
X131213332Y-84433332D03*
%TD*%
%TO.P,SW11,1,1*%
%TO.N,KEY_ROW_3*%
X111686666Y-84433332D03*
%TO.P,SW11,2,2*%
%TO.N,Net-(D13-A)*%
X105336666Y-86973332D03*
%TD*%
%TO.P,SW10,2,2*%
%TO.N,Net-(D12-A)*%
X85810000Y-86973332D03*
%TO.P,SW10,1,1*%
%TO.N,KEY_ROW_3*%
X92160000Y-84433332D03*
%TD*%
%TO.P,SW9,2,2*%
%TO.N,Net-(D11-A)*%
X144390000Y-66946666D03*
%TO.P,SW9,1,1*%
%TO.N,KEY_ROW_2*%
X150740000Y-64406666D03*
%TD*%
%TO.P,SW8,2,2*%
%TO.N,Net-(D10-A)*%
X124863332Y-66946666D03*
%TO.P,SW8,1,1*%
%TO.N,KEY_ROW_2*%
X131213332Y-64406666D03*
%TD*%
%TO.P,SW7,2,2*%
%TO.N,Net-(D9-A)*%
X105336666Y-66946666D03*
%TO.P,SW7,1,1*%
%TO.N,KEY_ROW_2*%
X111686666Y-64406666D03*
%TD*%
%TO.P,SW6,1,1*%
%TO.N,KEY_ROW_2*%
X92160000Y-64406666D03*
%TO.P,SW6,2,2*%
%TO.N,Net-(D8-A)*%
X85810000Y-66946666D03*
%TD*%
%TO.P,SW5,1,1*%
%TO.N,KEY_ROW_1*%
X150740000Y-44380000D03*
%TO.P,SW5,2,2*%
%TO.N,Net-(D7-A)*%
X144390000Y-46920000D03*
%TD*%
%TO.P,SW4,1,1*%
%TO.N,KEY_ROW_1*%
X131213332Y-44380000D03*
%TO.P,SW4,2,2*%
%TO.N,Net-(D6-A)*%
X124863332Y-46920000D03*
%TD*%
%TO.P,SW3,2,2*%
%TO.N,Net-(D5-A)*%
X105336666Y-46920000D03*
%TO.P,SW3,1,1*%
%TO.N,KEY_ROW_1*%
X111686666Y-44380000D03*
%TD*%
%TO.P,SW2,1,1*%
%TO.N,KEY_ROW_1*%
X92160000Y-44380000D03*
%TO.P,SW2,2,2*%
%TO.N,Net-(D4-A)*%
X85810000Y-46920000D03*
%TD*%
D11*
%TO.P,J1,4,Pin_4*%
%TO.N,I2C_1_SDA*%
X205760000Y-38500000D03*
%TO.P,J1,3,Pin_3*%
%TO.N,I2C_1_SCL*%
X203220000Y-38500000D03*
%TO.P,J1,2,Pin_2*%
%TO.N,+3V3*%
X200680000Y-38500000D03*
D12*
%TO.P,J1,1,Pin_1*%
%TO.N,GND*%
X212600000Y-62700000D03*
X212600000Y-39200000D03*
D13*
X198140000Y-38500000D03*
D12*
X191300000Y-62800000D03*
X191300000Y-39300000D03*
%TD*%
D14*
%TO.P,TP2,1,1*%
%TO.N,+5V*%
X220446600Y-54974200D03*
%TD*%
D15*
%TO.P,SW1,1,A*%
%TO.N,+3V3*%
X162500000Y-52640000D03*
D16*
%TO.P,SW1,2,B*%
%TO.N,Net-(SW1-B)*%
X162500000Y-50100000D03*
%TO.P,SW1,3,C*%
%TO.N,GND*%
X162500000Y-47560000D03*
%TD*%
D14*
%TO.P,TP3,1,1*%
%TO.N,+3.3VA*%
X163830000Y-85598000D03*
%TD*%
D17*
%TO.P,H2,1,1*%
%TO.N,GND*%
X80000000Y-120000000D03*
%TD*%
D14*
%TO.P,TP5,1,1*%
%TO.N,GND*%
X220446600Y-72974200D03*
%TD*%
D17*
%TO.P,H5,1,1*%
%TO.N,GND*%
X220000000Y-40000000D03*
%TD*%
D18*
%TO.P,J3,1,Pin_1*%
%TO.N,+3V3*%
X201930000Y-69342000D03*
D19*
%TO.P,J3,2,Pin_2*%
%TO.N,SWDIO*%
X200660000Y-69342000D03*
%TO.P,J3,3,Pin_3*%
%TO.N,GND*%
X201930000Y-70612000D03*
%TO.P,J3,4,Pin_4*%
%TO.N,SWCLK*%
X200660000Y-70612000D03*
%TO.P,J3,5,Pin_5*%
%TO.N,GND*%
X201930000Y-71882000D03*
%TO.P,J3,6,Pin_6*%
%TO.N,SWO*%
X200660000Y-71882000D03*
%TO.P,J3,7,Pin_7*%
%TO.N,unconnected-(J3-Pin_7-Pad7)*%
X201930000Y-73152000D03*
%TO.P,J3,8,Pin_8*%
%TO.N,unconnected-(J3-Pin_8-Pad8)*%
X200660000Y-73152000D03*
%TO.P,J3,9,Pin_9*%
%TO.N,GND*%
X201930000Y-74422000D03*
%TO.P,J3,10,Pin_10*%
%TO.N,NRST*%
X200660000Y-74422000D03*
%TD*%
D17*
%TO.P,H6,1,1*%
%TO.N,GND*%
X220000000Y-120000000D03*
%TD*%
D14*
%TO.P,TP4,1,1*%
%TO.N,+3V3*%
X220446600Y-66974200D03*
%TD*%
D20*
%TO.P,J5,S1,SHIELD*%
%TO.N,unconnected-(J5-SHIELD-PadS1)*%
X174270000Y-42185000D03*
D21*
X174270000Y-38005000D03*
D20*
X165630000Y-42185000D03*
D21*
X165630000Y-38005000D03*
%TD*%
D14*
%TO.P,TP1,1,1*%
%TO.N,+12V*%
X220446600Y-48974200D03*
%TD*%
D15*
%TO.P,J2,1,Pin_1*%
%TO.N,+3V3*%
X192310000Y-119952000D03*
D16*
%TO.P,J2,2,Pin_2*%
%TO.N,SPI2_MOSI*%
X194850000Y-119952000D03*
%TO.P,J2,3,Pin_3*%
%TO.N,SPI2_MISO*%
X197390000Y-119952000D03*
%TO.P,J2,4,Pin_4*%
%TO.N,SPI2_SCK*%
X199930000Y-119952000D03*
%TO.P,J2,5,Pin_5*%
%TO.N,GND*%
X202470000Y-119952000D03*
%TD*%
D17*
%TO.P,H4,1,1*%
%TO.N,GND*%
X160000000Y-40000000D03*
%TD*%
%TO.P,H3,1,1*%
%TO.N,GND*%
X80000000Y-40000000D03*
%TD*%
D15*
%TO.P,J4,1,Pin_1*%
%TO.N,GND*%
X183896000Y-43688000D03*
D16*
%TO.P,J4,2,Pin_2*%
%TO.N,+12V*%
X181356000Y-43688000D03*
%TD*%
D17*
%TO.P,H1,1,1*%
%TO.N,GND*%
X160000000Y-120000000D03*
%TD*%
D22*
%TO.N,KEY_ROW_1*%
X154000000Y-45000000D03*
X164000000Y-72000000D03*
%TO.N,KEY_COL_1*%
X100000000Y-59500000D03*
X159000000Y-60500000D03*
%TO.N,KEY_COL_2*%
X119000000Y-59500000D03*
X159000000Y-61500000D03*
%TO.N,KEY_COL_3*%
X139500000Y-61000000D03*
X159000000Y-62500000D03*
%TO.N,I2C_1_SCL*%
X195400000Y-43000000D03*
X176900000Y-54200000D03*
%TO.N,I2C_1_SDA*%
X176200000Y-53400000D03*
X194100000Y-43000000D03*
%TO.N,+3V3*%
X163100000Y-66900000D03*
%TO.N,GND*%
X170180000Y-70866000D03*
X163830000Y-44450000D03*
X182626000Y-49022000D03*
X176530000Y-72136000D03*
X163576000Y-68326000D03*
X186690000Y-96266000D03*
X204400000Y-50546000D03*
X166370000Y-49022000D03*
X172466000Y-59436000D03*
X209226000Y-50038000D03*
X176022000Y-43688000D03*
X175514000Y-48006000D03*
X171196000Y-64770000D03*
X165100000Y-56388000D03*
X198120000Y-49022000D03*
X197612000Y-46736000D03*
X167640000Y-56896000D03*
X187452000Y-85852000D03*
X205162000Y-52070000D03*
X193548000Y-95504000D03*
X203384000Y-51816000D03*
X210200000Y-51100000D03*
X183642000Y-57150000D03*
X193040000Y-85344000D03*
X184912000Y-60452000D03*
X182372000Y-57150000D03*
X208210000Y-44196000D03*
X209226000Y-52070000D03*
X161544000Y-60960000D03*
%TO.N,+3V3*%
X180340000Y-70612000D03*
X190246000Y-83820000D03*
X205310000Y-40622000D03*
X168910000Y-56642000D03*
X209117000Y-45575000D03*
X197358000Y-57912000D03*
X217170000Y-66040000D03*
X204908000Y-56388000D03*
X207774000Y-40523000D03*
X206432000Y-56642000D03*
X208536000Y-39507000D03*
X184912000Y-58928000D03*
X203638000Y-56388000D03*
X189484000Y-90170000D03*
X172466000Y-71882000D03*
X170180000Y-55372000D03*
X204294000Y-39606000D03*
X199200000Y-59118000D03*
X187960000Y-83566000D03*
%TO.N,+5V*%
X170180000Y-49530000D03*
X172974000Y-50546000D03*
X166624000Y-44374500D03*
%TO.N,SWDIO*%
X178308000Y-60960000D03*
X196800000Y-69342000D03*
%TO.N,SWCLK*%
X177800000Y-59690000D03*
X198882000Y-70358000D03*
%TO.N,SWO*%
X176022000Y-60452000D03*
X183388000Y-62992000D03*
%TO.N,NRST*%
X175514000Y-63246000D03*
X196342000Y-74422000D03*
%TO.N,USB_CONN_D+*%
X170942000Y-41747500D03*
X168148000Y-45720000D03*
%TO.N,KEY_ROW_2*%
X171442000Y-74100000D03*
%TO.N,KEY_ROW_3*%
X169742000Y-74800000D03*
%TO.N,KEY_ROW_4*%
X173542000Y-75500000D03*
%TD*%
D23*
%TO.N,KEY_ROW_1*%
X164000000Y-72000000D02*
X159600000Y-67600000D01*
X159600000Y-50600000D02*
X154000000Y-45000000D01*
X159600000Y-67600000D02*
X159600000Y-50600000D01*
%TO.N,KEY_COL_1*%
X157400000Y-58900000D02*
X100600000Y-58900000D01*
X159000000Y-60500000D02*
X157400000Y-58900000D01*
X100600000Y-58900000D02*
X100000000Y-59500000D01*
%TO.N,KEY_COL_2*%
X119900000Y-60400000D02*
X119000000Y-59500000D01*
X157900000Y-60400000D02*
X119900000Y-60400000D01*
X159000000Y-61500000D02*
X157900000Y-60400000D01*
%TO.N,KEY_COL_3*%
X141000000Y-62500000D02*
X139500000Y-61000000D01*
X159000000Y-62500000D02*
X141000000Y-62500000D01*
D24*
%TO.N,KEY_ROW_4*%
X173542000Y-81658000D02*
X173542000Y-75500000D01*
X150740000Y-104460000D02*
X173542000Y-81658000D01*
%TO.N,KEY_ROW_2*%
X171342000Y-74000000D02*
X171442000Y-74100000D01*
X160333334Y-74000000D02*
X171342000Y-74000000D01*
X150740000Y-64406666D02*
X160333334Y-74000000D01*
%TO.N,KEY_ROW_3*%
X160108668Y-84433332D02*
X169742000Y-74800000D01*
X150740000Y-84433332D02*
X160108668Y-84433332D01*
%TO.N,KEY_ROW_1*%
X131213332Y-44380000D02*
X150740000Y-44380000D01*
X111686666Y-44380000D02*
X131213332Y-44380000D01*
X92160000Y-44380000D02*
X111686666Y-44380000D01*
%TO.N,KEY_ROW_4*%
X111686666Y-104460000D02*
X92160000Y-104460000D01*
X131213332Y-104460000D02*
X111686666Y-104460000D01*
X150740000Y-104460000D02*
X131213332Y-104460000D01*
%TO.N,KEY_ROW_3*%
X131213332Y-84433332D02*
X150740000Y-84433332D01*
X111686666Y-84433332D02*
X131213332Y-84433332D01*
X92160000Y-84433332D02*
X111686666Y-84433332D01*
%TO.N,KEY_ROW_2*%
X111686666Y-64406666D02*
X92160000Y-64406666D01*
X131213332Y-64406666D02*
X111686666Y-64406666D01*
X150740000Y-64406666D02*
X131213332Y-64406666D01*
D23*
%TO.N,SWCLK*%
X193350000Y-61950862D02*
X191089138Y-59690000D01*
X193350000Y-63469471D02*
X193350000Y-61950862D01*
X191089138Y-59690000D02*
X177800000Y-59690000D01*
X197700000Y-67819471D02*
X193350000Y-63469471D01*
X197700000Y-69176000D02*
X197700000Y-67819471D01*
X198882000Y-70358000D02*
X197700000Y-69176000D01*
%TO.N,SWDIO*%
X182204529Y-60960000D02*
X178308000Y-60960000D01*
X196800000Y-69342000D02*
X190586529Y-69342000D01*
X190586529Y-69342000D02*
X182204529Y-60960000D01*
%TO.N,I2C_1_SCL*%
X184200000Y-54200000D02*
X195400000Y-43000000D01*
X176900000Y-54200000D02*
X184200000Y-54200000D01*
%TO.N,I2C_1_SDA*%
X183700000Y-53400000D02*
X194100000Y-43000000D01*
X176200000Y-53400000D02*
X183700000Y-53400000D01*
D24*
%TO.N,+5V*%
X166624000Y-44374500D02*
X166624000Y-45256661D01*
X170180000Y-48812661D02*
X170180000Y-49530000D01*
X166624000Y-45256661D02*
X170180000Y-48812661D01*
X172974000Y-50546000D02*
X171196000Y-50546000D01*
X171196000Y-50546000D02*
X170180000Y-49530000D01*
%TO.N,+12V*%
X213382400Y-41910000D02*
X183134000Y-41910000D01*
X220446600Y-48974200D02*
X213382400Y-41910000D01*
X183134000Y-41910000D02*
X181356000Y-43688000D01*
D23*
%TO.N,SWO*%
X183388000Y-62992000D02*
X178562000Y-62992000D01*
X178562000Y-62992000D02*
X176022000Y-60452000D01*
%TO.N,NRST*%
X175514000Y-63246000D02*
X186690000Y-74422000D01*
X186690000Y-74422000D02*
X196342000Y-74422000D01*
%TO.N,USB_CONN_D+*%
X170942000Y-41656000D02*
X170942000Y-41747500D01*
X168148000Y-45720000D02*
X168148000Y-44450000D01*
X168148000Y-44450000D02*
X170942000Y-41656000D01*
%TD*%
M02*
